<svg width="273" height="283" viewBox="0 0 273 283" fill="none" xmlns="http://www.w3.org/2000/svg">
<rect width="273" height="283" fill="#131415"/>
<path d="M28.2012 45.0625L28.2012 33.3706H32.8779C33.7115 33.3706 34.3854 33.5384 34.8997 33.874C35.4139 34.2042 35.7901 34.621 36.0282 35.1244C36.2664 35.6278 36.3855 36.1366 36.3855 36.6508C36.3855 37.3058 36.2366 37.8498 35.9389 38.2828C35.6466 38.7159 35.2434 39.0054 34.7291 39.1516V38.7456C35.4599 38.8972 36.0066 39.2355 36.3693 39.7605C36.7373 40.2856 36.9214 40.8729 36.9214 41.5225C36.9214 42.2207 36.7915 42.8351 36.5316 43.3656C36.2772 43.896 35.8875 44.3128 35.3625 44.6159C34.8374 44.9136 34.177 45.0625 33.3813 45.0625H28.2012ZM30.4421 42.9839H33.154C33.4517 42.9839 33.7169 42.9217 33.9497 42.7972C34.1824 42.6673 34.3638 42.4887 34.4937 42.2613C34.629 42.0286 34.6967 41.7552 34.6967 41.4413C34.6967 41.1652 34.6398 40.9189 34.5262 40.7024C34.4125 40.4859 34.2393 40.3154 34.0065 40.1909C33.7792 40.061 33.495 39.996 33.154 39.996H30.4421V42.9839ZM30.4421 37.9337H32.8454C33.0944 37.9337 33.3164 37.8904 33.5112 37.8038C33.7061 37.7172 33.8604 37.5846 33.974 37.4059C34.0877 37.2219 34.1445 36.9864 34.1445 36.6995C34.1445 36.3423 34.0336 36.0419 33.8117 35.7983C33.5897 35.5547 33.2677 35.4329 32.8454 35.4329H30.4421V37.9337ZM41.6423 45.3223C40.9548 45.3223 40.3946 45.2059 39.9616 44.9732C39.5285 44.7404 39.1902 44.4454 38.9467 44.0882C38.7085 43.7309 38.538 43.3601 38.4351 42.9758C38.3323 42.5861 38.27 42.2315 38.2484 41.9122C38.2267 41.5928 38.2159 41.3601 38.2159 41.2139V36.2936H40.4569V40.4345C40.4569 40.6347 40.4677 40.8918 40.4893 41.2058C40.511 41.5143 40.5786 41.8256 40.6923 42.1395C40.806 42.4535 40.99 42.716 41.2444 42.9271C41.5043 43.1382 41.8696 43.2438 42.3406 43.2438C42.53 43.2438 42.733 43.214 42.9495 43.1544C43.166 43.0949 43.369 42.9812 43.5585 42.8134C43.7479 42.6402 43.9022 42.3885 44.0213 42.0583C44.1458 41.7227 44.208 41.2843 44.208 40.743L45.4746 41.3438C45.4746 42.0367 45.3339 42.6862 45.0524 43.2925C44.771 43.8987 44.346 44.3886 43.7777 44.7621C43.2147 45.1356 42.5029 45.3223 41.6423 45.3223ZM44.4841 45.0625V42.1558H44.208V36.2936H46.4327V45.0625H44.4841ZM52.0959 45.3061C51.2893 45.3061 50.5829 45.1031 49.9767 44.6971C49.3705 44.2912 48.8968 43.739 48.5558 43.0408C48.2202 42.3425 48.0524 41.5549 48.0524 40.678C48.0524 39.7849 48.2229 38.9919 48.5639 38.2991C48.9104 37.6008 49.3948 37.0514 50.0173 36.6508C50.6398 36.2503 51.3705 36.05 52.2095 36.05C53.0431 36.05 53.7441 36.253 54.3124 36.6589C54.8808 37.0649 55.3111 37.617 55.6034 38.3153C55.8957 39.0136 56.0419 39.8011 56.0419 40.678C56.0419 41.5549 55.893 42.3425 55.5953 43.0408C55.303 43.739 54.8646 44.2912 54.28 44.6971C53.6954 45.1031 52.9673 45.3061 52.0959 45.3061ZM52.4531 43.3412C52.9457 43.3412 53.3381 43.2302 53.6304 43.0083C53.9281 42.7864 54.1419 42.4751 54.2718 42.0746C54.4018 41.674 54.4667 41.2085 54.4667 40.678C54.4667 40.1476 54.4018 39.6821 54.2718 39.2815C54.1419 38.8809 53.9335 38.5697 53.6467 38.3478C53.3652 38.1258 52.9944 38.0149 52.5343 38.0149C52.0417 38.0149 51.6358 38.1367 51.3164 38.3803C51.0024 38.6184 50.7697 38.9405 50.6181 39.3465C50.4666 39.747 50.3908 40.1909 50.3908 40.678C50.3908 41.1706 50.4639 41.6199 50.61 42.0259C50.7562 42.4264 50.9808 42.7458 51.2839 42.9839C51.587 43.2221 51.9768 43.3412 52.4531 43.3412ZM54.4667 45.0625V39.0542H54.1907V33.3706H56.4154V45.0625H54.4667ZM62.2776 49.2034C61.7796 49.2034 61.3059 49.1222 60.8567 48.9598C60.4074 48.8028 60.0041 48.5809 59.6469 48.294C59.295 48.0125 59.0082 47.6824 58.7862 47.3034L60.8323 46.3129C60.973 46.5727 61.1733 46.7703 61.4331 46.9056C61.6984 47.0409 61.9853 47.1086 62.2938 47.1086C62.624 47.1086 62.9352 47.0517 63.2275 46.9381C63.5198 46.8298 63.7526 46.6647 63.9258 46.4428C64.1044 46.2263 64.1883 45.9556 64.1775 45.6309V43.0814H64.4535V36.2936H66.386V45.6633C66.386 45.8799 66.3751 46.0828 66.3535 46.2723C66.3372 46.4672 66.3048 46.6593 66.256 46.8488C66.1153 47.3846 65.8528 47.8258 65.4685 48.1722C65.0896 48.5186 64.6241 48.7758 64.0719 48.9436C63.5198 49.1168 62.9217 49.2034 62.2776 49.2034ZM62.0827 45.3061C61.2762 45.3061 60.5698 45.1031 59.9635 44.6971C59.3573 44.2912 58.8837 43.739 58.5426 43.0408C58.207 42.3425 58.0392 41.5549 58.0392 40.678C58.0392 39.7849 58.2097 38.9919 58.5508 38.2991C58.8972 37.6008 59.3816 37.0514 60.0041 36.6508C60.6266 36.2503 61.3574 36.05 62.1964 36.05C63.03 36.05 63.7309 36.253 64.2993 36.6589C64.8676 37.0649 65.298 37.617 65.5903 38.3153C65.8826 39.0136 66.0287 39.8011 66.0287 40.678C66.0287 41.5549 65.8799 42.3425 65.5821 43.0408C65.2898 43.739 64.8514 44.2912 64.2668 44.6971C63.6822 45.1031 62.9542 45.3061 62.0827 45.3061ZM62.4399 43.3412C62.9325 43.3412 63.325 43.2302 63.6173 43.0083C63.915 42.7864 64.1288 42.4751 64.2587 42.0746C64.3886 41.674 64.4535 41.2085 64.4535 40.678C64.4535 40.1476 64.3886 39.6821 64.2587 39.2815C64.1288 38.8809 63.9204 38.5697 63.6335 38.3478C63.352 38.1258 62.9812 38.0149 62.5211 38.0149C62.0286 38.0149 61.6226 38.1367 61.3032 38.3803C60.9893 38.6184 60.7565 38.9405 60.605 39.3465C60.4534 39.747 60.3776 40.1909 60.3776 40.678C60.3776 41.1706 60.4507 41.6199 60.5968 42.0259C60.743 42.4264 60.9676 42.7458 61.2708 42.9839C61.5739 43.2221 61.9636 43.3412 62.4399 43.3412ZM72.5733 45.3061C71.6748 45.3061 70.8818 45.1139 70.1943 44.7296C69.5123 44.3399 68.9764 43.8067 68.5867 43.1301C68.2024 42.4481 68.0102 41.6686 68.0102 40.7917C68.0102 39.8336 68.1997 39 68.5786 38.2909C68.9575 37.5818 69.4798 37.0324 70.1456 36.6427C70.8114 36.2476 71.5773 36.05 72.4434 36.05C73.3636 36.05 74.1458 36.2665 74.7899 36.6995C75.434 37.1326 75.9104 37.7415 76.2189 38.5264C76.5274 39.3113 76.6357 40.2342 76.5437 41.2951H74.3596V40.4832C74.3596 39.59 74.2161 38.9486 73.9292 38.5589C73.6478 38.1637 73.185 37.9662 72.5408 37.9662C71.7884 37.9662 71.2336 38.1962 70.8764 38.6563C70.5245 39.111 70.3486 39.7849 70.3486 40.678C70.3486 41.4954 70.5245 42.1287 70.8764 42.578C71.2336 43.0218 71.756 43.2438 72.4434 43.2438C72.8764 43.2438 73.2472 43.149 73.5557 42.9596C73.8643 42.7701 74.0997 42.4968 74.2621 42.1395L76.4706 42.7728C76.1404 43.5739 75.6181 44.1964 74.9036 44.6403C74.1945 45.0842 73.4177 45.3061 72.5733 45.3061ZM69.6666 41.2951V39.655H75.48V41.2951H69.6666ZM83.476 45.0625C82.8697 45.1762 82.2743 45.2249 81.6897 45.2086C81.1105 45.1978 80.5909 45.0977 80.1308 44.9082C79.6761 44.7134 79.3297 44.4021 79.0915 43.9745C78.875 43.5739 78.7613 43.168 78.7505 42.7566C78.7397 42.3398 78.7343 41.8689 78.7343 41.3438V33.8578H80.9427V41.2139C80.9427 41.5549 80.9454 41.8635 80.9509 42.1395C80.9617 42.4102 81.0185 42.6267 81.1214 42.7891C81.3162 43.0976 81.6275 43.2654 82.0551 43.2925C82.4827 43.3195 82.9563 43.2979 83.476 43.2275V45.0625ZM77.2403 37.9986V36.2936L83.476 36.2936V37.9986L77.2403 37.9986ZM91.7826 45.3061C90.6784 45.3061 89.7852 45.0571 89.1032 44.5591C88.4266 44.0557 88.0152 43.3466 87.8691 42.4318L90.1263 42.0908C90.2183 42.5022 90.4213 42.8243 90.7352 43.057C91.0546 43.2898 91.4578 43.4061 91.945 43.4061C92.3455 43.4061 92.6541 43.3304 92.8706 43.1788C93.0871 43.0218 93.1954 42.8053 93.1954 42.5293C93.1954 42.356 93.1521 42.218 93.0655 42.1152C92.9789 42.0069 92.784 41.9014 92.4809 41.7985C92.1832 41.6957 91.7177 41.5603 91.0843 41.3925C90.3698 41.2085 89.7988 41.0028 89.3712 40.7755C88.9435 40.5481 88.635 40.2775 88.4455 39.9635C88.2561 39.6442 88.1614 39.2599 88.1614 38.8106C88.1614 38.2476 88.3048 37.7605 88.5917 37.3491C88.8786 36.9323 89.2818 36.6129 89.8015 36.391C90.3265 36.1637 90.9436 36.05 91.6527 36.05C92.3401 36.05 92.9491 36.1555 93.4796 36.3666C94.01 36.5778 94.4376 36.8782 94.7624 37.2679C95.0926 37.6576 95.2956 38.1177 95.3714 38.6482L93.1142 39.0542C93.0763 38.7294 92.9356 38.4723 92.692 38.2828C92.4484 38.0934 92.1182 37.9824 91.7014 37.9499C91.2954 37.9229 90.968 37.977 90.719 38.1123C90.4754 38.2476 90.3536 38.4425 90.3536 38.6969C90.3536 38.8485 90.405 38.9757 90.5079 39.0785C90.6161 39.1814 90.8353 39.2869 91.1655 39.3952C91.5011 39.5034 92.0099 39.6442 92.692 39.8174C93.3578 39.9906 93.8909 40.1936 94.2915 40.4263C94.6975 40.6537 94.9925 40.9297 95.1765 41.2545C95.3605 41.5739 95.4526 41.9609 95.4526 42.4156C95.4526 43.3141 95.1278 44.0205 94.4782 44.5347C93.8287 45.049 92.9301 45.3061 91.7826 45.3061ZM101.378 45.3061C100.506 45.3061 99.7782 45.1031 99.1936 44.6971C98.609 44.2912 98.1678 43.739 97.8701 43.0408C97.5778 42.3425 97.4317 41.5549 97.4317 40.678C97.4317 39.8011 97.5778 39.0136 97.8701 38.3153C98.1624 37.617 98.5927 37.0649 99.1611 36.6589C99.7294 36.253 100.43 36.05 101.264 36.05C102.103 36.05 102.834 36.2503 103.456 36.6508C104.079 37.0514 104.56 37.6008 104.901 38.2991C105.248 38.9919 105.421 39.7849 105.421 40.678C105.421 41.5549 105.251 42.3425 104.91 43.0408C104.574 43.739 104.103 44.2912 103.497 44.6971C102.891 45.1031 102.184 45.3061 101.378 45.3061ZM97.0582 48.9598V36.2936H99.0068V42.3019H99.2829V48.9598H97.0582ZM101.02 43.3412C101.497 43.3412 101.886 43.2221 102.19 42.9839C102.493 42.7458 102.717 42.4264 102.864 42.0259C103.01 41.6199 103.083 41.1706 103.083 40.678C103.083 40.1909 103.007 39.747 102.855 39.3465C102.704 38.9405 102.468 38.6184 102.149 38.3803C101.835 38.1367 101.432 38.0149 100.939 38.0149C100.479 38.0149 100.106 38.1258 99.8188 38.3478C99.5373 38.5697 99.3316 38.8809 99.2017 39.2815C99.0718 39.6821 99.0068 40.1476 99.0068 40.678C99.0068 41.2085 99.0718 41.674 99.2017 42.0746C99.3316 42.4751 99.5427 42.7864 99.835 43.0083C100.133 43.2302 100.528 43.3412 101.02 43.3412ZM111.121 45.3061C110.223 45.3061 109.43 45.1139 108.742 44.7296C108.06 44.3399 107.524 43.8067 107.135 43.1301C106.75 42.4481 106.558 41.6686 106.558 40.7917C106.558 39.8336 106.748 39 107.127 38.2909C107.505 37.5818 108.028 37.0324 108.694 36.6427C109.359 36.2476 110.125 36.05 110.991 36.05C111.912 36.05 112.694 36.2665 113.338 36.6995C113.982 37.1326 114.458 37.7415 114.767 38.5264C115.075 39.3113 115.184 40.2342 115.092 41.2951H112.908V40.4832C112.908 39.59 112.764 38.9486 112.477 38.5589C112.196 38.1637 111.733 37.9662 111.089 37.9662C110.336 37.9662 109.782 38.1962 109.424 38.6563C109.073 39.111 108.897 39.7849 108.897 40.678C108.897 41.4954 109.073 42.1287 109.424 42.578C109.782 43.0218 110.304 43.2438 110.991 43.2438C111.424 43.2438 111.795 43.149 112.104 42.9596C112.412 42.7701 112.648 42.4968 112.81 42.1395L115.019 42.7728C114.688 43.5739 114.166 44.1964 113.452 44.6403C112.742 45.0842 111.966 45.3061 111.121 45.3061ZM108.215 41.2951V39.655H114.028V41.2951H108.215ZM122.501 45.0625V40.9216C122.501 40.7213 122.49 40.4669 122.468 40.1584C122.446 39.8444 122.379 39.5305 122.265 39.2165C122.151 38.9026 121.965 38.6401 121.705 38.429C121.451 38.2179 121.088 38.1123 120.617 38.1123C120.427 38.1123 120.224 38.1421 120.008 38.2016C119.791 38.2612 119.588 38.3775 119.399 38.5508C119.21 38.7186 119.053 38.9676 118.928 39.2977C118.809 39.6279 118.749 40.0664 118.749 40.6131L117.483 40.0122C117.483 39.3194 117.624 38.6698 117.905 38.0636C118.187 37.4574 118.609 36.9675 119.172 36.594C119.74 36.2205 120.455 36.0338 121.315 36.0338C122.003 36.0338 122.563 36.1501 122.996 36.3829C123.429 36.6156 123.765 36.9106 124.003 37.2679C124.246 37.6252 124.419 37.9986 124.522 38.3884C124.625 38.7727 124.687 39.1245 124.709 39.4439C124.731 39.7633 124.742 39.996 124.742 40.1422V45.0625H122.501ZM116.509 45.0625V36.2936H118.473V39.2003H118.749V45.0625H116.509ZM131.947 45.0625C131.341 45.1762 130.746 45.2249 130.161 45.2086C129.582 45.1978 129.062 45.0977 128.602 44.9082C128.148 44.7134 127.801 44.4021 127.563 43.9745C127.346 43.5739 127.233 43.168 127.222 42.7566C127.211 42.3398 127.206 41.8689 127.206 41.3438V33.8578H129.414V41.2139C129.414 41.5549 129.417 41.8635 129.422 42.1395C129.433 42.4102 129.49 42.6267 129.593 42.7891C129.788 43.0976 130.099 43.2654 130.526 43.2925C130.954 43.3195 131.428 43.2979 131.947 43.2275V45.0625ZM125.712 37.9986V36.2936H131.947V37.9986H125.712Z" fill="white"/>
<path d="M114.37 155.616C112.129 155.616 110.18 156.623 109.141 158.312C109.4 154.479 112.064 151.751 115.831 151.751C117.585 151.751 119.209 152.466 120.378 153.472L122.391 150.257C120.573 148.731 118.169 147.951 115.734 147.951C110.018 147.951 104.984 152.108 104.984 160.617C104.984 166.918 108.589 171.205 113.72 171.205C118.754 171.205 122.359 167.957 122.359 163.411C122.359 158.864 119.014 155.616 114.37 155.616ZM113.85 167.373C111.382 167.373 109.628 165.619 109.628 163.183C109.628 160.78 111.382 159.026 113.85 159.026C116.286 159.026 118.039 160.78 118.007 163.183C118.007 165.619 116.286 167.373 113.85 167.373ZM135.881 170.945H140.298V166.204H143.188V162.371H140.298V148.211H135.524L124.416 162.371V166.204H135.881V170.945ZM128.963 162.371L135.881 153.472V162.371H128.963ZM149.662 159.383C152.845 159.383 154.956 157.045 154.956 153.667C154.956 150.29 152.845 147.951 149.662 147.951C146.447 147.951 144.336 150.29 144.336 153.667C144.336 157.045 146.447 159.383 149.662 159.383ZM146.999 170.945H150.312L165.511 148.211H162.198L146.999 170.945ZM149.662 156.59C148.298 156.59 147.454 155.486 147.454 153.667C147.454 151.849 148.298 150.744 149.662 150.744C150.994 150.744 151.806 151.849 151.806 153.667C151.806 155.486 150.994 156.59 149.662 156.59ZM162.945 171.205C166.128 171.205 168.239 168.867 168.239 165.489C168.239 162.111 166.128 159.773 162.945 159.773C159.763 159.773 157.619 162.111 157.619 165.489C157.619 168.867 159.763 171.205 162.945 171.205ZM162.945 168.412C161.581 168.412 160.769 167.308 160.769 165.489C160.769 163.67 161.581 162.566 162.945 162.566C164.31 162.566 165.121 163.67 165.121 165.489C165.121 167.308 164.31 168.412 162.945 168.412Z" fill="white"/>
<path d="M136.268 83.8469C146.264 83.8469 156.163 85.8157 165.398 89.6411C174.633 93.4664 183.024 99.0733 190.093 106.142C197.161 113.21 202.768 121.601 206.593 130.836C210.419 140.072 212.388 149.97 212.388 159.966C212.388 169.962 210.419 179.86 206.593 189.096C202.768 198.331 197.161 206.722 190.093 213.79C183.024 220.859 174.633 226.466 165.398 230.291C156.163 234.116 146.264 236.085 136.268 236.085C126.272 236.085 116.374 234.116 107.139 230.291C97.9036 226.466 89.5123 220.859 82.444 213.79C75.3757 206.722 69.7688 198.331 65.9434 189.096C62.1181 179.86 60.1492 169.962 60.1492 159.966C60.1492 149.97 62.1181 140.072 65.9434 130.836C69.7688 121.601 75.3757 113.21 82.444 106.142C89.5123 99.0733 97.9036 93.4664 107.139 89.6411C116.374 85.8157 126.272 83.8469 136.268 83.8469L136.268 83.8469Z" stroke="#1D2124" stroke-width="20.2984"/>
<path d="M136.268 83.8469C149.335 83.8469 162.181 87.2104 173.571 93.6138C184.961 100.017 194.511 109.245 201.301 120.408C208.092 131.572 211.894 144.295 212.343 157.354C212.791 170.413 209.87 183.367 203.861 194.97C197.853 206.573 188.958 216.434 178.034 223.603C167.11 230.773 154.525 235.01 141.489 235.906C128.453 236.802 115.406 234.328 103.604 228.72C91.8018 223.113 81.6416 214.562 74.1015 203.891" stroke="#E8B8E9" stroke-width="20.2984" stroke-linecap="round" stroke-linejoin="round"/>
</svg>
