<svg width="273" height="283" viewBox="0 0 273 283" fill="none" xmlns="http://www.w3.org/2000/svg">
<rect width="273" height="283" fill="#131415"/>
<path d="M28.875 45.0625L28.875 33.3706H30.8561L34.7209 41.1327L38.5858 33.3706H40.5669L40.5669 45.0625H38.5046L38.5046 38.0798L35.1107 45.0625H34.3312L30.9373 38.0798L30.9373 45.0625H28.875ZM43.8041 48.9598L45.4929 44.3155L45.5254 45.6796L41.7093 36.2936H43.999L46.5647 42.9352H46.0451L48.5945 36.2936H50.803L45.8502 48.9598H43.8041ZM60.1323 45.0625C59.5261 45.1762 58.9306 45.2249 58.346 45.2086C57.7669 45.1978 57.2472 45.0977 56.7871 44.9082C56.3324 44.7134 55.986 44.4021 55.7478 43.9745C55.5313 43.5739 55.4177 43.168 55.4068 42.7566C55.396 42.3398 55.3906 41.8689 55.3906 41.3438V33.8578H57.5991V41.2139C57.5991 41.5549 57.6018 41.8635 57.6072 42.1395C57.618 42.4102 57.6748 42.6267 57.7777 42.7891C57.9726 43.0976 58.2838 43.2654 58.7114 43.2925C59.139 43.3195 59.6127 43.2979 60.1323 43.2275V45.0625ZM53.8966 37.9986V36.2936H60.1323V37.9986H53.8966ZM64.3598 45.3061C63.7319 45.3061 63.1988 45.187 62.7603 44.9488C62.3273 44.7052 61.9971 44.3832 61.7698 43.9826C61.5478 43.5767 61.4369 43.1301 61.4369 42.6429C61.4369 42.237 61.4991 41.8662 61.6236 41.5306C61.7481 41.195 61.9484 40.9 62.2244 40.6456C62.5059 40.3857 62.8821 40.1692 63.353 39.996C63.6778 39.8769 64.0648 39.7714 64.5141 39.6794C64.9634 39.5873 65.4722 39.5007 66.0406 39.4195C66.6089 39.3329 67.2341 39.2382 67.9161 39.1354L67.1204 39.5738C67.1204 39.0542 66.9959 38.6726 66.7469 38.429C66.4979 38.1854 66.0811 38.0636 65.4966 38.0636C65.1718 38.0636 64.8335 38.1421 64.4816 38.2991C64.1298 38.456 63.8835 38.7348 63.7428 39.1354L61.7454 38.502C61.9673 37.7767 62.3841 37.1867 62.9958 36.732C63.6074 36.2773 64.441 36.05 65.4966 36.05C66.2706 36.05 66.958 36.1691 67.5589 36.4072C68.1597 36.6454 68.6144 37.0568 68.9229 37.6414C69.0961 37.9662 69.199 38.2909 69.2315 38.6157C69.2639 38.9405 69.2802 39.3032 69.2802 39.7037V45.0625H67.3478V43.26L67.6238 43.6335C67.1962 44.2235 66.7334 44.6511 66.2354 44.9164C65.7428 45.1762 65.1176 45.3061 64.3598 45.3061ZM64.8308 43.5685C65.2367 43.5685 65.5777 43.4982 65.8538 43.3574C66.1353 43.2113 66.3572 43.0462 66.5196 42.8621C66.6874 42.6781 66.8011 42.5238 66.8606 42.3993C66.9743 42.1612 67.0392 41.8851 67.0555 41.5712C67.0771 41.2518 67.088 40.9866 67.088 40.7755L67.7375 40.9379C67.0825 41.0461 66.5521 41.1381 66.1461 41.2139C65.7401 41.2843 65.4127 41.3492 65.1637 41.4088C64.9147 41.4683 64.6954 41.5333 64.506 41.6036C64.2895 41.6903 64.1136 41.785 63.9782 41.8878C63.8483 41.9853 63.7509 42.0935 63.6859 42.2126C63.6264 42.3317 63.5966 42.4643 63.5966 42.6104C63.5966 42.8107 63.6453 42.9839 63.7428 43.1301C63.8456 43.2708 63.9891 43.3791 64.1731 43.4549C64.3571 43.5306 64.5764 43.5685 64.8308 43.5685ZM74.6553 45.3061C73.5511 45.3061 72.658 45.0571 71.9759 44.5591C71.2993 44.0557 70.8879 43.3466 70.7418 42.4318L72.999 42.0908C73.091 42.5022 73.294 42.8243 73.6079 43.057C73.9273 43.2898 74.3306 43.4061 74.8177 43.4061C75.2183 43.4061 75.5268 43.3304 75.7433 43.1788C75.9598 43.0218 76.0681 42.8053 76.0681 42.5293C76.0681 42.356 76.0248 42.218 75.9382 42.1152C75.8516 42.0069 75.6567 41.9014 75.3536 41.7985C75.0559 41.6957 74.5904 41.5603 73.9571 41.3925C73.2426 41.2085 72.6715 41.0028 72.2439 40.7755C71.8163 40.5481 71.5077 40.2775 71.3183 39.9635C71.1288 39.6442 71.0341 39.2599 71.0341 38.8106C71.0341 38.2476 71.1775 37.7605 71.4644 37.3491C71.7513 36.9323 72.1546 36.6129 72.6742 36.391C73.1993 36.1637 73.8163 36.05 74.5254 36.05C75.2129 36.05 75.8218 36.1555 76.3523 36.3666C76.8828 36.5778 77.3104 36.8782 77.6351 37.2679C77.9653 37.6576 78.1683 38.1177 78.2441 38.6482L75.9869 39.0542C75.949 38.7294 75.8083 38.4723 75.5647 38.2828C75.3211 38.0934 74.9909 37.9824 74.5741 37.9499C74.1682 37.9229 73.8407 37.977 73.5917 38.1123C73.3481 38.2476 73.2263 38.4425 73.2263 38.6969C73.2263 38.8485 73.2777 38.9757 73.3806 39.0785C73.4889 39.1814 73.7081 39.2869 74.0383 39.3952C74.3739 39.5034 74.8827 39.6442 75.5647 39.8174C76.2305 39.9906 76.7637 40.1936 77.1642 40.4263C77.5702 40.6537 77.8652 40.9297 78.0492 41.2545C78.2333 41.5739 78.3253 41.9609 78.3253 42.4156C78.3253 43.3141 78.0005 44.0205 77.351 44.5347C76.7014 45.049 75.8029 45.3061 74.6553 45.3061ZM79.9309 45.0625L79.9471 33.3706H82.1881V40.5156L85.1598 36.2936H87.8879L84.7213 40.678L88.099 45.0625H85.2247L82.1881 40.8404V45.0625H79.9309ZM92.0124 45.3061C90.9082 45.3061 90.015 45.0571 89.333 44.5591C88.6564 44.0557 88.245 43.3466 88.0989 42.4318L90.3561 42.0908C90.4481 42.5022 90.6511 42.8243 90.965 43.057C91.2844 43.2898 91.6876 43.4061 92.1748 43.4061C92.5753 43.4061 92.8839 43.3304 93.1004 43.1788C93.3169 43.0218 93.4252 42.8053 93.4252 42.5293C93.4252 42.356 93.3819 42.218 93.2953 42.1152C93.2087 42.0069 93.0138 41.9014 92.7107 41.7985C92.413 41.6957 91.9474 41.5603 91.3141 41.3925C90.5996 41.2085 90.0286 41.0028 89.6009 40.7755C89.1733 40.5481 88.8648 40.2775 88.6753 39.9635C88.4859 39.6442 88.3912 39.2599 88.3912 38.8106C88.3912 38.2476 88.5346 37.7605 88.8215 37.3491C89.1084 36.9323 89.5116 36.6129 90.0313 36.391C90.5563 36.1637 91.1734 36.05 91.8825 36.05C92.5699 36.05 93.1789 36.1555 93.7094 36.3666C94.2398 36.5778 94.6674 36.8782 94.9922 37.2679C95.3224 37.6576 95.5254 38.1177 95.6012 38.6482L93.344 39.0542C93.3061 38.7294 93.1654 38.4723 92.9218 38.2828C92.6782 38.0934 92.348 37.9824 91.9312 37.9499C91.5252 37.9229 91.1978 37.977 90.9488 38.1123C90.7052 38.2476 90.5834 38.4425 90.5834 38.6969C90.5834 38.8485 90.6348 38.9757 90.7377 39.0785C90.8459 39.1814 91.0651 39.2869 91.3953 39.3952C91.7309 39.5034 92.2397 39.6442 92.9218 39.8174C93.5876 39.9906 94.1207 40.1936 94.5213 40.4263C94.9273 40.6537 95.2223 40.9297 95.4063 41.2545C95.5903 41.5739 95.6824 41.9609 95.6824 42.4156C95.6824 43.3141 95.3576 44.0205 94.708 44.5347C94.0585 45.049 93.1599 45.3061 92.0124 45.3061Z" fill="white"/>
<path d="M69.7912 81.0715H72.8008C73.3493 81.0715 73.8364 81.1725 74.2622 81.3746C74.6881 81.5695 75.0164 81.8581 75.2474 82.2407C75.4856 82.6232 75.6047 83.0815 75.6047 83.6155C75.6047 84.1424 75.4856 84.5971 75.2474 84.9796C75.0092 85.3621 74.6772 85.6544 74.2514 85.8565C73.8328 86.0586 73.3493 86.1596 72.8008 86.1596H71.2635V89.1367H69.7912V81.0715ZM72.8224 84.8605C73.2194 84.8605 73.5369 84.7486 73.7751 84.5249C74.0133 84.294 74.1323 83.9908 74.1323 83.6155C74.1323 83.2402 74.0133 82.9407 73.7751 82.717C73.5369 82.486 73.2194 82.3706 72.8224 82.3706H71.2635V84.8605H72.8224ZM76.692 80.9416H78.1102V89.1367H76.692V80.9416ZM81.2058 89.2666C80.5852 89.2666 80.0908 89.1151 79.7227 88.8119C79.3618 88.5088 79.1814 88.0974 79.1814 87.5778C79.1814 87.0798 79.351 86.6684 79.6902 86.3437C80.0294 86.0189 80.5382 85.8024 81.2167 85.6941L82.9704 85.4126V85.2178C82.9704 84.9579 82.8694 84.745 82.6673 84.579C82.4725 84.413 82.2126 84.33 81.8879 84.33C81.5847 84.33 81.3141 84.413 81.0759 84.579C80.845 84.7378 80.6754 84.9507 80.5671 85.2178L79.4087 84.6548C79.582 84.1929 79.8995 83.8212 80.3614 83.5398C80.8233 83.2583 81.3502 83.1176 81.942 83.1176C82.4183 83.1176 82.8405 83.2078 83.2086 83.3882C83.5839 83.5614 83.8726 83.8104 84.0747 84.1352C84.284 84.4527 84.3886 84.8136 84.3886 85.2178V89.1367H83.0462V88.5088C82.5843 89.014 81.9709 89.2666 81.2058 89.2666ZM80.6537 87.5237C80.6537 87.7258 80.7295 87.8881 80.8811 88.0108C81.0326 88.1263 81.2275 88.184 81.4657 88.184C81.9059 88.184 82.2668 88.0469 82.5482 87.7727C82.8297 87.4912 82.9704 87.1448 82.9704 86.7334V86.4952L81.4873 86.7442C81.2058 86.8019 80.9965 86.8958 80.8594 87.0257C80.7223 87.1484 80.6537 87.3144 80.6537 87.5237ZM85.6994 83.2475H87.031V83.9728C87.1825 83.6985 87.4027 83.4892 87.6914 83.3449C87.9873 83.1933 88.3229 83.1176 88.6982 83.1176C89.124 83.1176 89.5065 83.2114 89.8457 83.399C90.1849 83.5867 90.4483 83.8501 90.636 84.1893C90.8236 84.5285 90.9175 84.9146 90.9175 85.3477V89.1367H89.4993V85.6833C89.4993 85.3008 89.3874 84.994 89.1637 84.7631C88.9472 84.5321 88.6621 84.4167 88.3084 84.4167C87.9548 84.4167 87.6661 84.5321 87.4424 84.7631C87.2258 84.994 87.1176 85.3008 87.1176 85.6833V89.1367H85.6994V83.2475ZM94.1599 81.0715H99.5403V82.3706H95.6322V84.6007H99.0532V85.8998H95.6322V89.1367H94.1599V81.0715ZM101.917 89.2666C101.296 89.2666 100.802 89.1151 100.433 88.8119C100.073 88.5088 99.8922 88.0974 99.8922 87.5778C99.8922 87.0798 100.062 86.6684 100.401 86.3437C100.74 86.0189 101.249 85.8024 101.927 85.6941L103.681 85.4126V85.2178C103.681 84.9579 103.58 84.745 103.378 84.579C103.183 84.413 102.923 84.33 102.599 84.33C102.295 84.33 102.025 84.413 101.787 84.579C101.556 84.7378 101.386 84.9507 101.278 85.2178L100.12 84.6548C100.293 84.1929 100.61 83.8212 101.072 83.5398C101.534 83.2583 102.061 83.1176 102.653 83.1176C103.129 83.1176 103.551 83.2078 103.919 83.3882C104.295 83.5614 104.583 83.8104 104.785 84.1352C104.995 84.4527 105.099 84.8136 105.099 85.2178V89.1367H103.757V88.5088C103.295 89.014 102.682 89.2666 101.917 89.2666ZM101.364 87.5237C101.364 87.7258 101.44 87.8881 101.592 88.0108C101.743 88.1263 101.938 88.184 102.176 88.184C102.617 88.184 102.978 88.0469 103.259 87.7727C103.54 87.4912 103.681 87.1448 103.681 86.7334V86.4952L102.198 86.7442C101.917 86.8019 101.707 86.8958 101.57 87.0257C101.433 87.1484 101.364 87.3144 101.364 87.5237ZM109.247 89.2666C108.669 89.2666 108.142 89.1331 107.666 88.8661C107.197 88.5918 106.829 88.2201 106.562 87.751C106.295 87.2819 106.161 86.7586 106.161 86.1813C106.161 85.6039 106.295 85.0842 106.562 84.6223C106.829 84.1532 107.197 83.7851 107.666 83.5181C108.135 83.2511 108.662 83.1176 109.247 83.1176C109.874 83.1176 110.434 83.2799 110.925 83.6047C111.415 83.9223 111.751 84.3409 111.931 84.8605L110.697 85.4018C110.582 85.0987 110.394 84.8605 110.134 84.6873C109.874 84.5069 109.579 84.4167 109.247 84.4167C108.943 84.4167 108.669 84.4924 108.424 84.644C108.178 84.7956 107.984 85.0085 107.839 85.2827C107.702 85.5498 107.633 85.8529 107.633 86.1921C107.633 86.5313 107.702 86.838 107.839 87.1123C107.984 87.3793 108.178 87.5886 108.424 87.7402C108.669 87.8917 108.943 87.9675 109.247 87.9675C109.586 87.9675 109.882 87.8809 110.134 87.7077C110.394 87.5273 110.582 87.2819 110.697 86.9716L111.931 87.5345C111.758 88.0469 111.423 88.4655 110.925 88.7903C110.434 89.1078 109.874 89.2666 109.247 89.2666ZM115.79 89.2666C115.198 89.2666 114.671 89.1295 114.209 88.8552C113.754 88.581 113.397 88.2093 113.137 87.7402C112.885 87.2711 112.758 86.7514 112.758 86.1813C112.758 85.6039 112.885 85.0842 113.137 84.6223C113.397 84.1532 113.747 83.7851 114.187 83.5181C114.635 83.2511 115.133 83.1176 115.681 83.1176C116.273 83.1176 116.786 83.2475 117.219 83.5073C117.652 83.7599 117.98 84.1063 118.204 84.5466C118.435 84.9868 118.55 85.4704 118.55 85.9972C118.55 86.2426 118.525 86.4411 118.474 86.5926H114.231C114.274 87.0257 114.44 87.3721 114.729 87.6319C115.017 87.8917 115.375 88.0217 115.8 88.0217C116.118 88.0217 116.389 87.9567 116.612 87.8268C116.843 87.6897 117.027 87.502 117.165 87.2638L118.312 87.8268C118.132 88.2598 117.814 88.6099 117.359 88.8769C116.905 89.1367 116.381 89.2666 115.79 89.2666ZM117.035 85.5101C116.999 85.1492 116.858 84.8569 116.612 84.6332C116.367 84.4022 116.057 84.2867 115.681 84.2867C115.321 84.2867 115.014 84.395 114.761 84.6115C114.509 84.8208 114.343 85.1203 114.263 85.5101H117.035ZM122.841 89.2666C122.458 89.2666 122.101 89.1981 121.769 89.0609C121.444 88.9238 121.173 88.7289 120.957 88.4763V89.1367H119.625L119.625 80.9416H121.043V83.8429C121.253 83.6119 121.513 83.4351 121.823 83.3124C122.133 83.1825 122.476 83.1176 122.851 83.1176C123.4 83.1176 123.901 83.2547 124.356 83.5289C124.811 83.796 125.168 84.1641 125.428 84.6332C125.688 85.1023 125.818 85.6219 125.818 86.1921C125.818 86.7623 125.688 87.2819 125.428 87.751C125.168 88.2201 124.811 88.5918 124.356 88.8661C123.909 89.1331 123.404 89.2666 122.841 89.2666ZM121.043 86.1921C121.043 86.5313 121.112 86.838 121.249 87.1123C121.394 87.3793 121.588 87.5886 121.834 87.7402C122.086 87.8917 122.368 87.9675 122.678 87.9675C123.162 87.9675 123.559 87.8015 123.869 87.4695C124.187 87.1303 124.345 86.7045 124.345 86.1921C124.345 85.8601 124.273 85.5606 124.129 85.2935C123.984 85.0193 123.786 84.8064 123.533 84.6548C123.281 84.496 122.996 84.4167 122.678 84.4167C122.368 84.4167 122.086 84.4924 121.834 84.644C121.588 84.7956 121.394 85.0085 121.249 85.2827C121.112 85.5498 121.043 85.8529 121.043 86.1921ZM129.779 89.2666C129.208 89.2666 128.685 89.1331 128.209 88.8661C127.732 88.599 127.354 88.231 127.072 87.7618C126.798 87.2927 126.661 86.7695 126.661 86.1921C126.661 85.6147 126.798 85.0915 127.072 84.6223C127.346 84.1532 127.722 83.7851 128.198 83.5181C128.674 83.2511 129.201 83.1176 129.779 83.1176C130.349 83.1176 130.868 83.2511 131.337 83.5181C131.814 83.7851 132.189 84.1532 132.463 84.6223C132.745 85.0915 132.886 85.6147 132.886 86.1921C132.886 86.7767 132.745 87.3035 132.463 87.7727C132.189 88.2418 131.814 88.6099 131.337 88.8769C130.861 89.1367 130.342 89.2666 129.779 89.2666ZM128.133 86.1921C128.133 86.7045 128.285 87.1303 128.588 87.4695C128.898 87.8015 129.295 87.9675 129.779 87.9675C130.089 87.9675 130.367 87.8917 130.612 87.7402C130.858 87.5886 131.049 87.3793 131.186 87.1123C131.33 86.838 131.402 86.5313 131.402 86.1921C131.402 85.8601 131.33 85.5606 131.186 85.2935C131.049 85.0193 130.858 84.8064 130.612 84.6548C130.367 84.496 130.089 84.4167 129.779 84.4167C129.461 84.4167 129.176 84.496 128.923 84.6548C128.678 84.8064 128.483 85.0157 128.339 85.2827C128.202 85.5498 128.133 85.8529 128.133 86.1921ZM136.841 89.2666C136.271 89.2666 135.747 89.1331 135.271 88.8661C134.795 88.599 134.416 88.231 134.134 87.7618C133.86 87.2927 133.723 86.7695 133.723 86.1921C133.723 85.6147 133.86 85.0915 134.134 84.6223C134.409 84.1532 134.784 83.7851 135.26 83.5181C135.737 83.2511 136.263 83.1176 136.841 83.1176C137.411 83.1176 137.931 83.2511 138.4 83.5181C138.876 83.7851 139.251 84.1532 139.526 84.6223C139.807 85.0915 139.948 85.6147 139.948 86.1921C139.948 86.7767 139.807 87.3035 139.526 87.7727C139.251 88.2418 138.876 88.6099 138.4 88.8769C137.923 89.1367 137.404 89.2666 136.841 89.2666ZM135.195 86.1921C135.195 86.7045 135.347 87.1303 135.65 87.4695C135.96 87.8015 136.357 87.9675 136.841 87.9675C137.151 87.9675 137.429 87.8917 137.674 87.7402C137.92 87.5886 138.111 87.3793 138.248 87.1123C138.392 86.838 138.465 86.5313 138.465 86.1921C138.465 85.8601 138.392 85.5606 138.248 85.2935C138.111 85.0193 137.92 84.8064 137.674 84.6548C137.429 84.496 137.151 84.4167 136.841 84.4167C136.523 84.4167 136.238 84.496 135.985 84.6548C135.74 84.8064 135.545 85.0157 135.401 85.2827C135.264 85.5498 135.195 85.8529 135.195 86.1921ZM141.023 80.9416H142.441V85.5858L144.672 83.2475H146.436L144.26 85.6183L146.479 89.1367H144.856L143.199 86.5169L142.441 87.3396V89.1367H141.023V80.9416ZM152.032 89.2666C151.454 89.2666 150.928 89.1331 150.451 88.8661C149.982 88.5918 149.614 88.2201 149.347 87.751C149.08 87.2819 148.946 86.7586 148.946 86.1813C148.946 85.6039 149.08 85.0842 149.347 84.6223C149.614 84.1532 149.982 83.7851 150.451 83.5181C150.92 83.2511 151.447 83.1176 152.032 83.1176C152.66 83.1176 153.219 83.2799 153.71 83.6047C154.201 83.9223 154.536 84.3409 154.717 84.8605L153.482 85.4018C153.367 85.0987 153.179 84.8605 152.92 84.6873C152.66 84.5069 152.364 84.4167 152.032 84.4167C151.729 84.4167 151.454 84.4924 151.209 84.644C150.964 84.7956 150.769 85.0085 150.624 85.2827C150.487 85.5498 150.419 85.8529 150.419 86.1921C150.419 86.5313 150.487 86.838 150.624 87.1123C150.769 87.3793 150.964 87.5886 151.209 87.7402C151.454 87.8917 151.729 87.9675 152.032 87.9675C152.371 87.9675 152.667 87.8809 152.92 87.7077C153.179 87.5273 153.367 87.2819 153.482 86.9716L154.717 87.5345C154.543 88.0469 154.208 88.4655 153.71 88.7903C153.219 89.1078 152.66 89.2666 152.032 89.2666ZM157.536 89.2666C156.916 89.2666 156.421 89.1151 156.053 88.8119C155.692 88.5088 155.512 88.0974 155.512 87.5778C155.512 87.0798 155.682 86.6684 156.021 86.3437C156.36 86.0189 156.869 85.8024 157.547 85.6941L159.301 85.4126V85.2178C159.301 84.9579 159.2 84.745 158.998 84.579C158.803 84.413 158.543 84.33 158.218 84.33C157.915 84.33 157.645 84.413 157.407 84.579C157.176 84.7378 157.006 84.9507 156.898 85.2178L155.739 84.6548C155.913 84.1929 156.23 83.8212 156.692 83.5398C157.154 83.2583 157.681 83.1176 158.273 83.1176C158.749 83.1176 159.171 83.2078 159.539 83.3882C159.915 83.5614 160.203 83.8104 160.405 84.1352C160.615 84.4527 160.719 84.8136 160.719 85.2178V89.1367H159.377V88.5088C158.915 89.014 158.301 89.2666 157.536 89.2666ZM156.984 87.5237C156.984 87.7258 157.06 87.8881 157.212 88.0108C157.363 88.1263 157.558 88.184 157.796 88.184C158.237 88.184 158.597 88.0469 158.879 87.7727C159.16 87.4912 159.301 87.1448 159.301 86.7334V86.4952L157.818 86.7442C157.536 86.8019 157.327 86.8958 157.19 87.0257C157.053 87.1484 156.984 87.3144 156.984 87.5237ZM162.03 83.2475H163.362V83.9836C163.513 83.7021 163.73 83.4892 164.011 83.3449C164.3 83.1933 164.632 83.1176 165.007 83.1176C165.397 83.1176 165.754 83.2042 166.079 83.3774C166.404 83.5434 166.653 83.7743 166.826 84.0702C167.021 83.7527 167.273 83.5145 167.584 83.3557C167.901 83.1969 168.258 83.1176 168.655 83.1176C169.067 83.1176 169.438 83.2114 169.77 83.399C170.102 83.5867 170.362 83.8501 170.55 84.1893C170.738 84.5285 170.831 84.9146 170.831 85.3477V89.1367H169.413V85.6833C169.413 85.2935 169.309 84.9868 169.099 84.7631C168.897 84.5321 168.623 84.4167 168.277 84.4167C167.937 84.4167 167.663 84.5321 167.454 84.7631C167.244 84.994 167.14 85.3008 167.14 85.6833V89.1367H165.722V85.6833C165.722 85.2935 165.617 84.9868 165.408 84.7631C165.206 84.5321 164.931 84.4167 164.585 84.4167C164.246 84.4167 163.971 84.5321 163.762 84.7631C163.553 84.994 163.448 85.3008 163.448 85.6833V89.1367H162.03V83.2475ZM172.031 83.2475H173.363V83.9403C173.579 83.6805 173.846 83.4784 174.164 83.3341C174.489 83.1897 174.853 83.1176 175.257 83.1176C175.806 83.1176 176.307 83.2547 176.762 83.5289C177.217 83.796 177.574 84.1641 177.834 84.6332C178.094 85.1023 178.224 85.6219 178.224 86.1921C178.224 86.7623 178.094 87.2819 177.834 87.751C177.574 88.2201 177.217 88.5918 176.762 88.8661C176.315 89.1331 175.809 89.2666 175.246 89.2666C174.886 89.2666 174.55 89.2089 174.24 89.0934C173.929 88.9707 173.666 88.7975 173.449 88.5738V91.3019H172.031V83.2475ZM173.449 86.1921C173.449 86.5313 173.518 86.838 173.655 87.1123C173.799 87.3793 173.994 87.5886 174.24 87.7402C174.492 87.8917 174.774 87.9675 175.084 87.9675C175.568 87.9675 175.965 87.8015 176.275 87.4695C176.592 87.1303 176.751 86.7045 176.751 86.1921C176.751 85.8601 176.679 85.5606 176.535 85.2935C176.39 85.0193 176.192 84.8064 175.939 84.6548C175.687 84.496 175.402 84.4167 175.084 84.4167C174.774 84.4167 174.492 84.4924 174.24 84.644C173.994 84.7956 173.799 85.0085 173.655 85.2827C173.518 85.5498 173.449 85.8529 173.449 86.1921ZM181.091 89.2666C180.47 89.2666 179.976 89.1151 179.608 88.8119C179.247 88.5088 179.067 88.0974 179.067 87.5778C179.067 87.0798 179.236 86.6684 179.575 86.3437C179.915 86.0189 180.423 85.8024 181.102 85.6941L182.856 85.4126V85.2178C182.856 84.9579 182.755 84.745 182.553 84.579C182.358 84.413 182.098 84.33 181.773 84.33C181.47 84.33 181.199 84.413 180.961 84.579C180.73 84.7378 180.561 84.9507 180.452 85.2178L179.294 84.6548C179.467 84.1929 179.785 83.8212 180.247 83.5398C180.709 83.2583 181.235 83.1176 181.827 83.1176C182.304 83.1176 182.726 83.2078 183.094 83.3882C183.469 83.5614 183.758 83.8104 183.96 84.1352C184.169 84.4527 184.274 84.8136 184.274 85.2178V89.1367H182.931V88.5088C182.47 89.014 181.856 89.2666 181.091 89.2666ZM180.539 87.5237C180.539 87.7258 180.615 87.8881 180.766 88.0108C180.918 88.1263 181.113 88.184 181.351 88.184C181.791 88.184 182.152 88.0469 182.433 87.7727C182.715 87.4912 182.856 87.1448 182.856 86.7334V86.4952L181.373 86.7442C181.091 86.8019 180.882 86.8958 180.745 87.0257C180.608 87.1484 180.539 87.3144 180.539 87.5237ZM185.585 83.2475H187.003V89.1367H185.585V83.2475ZM185.476 81.6236C185.476 81.3638 185.549 81.1617 185.693 81.0173C185.837 80.873 186.036 80.8008 186.288 80.8008C186.548 80.8008 186.75 80.873 186.895 81.0173C187.039 81.1617 187.111 81.3638 187.111 81.6236C187.111 81.8762 187.039 82.0747 186.895 82.219C186.757 82.3634 186.555 82.4355 186.288 82.4355C186.036 82.4355 185.837 82.3634 185.693 82.219C185.549 82.0747 185.476 81.8762 185.476 81.6236ZM191.17 91.5184C190.506 91.5184 189.922 91.3596 189.416 91.0421C188.919 90.7317 188.576 90.3167 188.388 89.7971L189.709 89.2991C189.795 89.5806 189.969 89.8043 190.228 89.9703C190.488 90.1363 190.802 90.2193 191.17 90.2193C191.603 90.2193 191.953 90.0966 192.22 89.8512C192.495 89.6058 192.632 89.2702 192.632 88.8444V88.2057C192.213 88.6676 191.647 88.8986 190.932 88.8986C190.391 88.8986 189.9 88.7722 189.46 88.5196C189.027 88.267 188.688 87.9206 188.442 87.4804C188.197 87.0401 188.074 86.5457 188.074 85.9972C188.074 85.4487 188.193 84.9579 188.431 84.5249C188.677 84.0847 189.016 83.7418 189.449 83.4965C189.882 83.2439 190.366 83.1176 190.9 83.1176C191.657 83.1176 192.26 83.3846 192.708 83.9187V83.2475H194.05V88.8444C194.05 89.3568 193.927 89.8151 193.682 90.2193C193.436 90.6307 193.094 90.9482 192.653 91.172C192.22 91.4029 191.726 91.5184 191.17 91.5184ZM189.546 86.0081C189.546 86.4627 189.691 86.8416 189.979 87.1448C190.275 87.4407 190.651 87.5886 191.105 87.5886C191.553 87.5886 191.917 87.4407 192.199 87.1448C192.487 86.8489 192.632 86.47 192.632 86.0081C192.632 85.5461 192.487 85.1672 192.199 84.8713C191.91 84.5682 191.546 84.4167 191.105 84.4167C190.658 84.4167 190.286 84.5682 189.99 84.8713C189.694 85.1745 189.546 85.5534 189.546 86.0081ZM195.374 83.2475H196.706V83.9728C196.858 83.6985 197.078 83.4892 197.366 83.3449C197.662 83.1933 197.998 83.1176 198.373 83.1176C198.799 83.1176 199.182 83.2114 199.521 83.399C199.86 83.5867 200.123 83.8501 200.311 84.1893C200.499 84.5285 200.592 84.9146 200.592 85.3477V89.1367H199.174V85.6833C199.174 85.3008 199.062 84.994 198.839 84.7631C198.622 84.5321 198.337 84.4167 197.983 84.4167C197.63 84.4167 197.341 84.5321 197.117 84.7631C196.901 84.994 196.793 85.3008 196.793 85.6833V89.1367H195.374V83.2475Z" fill="white"/>
<path d="M73.391 105.84C72.7342 105.84 72.1406 105.686 71.6102 105.376C71.086 105.06 70.6755 104.628 70.3787 104.078C70.0819 103.523 69.9335 102.897 69.9335 102.203C69.9335 101.508 70.0819 100.883 70.3787 100.327C70.6755 99.7715 71.086 99.3389 71.6102 99.0294C72.1406 98.7137 72.7342 98.5558 73.391 98.5558C73.8583 98.5558 74.2877 98.6411 74.6793 98.8116C75.0708 98.9758 75.4024 99.1936 75.6739 99.4652C75.9454 99.7367 76.1412 100.03 76.2612 100.346L75.4087 100.734C75.2382 100.33 74.9761 100.011 74.6224 99.7778C74.2751 99.5378 73.8646 99.4178 73.391 99.4178C72.8984 99.4178 72.4595 99.5346 72.0743 99.7683C71.6954 100.002 71.3986 100.33 71.1839 100.753C70.9692 101.177 70.8618 101.66 70.8618 102.203C70.8618 102.746 70.9692 103.229 71.1839 103.652C71.3986 104.069 71.6954 104.394 72.0743 104.628C72.4595 104.861 72.8984 104.978 73.391 104.978C73.8646 104.978 74.2751 104.861 74.6224 104.628C74.9761 104.388 75.2382 104.066 75.4087 103.662L76.2612 104.05C76.1412 104.372 75.9454 104.669 75.6739 104.94C75.4024 105.212 75.0708 105.43 74.6793 105.594C74.2877 105.758 73.8583 105.84 73.391 105.84ZM79.7522 105.84C79.2659 105.84 78.8207 105.727 78.4165 105.499C78.0187 105.266 77.7029 104.947 77.4693 104.542C77.2356 104.132 77.1188 103.674 77.1188 103.169C77.1188 102.67 77.2324 102.219 77.4598 101.814C77.6934 101.404 78.0092 101.085 78.407 100.858C78.8112 100.624 79.2596 100.507 79.7522 100.507C80.2384 100.507 80.6805 100.624 81.0783 100.858C81.4825 101.085 81.7982 101.401 82.0256 101.805C82.2592 102.209 82.3761 102.664 82.3761 103.169C82.3761 103.68 82.2592 104.138 82.0256 104.542C81.7919 104.947 81.473 105.266 81.0688 105.499C80.671 105.727 80.2321 105.84 79.7522 105.84ZM78.0471 103.169C78.0471 103.51 78.1197 103.819 78.265 104.097C78.4165 104.375 78.6218 104.593 78.8807 104.751C79.1459 104.909 79.4364 104.988 79.7522 104.988C80.0616 104.988 80.3458 104.909 80.6047 104.751C80.8636 104.593 81.0657 104.375 81.2109 104.097C81.3625 103.819 81.4383 103.51 81.4383 103.169C81.4383 102.828 81.3625 102.522 81.2109 102.25C81.0657 101.972 80.8636 101.754 80.6047 101.597C80.3458 101.439 80.0616 101.36 79.7522 101.36C79.4364 101.36 79.1459 101.439 78.8807 101.597C78.6218 101.754 78.4165 101.972 78.265 102.25C78.1197 102.522 78.0471 102.828 78.0471 103.169ZM83.5251 100.621H84.3871V101.255C84.5323 101.016 84.7281 100.832 84.9744 100.706C85.227 100.573 85.5048 100.507 85.808 100.507C86.1553 100.507 86.471 100.592 86.7552 100.763C87.0457 100.927 87.2667 101.151 87.4183 101.435C87.5825 101.139 87.8035 100.911 88.0814 100.753C88.3656 100.589 88.6782 100.507 89.0192 100.507C89.3665 100.507 89.6854 100.592 89.9759 100.763C90.2664 100.927 90.4969 101.154 90.6674 101.445C90.8379 101.735 90.9232 102.061 90.9232 102.421V105.727H90.0327V102.705C90.0327 102.288 89.9222 101.96 89.7012 101.72C89.4865 101.48 89.2055 101.36 88.8581 101.36C88.5045 101.36 88.2172 101.483 87.9961 101.729C87.7751 101.969 87.6646 102.294 87.6646 102.705V105.727H86.7742V102.705C86.7742 102.288 86.6668 101.96 86.4521 101.72C86.2374 101.48 85.9532 101.36 85.5996 101.36C85.2522 101.36 84.9649 101.483 84.7376 101.729C84.5165 101.969 84.406 102.294 84.406 102.705V105.727H83.5251V100.621ZM92.1744 100.621H93.0364V101.331C93.2385 101.072 93.4911 100.87 93.7942 100.725C94.1036 100.58 94.4478 100.507 94.8267 100.507C95.3003 100.507 95.7297 100.624 96.115 100.858C96.5002 101.091 96.8033 101.413 97.0243 101.824C97.2454 102.228 97.3559 102.68 97.3559 103.178C97.3559 103.677 97.2454 104.129 97.0243 104.533C96.8033 104.937 96.5002 105.256 96.115 105.49C95.7297 105.723 95.2972 105.84 94.8172 105.84C94.4509 105.84 94.1131 105.771 93.8037 105.632C93.5005 105.487 93.2511 105.281 93.0553 105.016V107.621H92.1744V100.621ZM93.0553 103.178C93.0553 103.519 93.1279 103.829 93.2732 104.107C93.4247 104.378 93.63 104.593 93.8889 104.751C94.1478 104.909 94.4352 104.988 94.7509 104.988C95.0667 104.988 95.3508 104.909 95.6034 104.751C95.8624 104.593 96.0613 104.378 96.2002 104.107C96.3455 103.829 96.4181 103.519 96.4181 103.178C96.4181 102.837 96.3455 102.528 96.2002 102.25C96.055 101.972 95.8561 101.754 95.6034 101.597C95.3508 101.439 95.0667 101.36 94.7509 101.36C94.4352 101.36 94.1478 101.439 93.8889 101.597C93.63 101.754 93.4247 101.972 93.2732 102.25C93.1279 102.528 93.0553 102.837 93.0553 103.178ZM98.511 98.5558H99.392V105.727H98.511V98.5558ZM103.108 105.84C102.628 105.84 102.192 105.723 101.801 105.49C101.409 105.256 101.103 104.937 100.882 104.533C100.661 104.123 100.551 103.665 100.551 103.159C100.551 102.654 100.658 102.2 100.873 101.795C101.094 101.391 101.39 101.076 101.763 100.848C102.142 100.621 102.565 100.507 103.032 100.507C103.519 100.507 103.942 100.621 104.302 100.848C104.668 101.076 104.946 101.379 105.135 101.758C105.331 102.13 105.429 102.531 105.429 102.961C105.429 103.106 105.413 103.264 105.382 103.434H101.479C101.491 103.756 101.574 104.037 101.725 104.277C101.877 104.517 102.072 104.704 102.312 104.836C102.559 104.969 102.827 105.035 103.118 105.035C103.736 105.035 104.213 104.754 104.548 104.192L105.287 104.571C105.123 104.937 104.845 105.24 104.453 105.48C104.062 105.72 103.613 105.84 103.108 105.84ZM104.472 102.676C104.46 102.279 104.314 101.95 104.036 101.691C103.765 101.426 103.43 101.293 103.032 101.293C102.641 101.293 102.303 101.42 102.019 101.672C101.735 101.919 101.561 102.253 101.498 102.676H104.472ZM108.652 105.783C108.153 105.783 107.768 105.644 107.496 105.367C107.231 105.082 107.099 104.678 107.099 104.154V101.464H106.17V100.621H106.36C106.587 100.621 106.767 100.555 106.9 100.422C107.032 100.283 107.099 100.097 107.099 99.863V99.4462H107.979V100.621H109.126V101.464H107.979V104.126C107.979 104.694 108.264 104.978 108.832 104.978C108.952 104.978 109.069 104.969 109.183 104.95V105.736C109.05 105.768 108.873 105.783 108.652 105.783ZM112.544 105.84C112.064 105.84 111.628 105.723 111.237 105.49C110.845 105.256 110.539 104.937 110.318 104.533C110.097 104.123 109.986 103.665 109.986 103.159C109.986 102.654 110.093 102.2 110.308 101.795C110.529 101.391 110.826 101.076 111.199 100.848C111.578 100.621 112.001 100.507 112.468 100.507C112.954 100.507 113.377 100.621 113.737 100.848C114.104 101.076 114.381 101.379 114.571 101.758C114.767 102.13 114.865 102.531 114.865 102.961C114.865 103.106 114.849 103.264 114.817 103.434H110.914C110.927 103.756 111.009 104.037 111.161 104.277C111.312 104.517 111.508 104.704 111.748 104.836C111.994 104.969 112.263 105.035 112.553 105.035C113.172 105.035 113.649 104.754 113.984 104.192L114.722 104.571C114.558 104.937 114.28 105.24 113.889 105.48C113.497 105.72 113.049 105.84 112.544 105.84ZM113.908 102.676C113.895 102.279 113.75 101.95 113.472 101.691C113.2 101.426 112.866 101.293 112.468 101.293C112.076 101.293 111.739 101.42 111.454 101.672C111.17 101.919 110.997 102.253 110.933 102.676H113.908ZM118.334 105.84C117.86 105.84 117.431 105.723 117.046 105.49C116.66 105.256 116.357 104.937 116.136 104.533C115.915 104.129 115.805 103.677 115.805 103.178C115.805 102.68 115.915 102.228 116.136 101.824C116.357 101.413 116.66 101.091 117.046 100.858C117.431 100.624 117.86 100.507 118.334 100.507C118.707 100.507 119.041 100.577 119.338 100.716C119.641 100.854 119.894 101.05 120.096 101.303V98.5558H120.986V105.727H120.124V104.978C119.935 105.25 119.682 105.461 119.366 105.613C119.057 105.764 118.713 105.84 118.334 105.84ZM116.733 103.178C116.733 103.519 116.806 103.829 116.951 104.107C117.096 104.378 117.295 104.593 117.548 104.751C117.807 104.909 118.094 104.988 118.41 104.988C118.725 104.988 119.01 104.909 119.262 104.751C119.521 104.593 119.723 104.378 119.868 104.107C120.02 103.829 120.096 103.519 120.096 103.178C120.096 102.837 120.02 102.528 119.868 102.25C119.723 101.972 119.521 101.754 119.262 101.597C119.01 101.439 118.725 101.36 118.41 101.36C118.094 101.36 117.807 101.439 117.548 101.597C117.295 101.754 117.096 101.972 116.951 102.25C116.806 102.528 116.733 102.837 116.733 103.178Z" fill="#68686A"/>
<circle cx="43.3013" cy="92.02" r="16.2388" fill="#E5BCE6"/>
<path d="M43.3013 98.7823C47.0381 98.7823 50.0675 95.753 50.0675 92.0161C50.0675 88.2793 47.0381 85.25 43.3013 85.25C39.5645 85.25 36.5352 88.2793 36.5352 92.0161C36.5352 95.753 39.5645 98.7823 43.3013 98.7823Z" stroke="#151617" stroke-width="0.676615"/>
<path d="M40.5938 92.0173L42.6236 94.0471L46.0067 90.6641" stroke="#151617" stroke-width="0.676615" stroke-miterlimit="10"/>
<path d="M70.0609 130.017H75.4197V131.316H71.5332V133.384H75.2032V134.683H71.5332V136.783H75.4197V138.082H70.0609V130.017ZM75.839 132.193H77.3871L78.7836 136.036L80.1801 132.193H81.7282L79.4115 138.082H78.1557L75.839 132.193ZM84.0869 138.212C83.4662 138.212 82.9718 138.06 82.6038 137.757C82.2429 137.454 82.0625 137.043 82.0625 136.523C82.0625 136.025 82.2321 135.614 82.5713 135.289C82.9105 134.964 83.4193 134.748 84.0977 134.639L85.8515 134.358V134.163C85.8515 133.903 85.7505 133.69 85.5484 133.524C85.3535 133.358 85.0937 133.275 84.7689 133.275C84.4658 133.275 84.1952 133.358 83.957 133.524C83.726 133.683 83.5564 133.896 83.4482 134.163L82.2898 133.6C82.463 133.138 82.7806 132.767 83.2425 132.485C83.7044 132.204 84.2312 132.063 84.8231 132.063C85.2994 132.063 85.7216 132.153 86.0897 132.334C86.465 132.507 86.7537 132.756 86.9558 133.08C87.1651 133.398 87.2697 133.759 87.2697 134.163V138.082H85.9273V137.454C85.4654 137.959 84.8519 138.212 84.0869 138.212ZM83.5348 136.469C83.5348 136.671 83.6106 136.833 83.7621 136.956C83.9137 137.072 84.1086 137.129 84.3467 137.129C84.787 137.129 85.1478 136.992 85.4293 136.718C85.7108 136.437 85.8515 136.09 85.8515 135.679V135.441L84.3684 135.69C84.0869 135.747 83.8776 135.841 83.7405 135.971C83.6034 136.094 83.5348 136.26 83.5348 136.469ZM88.5805 129.887H89.9987V138.082H88.5805V129.887ZM93.4083 138.212C92.7226 138.212 92.1814 137.992 91.7844 137.552C91.3875 137.111 91.189 136.527 91.189 135.798V132.193H92.6072V135.679C92.6072 136.047 92.7154 136.346 92.9319 136.577C93.1557 136.801 93.4444 136.913 93.798 136.913C94.1517 136.913 94.4367 136.797 94.6533 136.566C94.877 136.335 94.9889 136.029 94.9889 135.646V132.193H96.407V138.082H95.0646V137.378C94.9059 137.653 94.6821 137.862 94.3934 138.006C94.112 138.143 93.7836 138.212 93.4083 138.212ZM99.5116 138.212C98.8909 138.212 98.3965 138.06 98.0285 137.757C97.6676 137.454 97.4872 137.043 97.4872 136.523C97.4872 136.025 97.6568 135.614 97.996 135.289C98.3352 134.964 98.844 134.748 99.5224 134.639L101.276 134.358V134.163C101.276 133.903 101.175 133.69 100.973 133.524C100.778 133.358 100.518 133.275 100.194 133.275C99.8905 133.275 99.6199 133.358 99.3817 133.524C99.1507 133.683 98.9811 133.896 98.8729 134.163L97.7145 133.6C97.8877 133.138 98.2053 132.767 98.6672 132.485C99.1291 132.204 99.6559 132.063 100.248 132.063C100.724 132.063 101.146 132.153 101.514 132.334C101.89 132.507 102.178 132.756 102.38 133.08C102.59 133.398 102.694 133.759 102.694 134.163V138.082H101.352V137.454C100.89 137.959 100.277 138.212 99.5116 138.212ZM98.9595 136.469C98.9595 136.671 99.0353 136.833 99.1868 136.956C99.3384 137.072 99.5333 137.129 99.7714 137.129C100.212 137.129 100.573 136.992 100.854 136.718C101.135 136.437 101.276 136.09 101.276 135.679V135.441L99.7931 135.69C99.5116 135.747 99.3023 135.841 99.1652 135.971C99.0281 136.094 98.9595 136.26 98.9595 136.469ZM106.584 138.147C105.92 138.147 105.404 137.967 105.036 137.606C104.675 137.238 104.495 136.722 104.495 136.058V133.459H103.477V132.193H103.586C103.874 132.193 104.098 132.117 104.257 131.965C104.415 131.814 104.495 131.594 104.495 131.305V130.85H105.913V132.193H107.266V133.459H105.913V135.982C105.913 136.595 106.245 136.902 106.909 136.902C107.025 136.902 107.151 136.891 107.288 136.87V138.093C107.057 138.129 106.822 138.147 106.584 138.147ZM111.112 138.212C110.52 138.212 109.993 138.075 109.531 137.801C109.076 137.526 108.719 137.155 108.459 136.685C108.207 136.216 108.08 135.697 108.08 135.127C108.08 134.549 108.207 134.03 108.459 133.568C108.719 133.099 109.069 132.73 109.509 132.463C109.957 132.196 110.455 132.063 111.003 132.063C111.595 132.063 112.108 132.193 112.541 132.453C112.974 132.705 113.302 133.052 113.526 133.492C113.757 133.932 113.872 134.416 113.872 134.943C113.872 135.188 113.847 135.386 113.796 135.538H109.553C109.596 135.971 109.762 136.317 110.051 136.577C110.339 136.837 110.697 136.967 111.122 136.967C111.44 136.967 111.711 136.902 111.934 136.772C112.165 136.635 112.349 136.447 112.487 136.209L113.634 136.772C113.454 137.205 113.136 137.555 112.681 137.822C112.227 138.082 111.703 138.212 111.112 138.212ZM112.357 134.455C112.321 134.095 112.18 133.802 111.934 133.578C111.689 133.348 111.379 133.232 111.003 133.232C110.643 133.232 110.336 133.34 110.083 133.557C109.831 133.766 109.665 134.066 109.585 134.455H112.357ZM119.751 138.212C119.181 138.212 118.658 138.078 118.181 137.811C117.705 137.544 117.326 137.176 117.045 136.707C116.77 136.238 116.633 135.715 116.633 135.137C116.633 134.56 116.77 134.037 117.045 133.568C117.319 133.099 117.694 132.73 118.171 132.463C118.647 132.196 119.174 132.063 119.751 132.063C120.321 132.063 120.841 132.196 121.31 132.463C121.786 132.73 122.162 133.099 122.436 133.568C122.717 134.037 122.858 134.56 122.858 135.137C122.858 135.722 122.717 136.249 122.436 136.718C122.162 137.187 121.786 137.555 121.31 137.822C120.834 138.082 120.314 138.212 119.751 138.212ZM118.106 135.137C118.106 135.65 118.257 136.076 118.56 136.415C118.871 136.747 119.268 136.913 119.751 136.913C120.061 136.913 120.339 136.837 120.585 136.685C120.83 136.534 121.021 136.325 121.158 136.058C121.303 135.783 121.375 135.477 121.375 135.137C121.375 134.805 121.303 134.506 121.158 134.239C121.021 133.965 120.83 133.752 120.585 133.6C120.339 133.441 120.061 133.362 119.751 133.362C119.434 133.362 119.148 133.441 118.896 133.6C118.65 133.752 118.456 133.961 118.311 134.228C118.174 134.495 118.106 134.798 118.106 135.137ZM123.934 132.193H125.265V132.918C125.417 132.644 125.637 132.435 125.926 132.29C126.221 132.139 126.557 132.063 126.932 132.063C127.358 132.063 127.741 132.157 128.08 132.344C128.419 132.532 128.683 132.795 128.87 133.135C129.058 133.474 129.152 133.86 129.152 134.293V138.082H127.733V134.629C127.733 134.246 127.622 133.939 127.398 133.708C127.181 133.477 126.896 133.362 126.543 133.362C126.189 133.362 125.9 133.477 125.677 133.708C125.46 133.939 125.352 134.246 125.352 134.629V138.082H123.934L123.934 132.193ZM135.49 138.212C135.108 138.212 134.75 138.143 134.418 138.006C134.094 137.869 133.823 137.674 133.607 137.422V138.082H132.275V129.887H133.693V132.788C133.902 132.557 134.162 132.38 134.473 132.258C134.783 132.128 135.126 132.063 135.501 132.063C136.05 132.063 136.551 132.2 137.006 132.474C137.461 132.741 137.818 133.109 138.078 133.578C138.337 134.048 138.467 134.567 138.467 135.137C138.467 135.708 138.337 136.227 138.078 136.696C137.818 137.165 137.461 137.537 137.006 137.811C136.558 138.078 136.053 138.212 135.49 138.212ZM133.693 135.137C133.693 135.477 133.762 135.783 133.899 136.058C134.043 136.325 134.238 136.534 134.483 136.685C134.736 136.837 135.018 136.913 135.328 136.913C135.811 136.913 136.208 136.747 136.519 136.415C136.836 136.076 136.995 135.65 136.995 135.137C136.995 134.805 136.923 134.506 136.779 134.239C136.634 133.965 136.436 133.752 136.183 133.6C135.931 133.441 135.645 133.362 135.328 133.362C135.018 133.362 134.736 133.438 134.483 133.589C134.238 133.741 134.043 133.954 133.899 134.228C133.762 134.495 133.693 134.798 133.693 135.137ZM141.649 138.212C140.963 138.212 140.422 137.992 140.025 137.552C139.628 137.111 139.43 136.527 139.43 135.798V132.193H140.848V135.679C140.848 136.047 140.956 136.346 141.172 136.577C141.396 136.801 141.685 136.913 142.039 136.913C142.392 136.913 142.677 136.797 142.894 136.566C143.118 136.335 143.229 136.029 143.229 135.646V132.193H144.648V138.082H143.305V137.378C143.146 137.653 142.923 137.862 142.634 138.006C142.352 138.143 142.024 138.212 141.649 138.212ZM148.705 138.212C148.142 138.212 147.633 138.078 147.178 137.811C146.731 137.537 146.377 137.165 146.117 136.696C145.858 136.227 145.728 135.708 145.728 135.137C145.728 134.567 145.858 134.048 146.117 133.578C146.377 133.109 146.734 132.741 147.189 132.474C147.644 132.2 148.145 132.063 148.694 132.063C149.069 132.063 149.412 132.128 149.722 132.258C150.033 132.38 150.293 132.557 150.502 132.788V129.887H151.92V138.082H150.578V137.432C150.361 137.685 150.091 137.88 149.766 138.017C149.441 138.147 149.087 138.212 148.705 138.212ZM147.2 135.137C147.2 135.477 147.269 135.783 147.406 136.058C147.55 136.325 147.749 136.534 148.001 136.685C148.254 136.837 148.539 136.913 148.856 136.913C149.174 136.913 149.455 136.837 149.701 136.685C149.953 136.534 150.148 136.325 150.285 136.058C150.43 135.783 150.502 135.477 150.502 135.137C150.502 134.798 150.43 134.495 150.285 134.228C150.148 133.954 149.953 133.741 149.701 133.589C149.448 133.438 149.167 133.362 148.856 133.362C148.539 133.362 148.254 133.441 148.001 133.6C147.749 133.752 147.55 133.965 147.406 134.239C147.269 134.506 147.2 134.805 147.2 135.137ZM156.097 140.464C155.433 140.464 154.849 140.305 154.344 139.987C153.846 139.677 153.503 139.262 153.315 138.742L154.636 138.244C154.723 138.526 154.896 138.75 155.156 138.916C155.415 139.082 155.729 139.165 156.097 139.165C156.531 139.165 156.881 139.042 157.148 138.797C157.422 138.551 157.559 138.216 157.559 137.79V137.151C157.14 137.613 156.574 137.844 155.859 137.844C155.318 137.844 154.827 137.718 154.387 137.465C153.954 137.212 153.615 136.866 153.369 136.426C153.124 135.985 153.001 135.491 153.001 134.943C153.001 134.394 153.12 133.903 153.359 133.47C153.604 133.03 153.943 132.687 154.376 132.442C154.809 132.189 155.293 132.063 155.827 132.063C156.585 132.063 157.187 132.33 157.635 132.864V132.193H158.977V137.79C158.977 138.302 158.854 138.76 158.609 139.165C158.364 139.576 158.021 139.894 157.581 140.117C157.148 140.348 156.653 140.464 156.097 140.464ZM154.474 134.953C154.474 135.408 154.618 135.787 154.907 136.09C155.203 136.386 155.578 136.534 156.033 136.534C156.48 136.534 156.844 136.386 157.126 136.09C157.415 135.794 157.559 135.415 157.559 134.953C157.559 134.491 157.415 134.113 157.126 133.817C156.837 133.514 156.473 133.362 156.033 133.362C155.585 133.362 155.213 133.514 154.917 133.817C154.622 134.12 154.474 134.499 154.474 134.953ZM163.095 138.212C162.503 138.212 161.976 138.075 161.514 137.801C161.059 137.526 160.702 137.155 160.442 136.685C160.19 136.216 160.063 135.697 160.063 135.127C160.063 134.549 160.19 134.03 160.442 133.568C160.702 133.099 161.052 132.73 161.492 132.463C161.94 132.196 162.438 132.063 162.986 132.063C163.578 132.063 164.091 132.193 164.524 132.453C164.957 132.705 165.285 133.052 165.509 133.492C165.74 133.932 165.855 134.416 165.855 134.943C165.855 135.188 165.83 135.386 165.779 135.538H161.536C161.579 135.971 161.745 136.317 162.034 136.577C162.322 136.837 162.68 136.967 163.106 136.967C163.423 136.967 163.694 136.902 163.917 136.772C164.148 136.635 164.332 136.447 164.47 136.209L165.617 136.772C165.437 137.205 165.119 137.555 164.664 137.822C164.21 138.082 163.687 138.212 163.095 138.212ZM164.34 134.455C164.304 134.095 164.163 133.802 163.917 133.578C163.672 133.348 163.362 133.232 162.986 133.232C162.626 133.232 162.319 133.34 162.066 133.557C161.814 133.766 161.648 134.066 161.568 134.455H164.34ZM169.615 138.147C168.951 138.147 168.435 137.967 168.067 137.606C167.706 137.238 167.526 136.722 167.526 136.058V133.459H166.508V132.193H166.616C166.905 132.193 167.129 132.117 167.288 131.965C167.446 131.814 167.526 131.594 167.526 131.305V130.85H168.944V132.193H170.297V133.459H168.944V135.982C168.944 136.595 169.276 136.902 169.94 136.902C170.055 136.902 170.182 136.891 170.319 136.87V138.093C170.088 138.129 169.853 138.147 169.615 138.147Z" fill="white"/>
<path d="M69.8245 147.615H72.3158C72.7831 147.615 73.1936 147.703 73.5472 147.88C73.9072 148.057 74.1851 148.309 74.3808 148.638C74.5766 148.966 74.6745 149.351 74.6745 149.793C74.6745 150.236 74.5766 150.621 74.3808 150.949C74.1851 151.278 73.9072 151.53 73.5472 151.707C73.1936 151.884 72.7831 151.972 72.3158 151.972H70.7528V154.672H69.8245V147.615ZM72.3442 151.12C72.7673 151.12 73.1052 151 73.3578 150.76C73.6104 150.52 73.7367 150.198 73.7367 149.793C73.7367 149.389 73.6104 149.067 73.3578 148.827C73.1052 148.587 72.7673 148.467 72.3442 148.467H70.7528V151.12H72.3442ZM75.8257 147.501H76.7067V154.672H75.8257V147.501ZM79.5703 154.786C79.0651 154.786 78.6546 154.653 78.3388 154.388C78.0231 154.116 77.8652 153.766 77.8652 153.336C77.8652 152.919 78.001 152.572 78.2725 152.294C78.5504 152.01 78.9703 151.821 79.5324 151.726L81.2753 151.442V151.205C81.2753 150.927 81.1711 150.703 80.9627 150.532C80.7543 150.356 80.486 150.267 80.1576 150.267C79.8671 150.267 79.6082 150.343 79.3808 150.494C79.1598 150.64 78.9956 150.835 78.8882 151.082L78.121 150.684C78.2662 150.33 78.5314 150.037 78.9167 149.803C79.3019 149.569 79.7218 149.452 80.1765 149.452C80.5617 149.452 80.9028 149.528 81.1996 149.68C81.5027 149.825 81.7363 150.03 81.9005 150.296C82.071 150.561 82.1563 150.864 82.1563 151.205V154.672H81.2943V154.009C81.1111 154.249 80.868 154.438 80.5649 154.577C80.2681 154.716 79.9365 154.786 79.5703 154.786ZM78.7935 153.308C78.7935 153.516 78.8756 153.69 79.0398 153.829C79.2103 153.968 79.4219 154.037 79.6745 154.037C79.9839 154.037 80.2586 153.971 80.4986 153.838C80.7449 153.699 80.9343 153.513 81.0669 153.279C81.2059 153.046 81.2753 152.787 81.2753 152.503V152.181L79.7313 152.436C79.1061 152.544 78.7935 152.834 78.7935 153.308ZM83.5222 149.566H84.3842V150.191C84.5358 149.951 84.7378 149.768 84.9905 149.642C85.2431 149.516 85.5272 149.452 85.843 149.452C86.2029 149.452 86.5282 149.538 86.8187 149.708C87.1092 149.872 87.3365 150.1 87.5007 150.39C87.6712 150.681 87.7565 151.006 87.7565 151.366V154.672H86.866V151.65C86.866 151.233 86.7524 150.905 86.525 150.665C86.304 150.425 86.0103 150.305 85.6441 150.305C85.2778 150.305 84.9778 150.428 84.7442 150.674C84.5168 150.914 84.4032 151.24 84.4032 151.65V154.672H83.5222V149.566ZM89.017 149.566H89.8791V150.191C90.0306 149.951 90.2327 149.768 90.4853 149.642C90.7379 149.516 91.0221 149.452 91.3378 149.452C91.6978 149.452 92.023 149.538 92.3135 149.708C92.604 149.872 92.8314 150.1 92.9955 150.39C93.1661 150.681 93.2513 151.006 93.2513 151.366V154.672H92.3609V151.65C92.3609 151.233 92.2472 150.905 92.0199 150.665C91.7988 150.425 91.5052 150.305 91.1389 150.305C90.7726 150.305 90.4727 150.428 90.239 150.674C90.0117 150.914 89.898 151.24 89.898 151.65V154.672H89.017V149.566ZM96.8611 154.786C96.3812 154.786 95.9454 154.669 95.5539 154.435C95.1624 154.201 94.8561 153.882 94.635 153.478C94.414 153.068 94.3035 152.61 94.3035 152.105C94.3035 151.6 94.4109 151.145 94.6256 150.741C94.8466 150.337 95.1434 150.021 95.516 149.793C95.8949 149.566 96.318 149.452 96.7853 149.452C97.2716 149.452 97.6947 149.566 98.0547 149.793C98.4209 150.021 98.6988 150.324 98.8882 150.703C99.084 151.075 99.1819 151.476 99.1819 151.906C99.1819 152.051 99.1661 152.209 99.1345 152.38H95.2318C95.2444 152.702 95.3265 152.983 95.4781 153.223C95.6297 153.463 95.8254 153.649 96.0654 153.781C96.3117 153.914 96.5801 153.98 96.8706 153.98C97.4895 153.98 97.9662 153.699 98.3009 153.137L99.0398 153.516C98.8756 153.882 98.5978 154.186 98.2062 154.426C97.8147 154.666 97.3663 154.786 96.8611 154.786ZM98.2252 151.622C98.2125 151.224 98.0673 150.895 97.7894 150.637C97.5179 150.371 97.1832 150.239 96.7853 150.239C96.3938 150.239 96.0559 150.365 95.7718 150.618C95.4876 150.864 95.3139 151.199 95.2508 151.622H98.2252ZM102.651 154.786C102.178 154.786 101.748 154.669 101.363 154.435C100.978 154.201 100.675 153.882 100.454 153.478C100.233 153.074 100.122 152.623 100.122 152.124C100.122 151.625 100.233 151.173 100.454 150.769C100.675 150.359 100.978 150.037 101.363 149.803C101.748 149.569 102.178 149.452 102.651 149.452C103.024 149.452 103.359 149.522 103.655 149.661C103.959 149.8 104.211 149.996 104.413 150.248V147.501H105.304V154.672H104.442V153.924C104.252 154.195 104 154.407 103.684 154.558C103.374 154.71 103.03 154.786 102.651 154.786ZM101.05 152.124C101.05 152.465 101.123 152.774 101.268 153.052C101.414 153.324 101.612 153.538 101.865 153.696C102.124 153.854 102.411 153.933 102.727 153.933C103.043 153.933 103.327 153.854 103.58 153.696C103.839 153.538 104.041 153.324 104.186 153.052C104.337 152.774 104.413 152.465 104.413 152.124C104.413 151.783 104.337 151.473 104.186 151.195C104.041 150.918 103.839 150.7 103.58 150.542C103.327 150.384 103.043 150.305 102.727 150.305C102.411 150.305 102.124 150.384 101.865 150.542C101.612 150.7 101.414 150.918 101.268 151.195C101.123 151.473 101.05 151.783 101.05 152.124Z" fill="#68686A"/>
<circle cx="43.3013" cy="140.965" r="16.2388" fill="#1D2124"/>
<path d="M43.3013 136.906V141.304L41.2715 143.672" stroke="white" stroke-width="0.676615"/>
<path d="M36.6367 142.141C36.7729 142.918 37.0455 143.664 37.4419 144.346" stroke="white" stroke-width="0.676615"/>
<path d="M37.4419 137.582C37.0455 138.264 36.7729 139.011 36.6367 139.788" stroke="white" stroke-width="0.676615"/>
<path d="M40.9869 134.605C40.2469 134.877 39.5599 135.275 38.957 135.783" stroke="white" stroke-width="0.676615"/>
<path d="M38.9512 146.148C39.7844 146.847 40.7738 147.336 41.8357 147.571C42.8976 147.807 44.0007 147.783 45.0513 147.501C46.102 147.22 47.0693 146.689 47.8714 145.954C48.6734 145.22 49.2864 144.302 49.6586 143.28C50.0307 142.258 50.1509 141.161 50.0091 140.083C49.8673 139.005 49.4675 137.976 48.8438 137.085C48.22 136.194 47.3906 135.467 46.4259 134.964C45.4611 134.462 44.3895 134.199 43.3018 134.199" stroke="white" stroke-width="0.676615"/>
<path d="M72.6709 187.157C72.0357 187.157 71.4836 187.038 71.0145 186.8C70.5526 186.562 70.1917 186.262 69.9319 185.901C69.6721 185.533 69.5061 185.151 69.4339 184.754L70.8196 184.386C70.9279 184.826 71.1444 185.169 71.4692 185.414C71.794 185.66 72.2017 185.782 72.6925 185.782C73.0678 185.782 73.3709 185.689 73.6019 185.501C73.84 185.313 73.9591 185.09 73.9591 184.83C73.9591 184.592 73.8725 184.386 73.6993 184.213C73.5333 184.032 73.306 183.913 73.0173 183.855L71.8048 183.617C71.1625 183.495 70.6572 183.217 70.2892 182.784C69.9211 182.351 69.737 181.824 69.737 181.203C69.737 180.77 69.8597 180.373 70.1051 180.012C70.3577 179.644 70.6897 179.355 71.1011 179.146C71.5197 178.937 71.9636 178.832 72.4327 178.832C73.0317 178.832 73.5405 178.933 73.9591 179.135C74.3777 179.337 74.7025 179.594 74.9335 179.904C75.1716 180.207 75.3304 180.528 75.4098 180.867L74.0349 181.3C73.8833 180.911 73.6777 180.633 73.4178 180.467C73.158 180.294 72.8296 180.207 72.4327 180.207C72.2089 180.207 72.0069 180.254 71.8264 180.348C71.6532 180.442 71.5161 180.564 71.4151 180.716C71.3212 180.86 71.2743 181.008 71.2743 181.16C71.2743 181.398 71.3537 181.607 71.5125 181.788C71.6713 181.961 71.8914 182.073 72.1729 182.123L73.3204 182.372C74.0205 182.524 74.5618 182.812 74.9443 183.238C75.3268 183.657 75.518 184.158 75.518 184.743C75.518 185.162 75.4026 185.555 75.1716 185.923C74.9407 186.291 74.6087 186.591 74.1756 186.822C73.7498 187.045 73.2482 187.157 72.6709 187.157ZM79.4745 187.157C78.8827 187.157 78.3558 187.02 77.8939 186.746C77.4392 186.472 77.082 186.1 76.8221 185.631C76.5695 185.162 76.4432 184.642 76.4432 184.072C76.4432 183.495 76.5695 182.975 76.8221 182.513C77.082 182.044 77.432 181.676 77.8722 181.409C78.3197 181.142 78.8177 181.008 79.3662 181.008C79.958 181.008 80.4704 181.138 80.9035 181.398C81.3365 181.651 81.6649 181.997 81.8886 182.437C82.1196 182.877 82.2351 183.361 82.2351 183.888C82.2351 184.133 82.2098 184.332 82.1593 184.483H77.9155C77.9588 184.916 78.1248 185.263 78.4135 185.523C78.7022 185.782 79.0595 185.912 79.4853 185.912C79.8028 185.912 80.0735 185.847 80.2972 185.717C80.5282 185.58 80.7122 185.393 80.8493 185.154L81.9969 185.717C81.8165 186.15 81.4989 186.5 81.0442 186.768C80.5895 187.027 80.0663 187.157 79.4745 187.157ZM80.7194 183.401C80.6834 183.04 80.5426 182.748 80.2972 182.524C80.0518 182.293 79.7415 182.177 79.3662 182.177C79.0053 182.177 78.6986 182.286 78.446 182.502C78.1934 182.711 78.0274 183.011 77.948 183.401H80.7194ZM85.9949 187.092C85.3309 187.092 84.8149 186.912 84.4468 186.551C84.086 186.183 83.9055 185.667 83.9055 185.003V182.405H82.8879V181.138H82.9962C83.2849 181.138 83.5086 181.062 83.6674 180.911C83.8261 180.759 83.9055 180.539 83.9055 180.25V179.796H85.3237V181.138H86.6769V182.405H85.3237V184.927C85.3237 185.541 85.6557 185.847 86.3197 185.847C86.4352 185.847 86.5615 185.837 86.6986 185.815V187.038C86.4676 187.074 86.2331 187.092 85.9949 187.092ZM89.8823 187.157C89.1967 187.157 88.6554 186.937 88.2584 186.497C87.8615 186.057 87.663 185.472 87.663 184.743V181.138H89.0812V184.624C89.0812 184.992 89.1895 185.292 89.406 185.523C89.6297 185.746 89.9184 185.858 90.2721 185.858C90.6257 185.858 90.9108 185.743 91.1273 185.512C91.351 185.281 91.4629 184.974 91.4629 184.592V181.138H92.8811V187.027H91.5387V186.324C91.3799 186.598 91.1562 186.807 90.8675 186.952C90.586 187.089 90.2576 187.157 89.8823 187.157ZM94.1994 181.138H95.531V181.831C95.7475 181.571 96.0145 181.369 96.3321 181.225C96.6568 181.08 97.0213 181.008 97.4255 181.008C97.974 181.008 98.4756 181.145 98.9303 181.42C99.385 181.687 99.7422 182.055 100.002 182.524C100.262 182.993 100.392 183.513 100.392 184.083C100.392 184.653 100.262 185.173 100.002 185.642C99.7422 186.111 99.385 186.482 98.9303 186.757C98.4828 187.024 97.9776 187.157 97.4147 187.157C97.0538 187.157 96.7182 187.1 96.4078 186.984C96.0975 186.861 95.8341 186.688 95.6176 186.464V189.193H94.1994V181.138ZM95.6176 184.083C95.6176 184.422 95.6861 184.729 95.8233 185.003C95.9676 185.27 96.1625 185.479 96.4078 185.631C96.6605 185.782 96.9419 185.858 97.2523 185.858C97.7358 185.858 98.1328 185.692 98.4431 185.36C98.7607 185.021 98.9194 184.595 98.9194 184.083C98.9194 183.751 98.8473 183.451 98.7029 183.184C98.5586 182.91 98.3601 182.697 98.1075 182.545C97.8549 182.387 97.5698 182.307 97.2523 182.307C96.9419 182.307 96.6605 182.383 96.4078 182.535C96.1625 182.686 95.9676 182.899 95.8233 183.173C95.6861 183.44 95.6176 183.744 95.6176 184.083ZM103.397 181.138H104.729V181.831C104.945 181.571 105.212 181.369 105.53 181.225C105.855 181.08 106.219 181.008 106.623 181.008C107.172 181.008 107.673 181.145 108.128 181.42C108.583 181.687 108.94 182.055 109.2 182.524C109.46 182.993 109.589 183.513 109.589 184.083C109.589 184.653 109.46 185.173 109.2 185.642C108.94 186.111 108.583 186.482 108.128 186.757C107.681 187.024 107.175 187.157 106.612 187.157C106.252 187.157 105.916 187.1 105.606 186.984C105.295 186.861 105.032 186.688 104.815 186.464V189.193H103.397L103.397 181.138ZM104.815 184.083C104.815 184.422 104.884 184.729 105.021 185.003C105.165 185.27 105.36 185.479 105.606 185.631C105.858 185.782 106.14 185.858 106.45 185.858C106.934 185.858 107.33 185.692 107.641 185.36C107.958 185.021 108.117 184.595 108.117 184.083C108.117 183.751 108.045 183.451 107.901 183.184C107.756 182.91 107.558 182.697 107.305 182.545C107.053 182.387 106.768 182.307 106.45 182.307C106.14 182.307 105.858 182.383 105.606 182.535C105.36 182.686 105.165 182.899 105.021 183.173C104.884 183.44 104.815 183.744 104.815 184.083ZM110.671 181.138H112.002V181.961C112.147 181.643 112.352 181.416 112.619 181.279C112.886 181.142 113.211 181.073 113.594 181.073H113.94V182.329H113.431C113.027 182.329 112.702 182.455 112.457 182.708C112.212 182.96 112.089 183.307 112.089 183.747V187.027H110.671L110.671 181.138ZM117.6 187.157C117.029 187.157 116.506 187.024 116.03 186.757C115.553 186.49 115.175 186.122 114.893 185.652C114.619 185.183 114.482 184.66 114.482 184.083C114.482 183.505 114.619 182.982 114.893 182.513C115.167 182.044 115.543 181.676 116.019 181.409C116.495 181.142 117.022 181.008 117.6 181.008C118.17 181.008 118.689 181.142 119.158 181.409C119.635 181.676 120.01 182.044 120.284 182.513C120.566 182.982 120.707 183.505 120.707 184.083C120.707 184.667 120.566 185.194 120.284 185.663C120.01 186.132 119.635 186.5 119.158 186.768C118.682 187.027 118.162 187.157 117.6 187.157ZM115.954 184.083C115.954 184.595 116.106 185.021 116.409 185.36C116.719 185.692 117.116 185.858 117.6 185.858C117.91 185.858 118.188 185.782 118.433 185.631C118.678 185.479 118.87 185.27 119.007 185.003C119.151 184.729 119.223 184.422 119.223 184.083C119.223 183.751 119.151 183.451 119.007 183.184C118.87 182.91 118.678 182.697 118.433 182.545C118.188 182.387 117.91 182.307 117.6 182.307C117.282 182.307 116.997 182.387 116.744 182.545C116.499 182.697 116.304 182.906 116.16 183.173C116.023 183.44 115.954 183.744 115.954 184.083ZM120.97 189.431C120.761 189.431 120.577 189.413 120.418 189.377V188.153C120.548 188.175 120.678 188.186 120.808 188.186C121.118 188.186 121.356 188.114 121.522 187.969C121.695 187.825 121.782 187.612 121.782 187.33L121.782 181.138H123.2V187.33C123.2 187.994 123.002 188.51 122.605 188.879C122.208 189.247 121.663 189.431 120.97 189.431ZM121.674 179.514C121.674 179.254 121.746 179.052 121.89 178.908C122.035 178.764 122.233 178.691 122.486 178.691C122.745 178.691 122.948 178.764 123.092 178.908C123.236 179.052 123.308 179.254 123.308 179.514C123.308 179.767 123.236 179.965 123.092 180.11C122.955 180.254 122.753 180.326 122.486 180.326C122.233 180.326 122.035 180.254 121.89 180.11C121.746 179.965 121.674 179.767 121.674 179.514ZM127.303 187.157C126.711 187.157 126.184 187.02 125.722 186.746C125.267 186.472 124.91 186.1 124.65 185.631C124.398 185.162 124.271 184.642 124.271 184.072C124.271 183.495 124.398 182.975 124.65 182.513C124.91 182.044 125.26 181.676 125.7 181.409C126.148 181.142 126.646 181.008 127.194 181.008C127.786 181.008 128.299 181.138 128.732 181.398C129.165 181.651 129.493 181.997 129.717 182.437C129.948 182.877 130.063 183.361 130.063 183.888C130.063 184.133 130.038 184.332 129.987 184.483H125.744C125.787 184.916 125.953 185.263 126.242 185.523C126.53 185.782 126.888 185.912 127.313 185.912C127.631 185.912 127.902 185.847 128.125 185.717C128.356 185.58 128.54 185.393 128.678 185.154L129.825 185.717C129.645 186.15 129.327 186.5 128.872 186.768C128.418 187.027 127.894 187.157 127.303 187.157ZM128.548 183.401C128.512 183.04 128.371 182.748 128.125 182.524C127.88 182.293 127.57 182.177 127.194 182.177C126.834 182.177 126.527 182.286 126.274 182.502C126.022 182.711 125.856 183.011 125.776 183.401H128.548ZM133.975 187.157C133.397 187.157 132.87 187.024 132.394 186.757C131.925 186.482 131.557 186.111 131.29 185.642C131.023 185.173 130.889 184.649 130.889 184.072C130.889 183.495 131.023 182.975 131.29 182.513C131.557 182.044 131.925 181.676 132.394 181.409C132.863 181.142 133.39 181.008 133.975 181.008C134.603 181.008 135.162 181.171 135.653 181.495C136.143 181.813 136.479 182.231 136.659 182.751L135.425 183.292C135.31 182.989 135.122 182.751 134.862 182.578C134.603 182.397 134.307 182.307 133.975 182.307C133.672 182.307 133.397 182.383 133.152 182.535C132.907 182.686 132.712 182.899 132.567 183.173C132.43 183.44 132.362 183.744 132.362 184.083C132.362 184.422 132.43 184.729 132.567 185.003C132.712 185.27 132.907 185.479 133.152 185.631C133.397 185.782 133.672 185.858 133.975 185.858C134.314 185.858 134.61 185.772 134.862 185.598C135.122 185.418 135.31 185.173 135.425 184.862L136.659 185.425C136.486 185.938 136.151 186.356 135.653 186.681C135.162 186.998 134.603 187.157 133.975 187.157ZM140.41 187.092C139.746 187.092 139.23 186.912 138.861 186.551C138.501 186.183 138.32 185.667 138.32 185.003V182.405H137.303V181.138H137.411C137.699 181.138 137.923 181.062 138.082 180.911C138.241 180.759 138.32 180.539 138.32 180.25V179.796H139.738V181.138H141.092V182.405H139.738V184.927C139.738 185.541 140.07 185.847 140.734 185.847C140.85 185.847 140.976 185.837 141.113 185.815V187.038C140.882 187.074 140.648 187.092 140.41 187.092ZM144.121 181.138H145.452V181.831C145.669 181.571 145.936 181.369 146.254 181.225C146.578 181.08 146.943 181.008 147.347 181.008C147.895 181.008 148.397 181.145 148.852 181.42C149.306 181.687 149.664 182.055 149.924 182.524C150.183 182.993 150.313 183.513 150.313 184.083C150.313 184.653 150.183 185.173 149.924 185.642C149.664 186.111 149.306 186.482 148.852 186.757C148.404 187.024 147.899 187.157 147.336 187.157C146.975 187.157 146.64 187.1 146.329 186.984C146.019 186.861 145.756 186.688 145.539 186.464V189.193H144.121V181.138ZM145.539 184.083C145.539 184.422 145.608 184.729 145.745 185.003C145.889 185.27 146.084 185.479 146.329 185.631C146.582 185.782 146.863 185.858 147.174 185.858C147.657 185.858 148.054 185.692 148.365 185.36C148.682 185.021 148.841 184.595 148.841 184.083C148.841 183.751 148.769 183.451 148.624 183.184C148.48 182.91 148.282 182.697 148.029 182.545C147.776 182.387 147.491 182.307 147.174 182.307C146.863 182.307 146.582 182.383 146.329 182.535C146.084 182.686 145.889 182.899 145.745 183.173C145.608 183.44 145.539 183.744 145.539 184.083ZM151.394 178.832H152.813V187.027H151.394V178.832ZM155.908 187.157C155.288 187.157 154.793 187.006 154.425 186.703C154.064 186.399 153.884 185.988 153.884 185.468C153.884 184.97 154.054 184.559 154.393 184.234C154.732 183.91 155.241 183.693 155.919 183.585L157.673 183.303V183.108C157.673 182.849 157.572 182.636 157.37 182.47C157.175 182.304 156.915 182.221 156.59 182.221C156.287 182.221 156.017 182.304 155.778 182.47C155.547 182.628 155.378 182.841 155.27 183.108L154.111 182.545C154.284 182.084 154.602 181.712 155.064 181.43C155.526 181.149 156.053 181.008 156.644 181.008C157.121 181.008 157.543 181.098 157.911 181.279C158.286 181.452 158.575 181.701 158.777 182.026C158.986 182.343 159.091 182.704 159.091 183.108V187.027H157.749V186.399C157.287 186.905 156.673 187.157 155.908 187.157ZM155.356 185.414C155.356 185.616 155.432 185.779 155.584 185.901C155.735 186.017 155.93 186.075 156.168 186.075C156.608 186.075 156.969 185.938 157.251 185.663C157.532 185.382 157.673 185.035 157.673 184.624V184.386L156.19 184.635C155.908 184.693 155.699 184.786 155.562 184.916C155.425 185.039 155.356 185.205 155.356 185.414ZM160.402 181.138H161.733V181.863C161.885 181.589 162.105 181.38 162.394 181.236C162.69 181.084 163.025 181.008 163.401 181.008C163.826 181.008 164.209 181.102 164.548 181.29C164.887 181.477 165.151 181.741 165.338 182.08C165.526 182.419 165.62 182.805 165.62 183.238V187.027H164.202V183.574C164.202 183.191 164.09 182.885 163.866 182.654C163.65 182.423 163.365 182.307 163.011 182.307C162.657 182.307 162.369 182.423 162.145 182.654C161.928 182.885 161.82 183.191 161.82 183.574V187.027H160.402V181.138ZM169.425 182.513H168.386V181.257H169.425V181.062C169.425 180.341 169.624 179.774 170.021 179.363C170.425 178.944 170.97 178.735 171.655 178.735C171.858 178.735 172.042 178.753 172.208 178.789V180.012C172.078 179.991 171.955 179.98 171.839 179.98C171.175 179.98 170.843 180.341 170.843 181.062V181.257H172.153V182.513H170.843V187.027H169.425V182.513ZM175.862 187.157C175.292 187.157 174.769 187.024 174.293 186.757C173.816 186.49 173.437 186.122 173.156 185.652C172.882 185.183 172.745 184.66 172.745 184.083C172.745 183.505 172.882 182.982 173.156 182.513C173.43 182.044 173.805 181.676 174.282 181.409C174.758 181.142 175.285 181.008 175.862 181.008C176.433 181.008 176.952 181.142 177.421 181.409C177.898 181.676 178.273 182.044 178.547 182.513C178.829 182.982 178.969 183.505 178.969 184.083C178.969 184.667 178.829 185.194 178.547 185.663C178.273 186.132 177.898 186.5 177.421 186.768C176.945 187.027 176.425 187.157 175.862 187.157ZM174.217 184.083C174.217 184.595 174.368 185.021 174.672 185.36C174.982 185.692 175.379 185.858 175.862 185.858C176.173 185.858 176.451 185.782 176.696 185.631C176.941 185.479 177.133 185.27 177.27 185.003C177.414 184.729 177.486 184.422 177.486 184.083C177.486 183.751 177.414 183.451 177.27 183.184C177.133 182.91 176.941 182.697 176.696 182.545C176.451 182.387 176.173 182.307 175.862 182.307C175.545 182.307 175.26 182.387 175.007 182.545C174.762 182.697 174.567 182.906 174.423 183.173C174.285 183.44 174.217 183.744 174.217 184.083ZM180.045 181.138H181.376V181.961C181.521 181.643 181.726 181.416 181.994 181.279C182.261 181.142 182.585 181.073 182.968 181.073H183.314V182.329H182.805C182.401 182.329 182.077 182.455 181.831 182.708C181.586 182.96 181.463 183.307 181.463 183.747V187.027H180.045V181.138ZM187.942 181.138H189.274V181.831C189.49 181.571 189.757 181.369 190.075 181.225C190.4 181.08 190.764 181.008 191.168 181.008C191.717 181.008 192.218 181.145 192.673 181.42C193.128 181.687 193.485 182.055 193.745 182.524C194.005 182.993 194.135 183.513 194.135 184.083C194.135 184.653 194.005 185.173 193.745 185.642C193.485 186.111 193.128 186.482 192.673 186.757C192.226 187.024 191.72 187.157 191.158 187.157C190.797 187.157 190.461 187.1 190.151 186.984C189.84 186.861 189.577 186.688 189.36 186.464V189.193H187.942V181.138ZM189.36 184.083C189.36 184.422 189.429 184.729 189.566 185.003C189.71 185.27 189.905 185.479 190.151 185.631C190.403 185.782 190.685 185.858 190.995 185.858C191.479 185.858 191.876 185.692 192.186 185.36C192.504 185.021 192.662 184.595 192.662 184.083C192.662 183.751 192.59 183.451 192.446 183.184C192.301 182.91 192.103 182.697 191.85 182.545C191.598 182.387 191.313 182.307 190.995 182.307C190.685 182.307 190.403 182.383 190.151 182.535C189.905 182.686 189.71 182.899 189.566 183.173C189.429 183.44 189.36 183.744 189.36 184.083ZM195.216 181.138H196.547V181.961C196.692 181.643 196.897 181.416 197.164 181.279C197.432 181.142 197.756 181.073 198.139 181.073H198.485V182.329H197.976C197.572 182.329 197.247 182.455 197.002 182.708C196.757 182.96 196.634 183.307 196.634 183.747V187.027H195.216V181.138ZM202.145 187.157C201.574 187.157 201.051 187.024 200.575 186.757C200.099 186.49 199.72 186.122 199.438 185.652C199.164 185.183 199.027 184.66 199.027 184.083C199.027 183.505 199.164 182.982 199.438 182.513C199.712 182.044 200.088 181.676 200.564 181.409C201.04 181.142 201.567 181.008 202.145 181.008C202.715 181.008 203.234 181.142 203.704 181.409C204.18 181.676 204.555 182.044 204.829 182.513C205.111 182.982 205.252 183.505 205.252 184.083C205.252 184.667 205.111 185.194 204.829 185.663C204.555 186.132 204.18 186.5 203.704 186.768C203.227 187.027 202.708 187.157 202.145 187.157ZM200.499 184.083C200.499 184.595 200.651 185.021 200.954 185.36C201.264 185.692 201.661 185.858 202.145 185.858C202.455 185.858 202.733 185.782 202.978 185.631C203.224 185.479 203.415 185.27 203.552 185.003C203.696 184.729 203.769 184.422 203.769 184.083C203.769 183.751 203.696 183.451 203.552 183.184C203.415 182.91 203.224 182.697 202.978 182.545C202.733 182.387 202.455 182.307 202.145 182.307C201.827 182.307 201.542 182.387 201.289 182.545C201.044 182.697 200.849 182.906 200.705 183.173C200.568 183.44 200.499 183.744 200.499 184.083ZM205.515 189.431C205.306 189.431 205.122 189.413 204.963 189.377V188.153C205.093 188.175 205.223 188.186 205.353 188.186C205.663 188.186 205.901 188.114 206.067 187.969C206.241 187.825 206.327 187.612 206.327 187.33V181.138H207.745V187.33C207.745 187.994 207.547 188.51 207.15 188.879C206.753 189.247 206.208 189.431 205.515 189.431ZM206.219 179.514C206.219 179.254 206.291 179.052 206.435 178.908C206.58 178.764 206.778 178.691 207.031 178.691C207.291 178.691 207.493 178.764 207.637 178.908C207.781 179.052 207.854 179.254 207.854 179.514C207.854 179.767 207.781 179.965 207.637 180.11C207.5 180.254 207.298 180.326 207.031 180.326C206.778 180.326 206.58 180.254 206.435 180.11C206.291 179.965 206.219 179.767 206.219 179.514ZM211.848 187.157C211.256 187.157 210.729 187.02 210.267 186.746C209.813 186.472 209.455 186.1 209.195 185.631C208.943 185.162 208.817 184.642 208.817 184.072C208.817 183.495 208.943 182.975 209.195 182.513C209.455 182.044 209.805 181.676 210.246 181.409C210.693 181.142 211.191 181.008 211.74 181.008C212.331 181.008 212.844 181.138 213.277 181.398C213.71 181.651 214.038 181.997 214.262 182.437C214.493 182.877 214.608 183.361 214.608 183.888C214.608 184.133 214.583 184.332 214.533 184.483H210.289C210.332 184.916 210.498 185.263 210.787 185.523C211.076 185.782 211.433 185.912 211.859 185.912C212.176 185.912 212.447 185.847 212.671 185.717C212.902 185.58 213.086 185.393 213.223 185.154L214.37 185.717C214.19 186.15 213.872 186.5 213.418 186.768C212.963 187.027 212.44 187.157 211.848 187.157ZM213.093 183.401C213.057 183.04 212.916 182.748 212.671 182.524C212.425 182.293 212.115 182.177 211.74 182.177C211.379 182.177 211.072 182.286 210.819 182.502C210.567 182.711 210.401 183.011 210.321 183.401H213.093ZM218.52 187.157C217.942 187.157 217.416 187.024 216.939 186.757C216.47 186.482 216.102 186.111 215.835 185.642C215.568 185.173 215.434 184.649 215.434 184.072C215.434 183.495 215.568 182.975 215.835 182.513C216.102 182.044 216.47 181.676 216.939 181.409C217.408 181.142 217.935 181.008 218.52 181.008C219.148 181.008 219.707 181.171 220.198 181.495C220.689 181.813 221.024 182.231 221.205 182.751L219.97 183.292C219.855 182.989 219.667 182.751 219.408 182.578C219.148 182.397 218.852 182.307 218.52 182.307C218.217 182.307 217.942 182.383 217.697 182.535C217.452 182.686 217.257 182.899 217.112 183.173C216.975 183.44 216.907 183.744 216.907 184.083C216.907 184.422 216.975 184.729 217.112 185.003C217.257 185.27 217.452 185.479 217.697 185.631C217.942 185.782 218.217 185.858 218.52 185.858C218.859 185.858 219.155 185.772 219.408 185.598C219.667 185.418 219.855 185.173 219.97 184.862L221.205 185.425C221.031 185.938 220.696 186.356 220.198 186.681C219.707 186.998 219.148 187.157 218.52 187.157ZM224.955 187.092C224.291 187.092 223.775 186.912 223.407 186.551C223.046 186.183 222.865 185.667 222.865 185.003V182.405H221.848V181.138H221.956C222.245 181.138 222.468 181.062 222.627 180.911C222.786 180.759 222.865 180.539 222.865 180.25V179.796H224.283V181.138H225.637V182.405H224.283V184.927C224.283 185.541 224.615 185.847 225.279 185.847C225.395 185.847 225.521 185.837 225.658 185.815V187.038C225.427 187.074 225.193 187.092 224.955 187.092ZM228.95 187.146C228.359 187.146 227.835 187.006 227.381 186.724C226.933 186.443 226.616 186.057 226.428 185.566L227.478 185.025C227.637 185.342 227.846 185.591 228.106 185.772C228.373 185.945 228.665 186.031 228.983 186.031C229.257 186.031 229.47 185.977 229.622 185.869C229.78 185.754 229.86 185.598 229.86 185.403C229.86 185.237 229.795 185.1 229.665 184.992C229.535 184.877 229.365 184.801 229.156 184.765L228.193 184.602C227.695 184.472 227.308 184.252 227.034 183.942C226.767 183.624 226.634 183.253 226.634 182.827C226.634 182.473 226.727 182.159 226.915 181.885C227.103 181.604 227.363 181.387 227.695 181.236C228.034 181.084 228.416 181.008 228.842 181.008C229.383 181.008 229.86 181.138 230.271 181.398C230.682 181.651 230.982 182.004 231.17 182.459L230.12 183C230.004 182.748 229.827 182.545 229.589 182.394C229.351 182.242 229.087 182.167 228.799 182.167C228.561 182.167 228.369 182.221 228.225 182.329C228.088 182.437 228.019 182.578 228.019 182.751C228.019 183.069 228.257 183.282 228.734 183.39L229.676 183.563C230.174 183.7 230.56 183.924 230.834 184.234C231.108 184.545 231.245 184.913 231.245 185.339C231.245 185.692 231.148 186.006 230.953 186.28C230.765 186.555 230.498 186.768 230.152 186.919C229.806 187.071 229.405 187.146 228.95 187.146ZM234.227 181.138H235.645V187.027H234.227V181.138ZM234.119 179.514C234.119 179.254 234.191 179.052 234.335 178.908C234.48 178.764 234.678 178.691 234.931 178.691C235.19 178.691 235.392 178.764 235.537 178.908C235.681 179.052 235.753 179.254 235.753 179.514C235.753 179.767 235.681 179.965 235.537 180.11C235.4 180.254 235.198 180.326 234.931 180.326C234.678 180.326 234.48 180.254 234.335 180.11C234.191 179.965 234.119 179.767 234.119 179.514ZM238.351 187.027C238.12 187.027 237.925 186.952 237.766 186.8C237.615 186.641 237.539 186.446 237.539 186.215C237.539 185.992 237.615 185.804 237.766 185.652C237.925 185.494 238.12 185.414 238.351 185.414C238.575 185.414 238.762 185.49 238.914 185.642C239.066 185.793 239.141 185.984 239.141 186.215C239.141 186.446 239.066 186.641 238.914 186.8C238.77 186.952 238.582 187.027 238.351 187.027ZM242.442 187.027C242.211 187.027 242.017 186.952 241.858 186.8C241.706 186.641 241.63 186.446 241.63 186.215C241.63 185.992 241.706 185.804 241.858 185.652C242.017 185.494 242.211 185.414 242.442 185.414C242.666 185.414 242.854 185.49 243.005 185.642C243.157 185.793 243.233 185.984 243.233 186.215C243.233 186.446 243.157 186.641 243.005 186.8C242.861 186.952 242.673 187.027 242.442 187.027ZM246.534 187.027C246.303 187.027 246.108 186.952 245.949 186.8C245.798 186.641 245.722 186.446 245.722 186.215C245.722 185.992 245.798 185.804 245.949 185.652C246.108 185.494 246.303 185.414 246.534 185.414C246.758 185.414 246.945 185.49 247.097 185.642C247.248 185.793 247.324 185.984 247.324 186.215C247.324 186.446 247.248 186.641 247.097 186.8C246.952 186.952 246.765 187.027 246.534 187.027Z" fill="white"/>
<path d="M69.7979 196.56H72.2892C72.7566 196.56 73.167 196.649 73.5207 196.825C73.8806 197.002 74.1585 197.255 74.3543 197.583C74.55 197.912 74.6479 198.297 74.6479 198.739C74.6479 199.181 74.55 199.566 74.3543 199.894C74.1585 200.223 73.8806 200.475 73.5207 200.652C73.167 200.829 72.7566 200.917 72.2892 200.917H70.7263V203.617H69.7979V196.56ZM72.3177 200.065C72.7408 200.065 73.0786 199.945 73.3312 199.705C73.5838 199.465 73.7101 199.143 73.7101 198.739C73.7101 198.335 73.5838 198.013 73.3312 197.773C73.0786 197.533 72.7408 197.413 72.3177 197.413H70.7263V200.065H72.3177ZM75.7991 196.446H76.6801V203.617H75.7991V196.446ZM79.5437 203.731C79.0385 203.731 78.628 203.598 78.3123 203.333C77.9965 203.061 77.8386 202.711 77.8386 202.282C77.8386 201.865 77.9744 201.517 78.246 201.24C78.5238 200.955 78.9438 200.766 79.5058 200.671L81.2488 200.387V200.15C81.2488 199.872 81.1446 199.648 80.9362 199.478C80.7278 199.301 80.4594 199.212 80.131 199.212C79.8405 199.212 79.5816 199.288 79.3543 199.44C79.1332 199.585 78.969 199.781 78.8617 200.027L78.0944 199.629C78.2396 199.276 78.5049 198.982 78.8901 198.748C79.2753 198.515 79.6953 198.398 80.1499 198.398C80.5352 198.398 80.8762 198.474 81.173 198.625C81.4761 198.77 81.7098 198.976 81.874 199.241C82.0445 199.506 82.1297 199.809 82.1297 200.15V203.617H81.2677V202.954C81.0846 203.194 80.8415 203.384 80.5383 203.522C80.2415 203.661 79.91 203.731 79.5437 203.731ZM78.7669 202.253C78.7669 202.462 78.849 202.635 79.0132 202.774C79.1837 202.913 79.3953 202.983 79.6479 202.983C79.9573 202.983 80.232 202.916 80.472 202.784C80.7183 202.645 80.9078 202.458 81.0404 202.225C81.1793 201.991 81.2488 201.732 81.2488 201.448V201.126L79.7047 201.382C79.0795 201.489 78.7669 201.78 78.7669 202.253ZM83.4956 198.511H84.3576V199.137C84.5092 198.897 84.7113 198.714 84.9639 198.587C85.2165 198.461 85.5007 198.398 85.8164 198.398C86.1764 198.398 86.5016 198.483 86.7921 198.654C87.0826 198.818 87.3099 199.045 87.4741 199.336C87.6446 199.626 87.7299 199.951 87.7299 200.311V203.617H86.8395V200.595C86.8395 200.179 86.7258 199.85 86.4984 199.61C86.2774 199.37 85.9838 199.25 85.6175 199.25C85.2512 199.25 84.9513 199.373 84.7176 199.62C84.4903 199.86 84.3766 200.185 84.3766 200.595V203.617H83.4956V198.511ZM88.9905 198.511H89.8525V199.137C90.004 198.897 90.2061 198.714 90.4587 198.587C90.7113 198.461 90.9955 198.398 91.3113 198.398C91.6712 198.398 91.9965 198.483 92.2869 198.654C92.5774 198.818 92.8048 199.045 92.969 199.336C93.1395 199.626 93.2247 199.951 93.2247 200.311V203.617H92.3343V200.595C92.3343 200.179 92.2206 199.85 91.9933 199.61C91.7723 199.37 91.4786 199.25 91.1123 199.25C90.7461 199.25 90.4461 199.373 90.2124 199.62C89.9851 199.86 89.8714 200.185 89.8714 200.595V203.617H88.9905V198.511ZM96.8345 203.731C96.3546 203.731 95.9189 203.614 95.5273 203.38C95.1358 203.147 94.8295 202.828 94.6085 202.424C94.3874 202.013 94.2769 201.555 94.2769 201.05C94.2769 200.545 94.3843 200.09 94.599 199.686C94.82 199.282 95.1168 198.966 95.4894 198.739C95.8683 198.511 96.2914 198.398 96.7588 198.398C97.245 198.398 97.6681 198.511 98.0281 198.739C98.3944 198.966 98.6722 199.269 98.8617 199.648C99.0574 200.021 99.1553 200.422 99.1553 200.851C99.1553 200.996 99.1395 201.154 99.108 201.325H95.2053C95.2179 201.647 95.3 201.928 95.4515 202.168C95.6031 202.408 95.7989 202.594 96.0388 202.727C96.2851 202.859 96.5535 202.926 96.844 202.926C97.4629 202.926 97.9397 202.645 98.2744 202.083L99.0132 202.462C98.849 202.828 98.5712 203.131 98.1796 203.371C97.7881 203.611 97.3397 203.731 96.8345 203.731ZM98.1986 200.567C98.186 200.169 98.0407 199.841 97.7629 199.582C97.4913 199.317 97.1566 199.184 96.7588 199.184C96.3672 199.184 96.0294 199.31 95.7452 199.563C95.461 199.809 95.2873 200.144 95.2242 200.567H98.1986ZM102.625 203.731C102.151 203.731 101.722 203.614 101.336 203.38C100.951 203.147 100.648 202.828 100.427 202.424C100.206 202.019 100.096 201.568 100.096 201.069C100.096 200.57 100.206 200.119 100.427 199.714C100.648 199.304 100.951 198.982 101.336 198.748C101.722 198.515 102.151 198.398 102.625 198.398C102.997 198.398 103.332 198.467 103.629 198.606C103.932 198.745 104.185 198.941 104.387 199.193V196.446H105.277V203.617H104.415V202.869C104.226 203.14 103.973 203.352 103.657 203.504C103.348 203.655 103.004 203.731 102.625 203.731ZM101.024 201.069C101.024 201.41 101.096 201.72 101.242 201.997C101.387 202.269 101.586 202.484 101.839 202.642C102.097 202.799 102.385 202.878 102.701 202.878C103.016 202.878 103.3 202.799 103.553 202.642C103.812 202.484 104.014 202.269 104.159 201.997C104.311 201.72 104.387 201.41 104.387 201.069C104.387 200.728 104.311 200.419 104.159 200.141C104.014 199.863 103.812 199.645 103.553 199.487C103.3 199.329 103.016 199.25 102.701 199.25C102.385 199.25 102.097 199.329 101.839 199.487C101.586 199.645 101.387 199.863 101.242 200.141C101.096 200.419 101.024 200.728 101.024 201.069Z" fill="#68686A"/>
<circle cx="43.3013" cy="189.911" r="16.2388" fill="#1D2124"/>
<path d="M43.3013 185.848V190.246L41.2715 192.614" stroke="white" stroke-width="0.676615"/>
<path d="M36.6367 191.086C36.7729 191.863 37.0455 192.61 37.4419 193.292" stroke="white" stroke-width="0.676615"/>
<path d="M37.4419 186.523C37.0455 187.205 36.7729 187.952 36.6367 188.729" stroke="white" stroke-width="0.676615"/>
<path d="M40.9869 183.547C40.2469 183.818 39.5599 184.217 38.957 184.724" stroke="white" stroke-width="0.676615"/>
<path d="M38.9512 195.09C39.7844 195.789 40.7738 196.277 41.8357 196.512C42.8976 196.748 44.0007 196.724 45.0513 196.443C46.102 196.161 47.0693 195.631 47.8714 194.896C48.6734 194.161 49.2864 193.244 49.6586 192.222C50.0307 191.2 50.1509 190.103 50.0091 189.024C49.8673 187.946 49.4675 186.918 48.8438 186.027C48.22 185.136 47.3906 184.408 46.4259 183.906C45.4611 183.403 44.3895 183.141 43.3018 183.141" stroke="white" stroke-width="0.676615"/>
<path d="M69.7912 227.907H71.2635V234.674H74.7169V235.973H69.7912V227.907ZM77.3364 236.103C76.7158 236.103 76.2214 235.951 75.8533 235.648C75.4924 235.345 75.312 234.933 75.312 234.414C75.312 233.916 75.4816 233.504 75.8208 233.18C76.16 232.855 76.6689 232.638 77.3473 232.53L79.1011 232.249V232.054C79.1011 231.794 79 231.581 78.7979 231.415C78.6031 231.249 78.3433 231.166 78.0185 231.166C77.7154 231.166 77.4447 231.249 77.2065 231.415C76.9756 231.574 76.806 231.787 76.6977 232.054L75.5394 231.491C75.7126 231.029 76.0301 230.657 76.492 230.376C76.9539 230.094 77.4808 229.953 78.0726 229.953C78.5489 229.953 78.9711 230.044 79.3392 230.224C79.7145 230.397 80.0032 230.646 80.2053 230.971C80.4146 231.289 80.5192 231.65 80.5192 232.054V235.973H79.1768V235.345C78.7149 235.85 78.1015 236.103 77.3364 236.103ZM76.7843 234.36C76.7843 234.562 76.8601 234.724 77.0117 234.847C77.1632 234.962 77.3581 235.02 77.5963 235.02C78.0365 235.02 78.3974 234.883 78.6789 234.609C78.9603 234.327 79.1011 233.981 79.1011 233.569V233.331L77.6179 233.58C77.3364 233.638 77.1271 233.732 76.99 233.862C76.8529 233.984 76.7843 234.15 76.7843 234.36ZM83.9302 236.103C83.2446 236.103 82.7033 235.882 82.3064 235.442C81.9094 235.002 81.7109 234.417 81.7109 233.688V230.083H83.1291V233.569C83.1291 233.937 83.2374 234.237 83.4539 234.468C83.6776 234.692 83.9663 234.803 84.32 234.803C84.6736 234.803 84.9587 234.688 85.1752 234.457C85.3989 234.226 85.5108 233.919 85.5108 233.537V230.083H86.929V235.973H85.5866V235.269C85.4278 235.543 85.2041 235.753 84.9154 235.897C84.6339 236.034 84.3055 236.103 83.9302 236.103ZM88.2473 230.083H89.5789V230.809C89.7304 230.534 89.9505 230.325 90.2392 230.181C90.5351 230.029 90.8707 229.953 91.246 229.953C91.6719 229.953 92.0544 230.047 92.3936 230.235C92.7328 230.423 92.9962 230.686 93.1839 231.025C93.3715 231.364 93.4653 231.751 93.4653 232.184V235.973H92.0472V232.519C92.0472 232.137 91.9353 231.83 91.7115 231.599C91.495 231.368 91.21 231.253 90.8563 231.253C90.5027 231.253 90.214 231.368 89.9902 231.599C89.7737 231.83 89.6655 232.137 89.6655 232.519V235.973H88.2473V230.083ZM97.5009 236.103C96.9235 236.103 96.3967 235.969 95.9203 235.702C95.4512 235.428 95.0832 235.056 94.8161 234.587C94.5491 234.118 94.4156 233.595 94.4156 233.017C94.4156 232.44 94.5491 231.92 94.8161 231.458C95.0832 230.989 95.4512 230.621 95.9203 230.354C96.3895 230.087 96.9163 229.953 97.5009 229.953C98.1288 229.953 98.6882 230.116 99.1789 230.441C99.6697 230.758 100.005 231.177 100.186 231.696L98.9516 232.238C98.8361 231.935 98.6485 231.696 98.3886 231.523C98.1288 231.343 97.8329 231.253 97.5009 231.253C97.1978 231.253 96.9235 231.328 96.6782 231.48C96.4328 231.631 96.2379 231.844 96.0936 232.119C95.9564 232.386 95.8879 232.689 95.8879 233.028C95.8879 233.367 95.9564 233.674 96.0936 233.948C96.2379 234.215 96.4328 234.425 96.6782 234.576C96.9235 234.728 97.1978 234.803 97.5009 234.803C97.8401 234.803 98.136 234.717 98.3886 234.544C98.6485 234.363 98.8361 234.118 98.9516 233.807L100.186 234.37C100.013 234.883 99.6769 235.301 99.1789 235.626C98.6882 235.944 98.1288 236.103 97.5009 236.103ZM101.251 227.777H102.669V230.668C102.835 230.437 103.055 230.26 103.33 230.138C103.604 230.015 103.911 229.953 104.25 229.953C104.676 229.953 105.058 230.047 105.397 230.235C105.736 230.423 106 230.686 106.188 231.025C106.375 231.364 106.469 231.751 106.469 232.184V235.973H105.051V232.519C105.051 232.137 104.939 231.83 104.715 231.599C104.499 231.368 104.214 231.253 103.86 231.253C103.514 231.253 103.228 231.368 103.005 231.599C102.781 231.83 102.669 232.137 102.669 232.519V235.973H101.251L101.251 227.777ZM112.385 236.103C111.794 236.103 111.267 235.965 110.805 235.691C110.35 235.417 109.993 235.045 109.733 234.576C109.48 234.107 109.354 233.587 109.354 233.017C109.354 232.44 109.48 231.92 109.733 231.458C109.993 230.989 110.343 230.621 110.783 230.354C111.231 230.087 111.729 229.953 112.277 229.953C112.869 229.953 113.381 230.083 113.814 230.343C114.247 230.596 114.576 230.942 114.8 231.383C115.031 231.823 115.146 232.306 115.146 232.833C115.146 233.079 115.121 233.277 115.07 233.429H110.827C110.87 233.862 111.036 234.208 111.324 234.468C111.613 234.728 111.97 234.858 112.396 234.858C112.714 234.858 112.984 234.793 113.208 234.663C113.439 234.526 113.623 234.338 113.76 234.1L114.908 234.663C114.727 235.096 114.41 235.446 113.955 235.713C113.5 235.973 112.977 236.103 112.385 236.103ZM113.63 232.346C113.594 231.985 113.454 231.693 113.208 231.469C112.963 231.238 112.652 231.123 112.277 231.123C111.916 231.123 111.61 231.231 111.357 231.447C111.104 231.657 110.938 231.956 110.859 232.346H113.63ZM116.513 232.411H121.114V233.656H116.513V232.411ZM122.712 230.083H124.044V230.82C124.195 230.538 124.412 230.325 124.693 230.181C124.982 230.029 125.314 229.953 125.689 229.953C126.079 229.953 126.436 230.04 126.761 230.213C127.086 230.379 127.335 230.61 127.508 230.906C127.703 230.589 127.956 230.35 128.266 230.192C128.584 230.033 128.941 229.953 129.338 229.953C129.749 229.953 130.121 230.047 130.453 230.235C130.785 230.423 131.045 230.686 131.232 231.025C131.42 231.364 131.514 231.751 131.514 232.184V235.973H130.096V232.519C130.096 232.129 129.991 231.823 129.782 231.599C129.58 231.368 129.305 231.253 128.959 231.253C128.62 231.253 128.345 231.368 128.136 231.599C127.927 231.83 127.822 232.137 127.822 232.519V235.973H126.404V232.519C126.404 232.129 126.299 231.823 126.09 231.599C125.888 231.368 125.614 231.253 125.267 231.253C124.928 231.253 124.654 231.368 124.444 231.599C124.235 231.83 124.131 232.137 124.131 232.519V235.973H122.712L122.712 230.083ZM134.5 236.103C133.879 236.103 133.385 235.951 133.017 235.648C132.656 235.345 132.475 234.933 132.475 234.414C132.475 233.916 132.645 233.504 132.984 233.18C133.323 232.855 133.832 232.638 134.511 232.53L136.264 232.249V232.054C136.264 231.794 136.163 231.581 135.961 231.415C135.766 231.249 135.507 231.166 135.182 231.166C134.879 231.166 134.608 231.249 134.37 231.415C134.139 231.574 133.969 231.787 133.861 232.054L132.703 231.491C132.876 231.029 133.194 230.657 133.655 230.376C134.117 230.094 134.644 229.953 135.236 229.953C135.712 229.953 136.135 230.044 136.503 230.224C136.878 230.397 137.167 230.646 137.369 230.971C137.578 231.289 137.683 231.65 137.683 232.054V235.973H136.34V235.345C135.878 235.85 135.265 236.103 134.5 236.103ZM133.948 234.36C133.948 234.562 134.023 234.724 134.175 234.847C134.327 234.962 134.521 235.02 134.76 235.02C135.2 235.02 135.561 234.883 135.842 234.609C136.124 234.327 136.264 233.981 136.264 233.569V233.331L134.781 233.58C134.5 233.638 134.291 233.732 134.153 233.862C134.016 233.984 133.948 234.15 133.948 234.36ZM138.993 230.083H140.412V235.973H138.993V230.083ZM138.885 228.46C138.885 228.2 138.957 227.998 139.102 227.853C139.246 227.709 139.444 227.637 139.697 227.637C139.957 227.637 140.159 227.709 140.303 227.853C140.448 227.998 140.52 228.2 140.52 228.46C140.52 228.712 140.448 228.911 140.303 229.055C140.166 229.199 139.964 229.271 139.697 229.271C139.444 229.271 139.246 229.199 139.102 229.055C138.957 228.911 138.885 228.712 138.885 228.46ZM141.721 227.777H143.139V235.973H141.721V227.777ZM149.209 236.103C148.632 236.103 148.105 235.969 147.629 235.702C147.159 235.428 146.791 235.056 146.524 234.587C146.257 234.118 146.124 233.595 146.124 233.017C146.124 232.44 146.257 231.92 146.524 231.458C146.791 230.989 147.159 230.621 147.629 230.354C148.098 230.087 148.624 229.953 149.209 229.953C149.837 229.953 150.396 230.116 150.887 230.441C151.378 230.758 151.713 231.177 151.894 231.696L150.66 232.238C150.544 231.935 150.357 231.696 150.097 231.523C149.837 231.343 149.541 231.253 149.209 231.253C148.906 231.253 148.632 231.328 148.386 231.48C148.141 231.631 147.946 231.844 147.802 232.119C147.665 232.386 147.596 232.689 147.596 233.028C147.596 233.367 147.665 233.674 147.802 233.948C147.946 234.215 148.141 234.425 148.386 234.576C148.632 234.728 148.906 234.803 149.209 234.803C149.548 234.803 149.844 234.717 150.097 234.544C150.357 234.363 150.544 234.118 150.66 233.807L151.894 234.37C151.721 234.883 151.385 235.301 150.887 235.626C150.396 235.944 149.837 236.103 149.209 236.103ZM154.714 236.103C154.093 236.103 153.599 235.951 153.231 235.648C152.87 235.345 152.689 234.933 152.689 234.414C152.689 233.916 152.859 233.504 153.198 233.18C153.537 232.855 154.046 232.638 154.725 232.53L156.478 232.249V232.054C156.478 231.794 156.377 231.581 156.175 231.415C155.98 231.249 155.72 231.166 155.396 231.166C155.093 231.166 154.822 231.249 154.584 231.415C154.353 231.574 154.183 231.787 154.075 232.054L152.917 231.491C153.09 231.029 153.407 230.657 153.869 230.376C154.331 230.094 154.858 229.953 155.45 229.953C155.926 229.953 156.348 230.044 156.716 230.224C157.092 230.397 157.38 230.646 157.583 230.971C157.792 231.289 157.896 231.65 157.896 232.054V235.973H156.554V235.345C156.092 235.85 155.479 236.103 154.714 236.103ZM154.162 234.36C154.162 234.562 154.237 234.724 154.389 234.847C154.54 234.962 154.735 235.02 154.974 235.02C155.414 235.02 155.775 234.883 156.056 234.609C156.338 234.327 156.478 233.981 156.478 233.569V233.331L154.995 233.58C154.714 233.638 154.504 233.732 154.367 233.862C154.23 233.984 154.162 234.15 154.162 234.36ZM159.207 230.083H160.539V230.82C160.69 230.538 160.907 230.325 161.188 230.181C161.477 230.029 161.809 229.953 162.184 229.953C162.574 229.953 162.931 230.04 163.256 230.213C163.581 230.379 163.83 230.61 164.003 230.906C164.198 230.589 164.451 230.35 164.761 230.192C165.078 230.033 165.436 229.953 165.833 229.953C166.244 229.953 166.616 230.047 166.948 230.235C167.28 230.423 167.54 230.686 167.727 231.025C167.915 231.364 168.009 231.751 168.009 232.184V235.973H166.59V232.519C166.59 232.129 166.486 231.823 166.277 231.599C166.074 231.368 165.8 231.253 165.454 231.253C165.115 231.253 164.84 231.368 164.631 231.599C164.422 231.83 164.317 232.137 164.317 232.519V235.973H162.899V232.519C162.899 232.129 162.794 231.823 162.585 231.599C162.383 231.368 162.109 231.253 161.762 231.253C161.423 231.253 161.149 231.368 160.939 231.599C160.73 231.83 160.625 232.137 160.625 232.519V235.973H159.207V230.083ZM169.208 230.083H170.54V230.776C170.757 230.516 171.024 230.314 171.341 230.17C171.666 230.026 172.03 229.953 172.435 229.953C172.983 229.953 173.485 230.091 173.939 230.365C174.394 230.632 174.751 231 175.011 231.469C175.271 231.938 175.401 232.458 175.401 233.028C175.401 233.598 175.271 234.118 175.011 234.587C174.751 235.056 174.394 235.428 173.939 235.702C173.492 235.969 172.987 236.103 172.424 236.103C172.063 236.103 171.727 236.045 171.417 235.929C171.107 235.807 170.843 235.633 170.627 235.41V238.138H169.208V230.083ZM170.627 233.028C170.627 233.367 170.695 233.674 170.832 233.948C170.977 234.215 171.172 234.425 171.417 234.576C171.67 234.728 171.951 234.803 172.261 234.803C172.745 234.803 173.142 234.637 173.452 234.305C173.77 233.966 173.929 233.54 173.929 233.028C173.929 232.696 173.856 232.397 173.712 232.129C173.568 231.855 173.369 231.642 173.117 231.491C172.864 231.332 172.579 231.253 172.261 231.253C171.951 231.253 171.67 231.328 171.417 231.48C171.172 231.631 170.977 231.844 170.832 232.119C170.695 232.386 170.627 232.689 170.627 233.028ZM178.268 236.103C177.648 236.103 177.153 235.951 176.785 235.648C176.424 235.345 176.244 234.933 176.244 234.414C176.244 233.916 176.414 233.504 176.753 233.18C177.092 232.855 177.601 232.638 178.279 232.53L180.033 232.249V232.054C180.033 231.794 179.932 231.581 179.73 231.415C179.535 231.249 179.275 231.166 178.95 231.166C178.647 231.166 178.377 231.249 178.138 231.415C177.907 231.574 177.738 231.787 177.63 232.054L176.471 231.491C176.644 231.029 176.962 230.657 177.424 230.376C177.886 230.094 178.413 229.953 179.004 229.953C179.481 229.953 179.903 230.044 180.271 230.224C180.646 230.397 180.935 230.646 181.137 230.971C181.346 231.289 181.451 231.65 181.451 232.054V235.973H180.109V235.345C179.647 235.85 179.033 236.103 178.268 236.103ZM177.716 234.36C177.716 234.562 177.792 234.724 177.944 234.847C178.095 234.962 178.29 235.02 178.528 235.02C178.968 235.02 179.329 234.883 179.611 234.609C179.892 234.327 180.033 233.981 180.033 233.569V233.331L178.55 233.58C178.268 233.638 178.059 233.732 177.922 233.862C177.785 233.984 177.716 234.15 177.716 234.36ZM182.762 230.083H184.18V235.973H182.762V230.083ZM182.654 228.46C182.654 228.2 182.726 227.998 182.87 227.853C183.015 227.709 183.213 227.637 183.466 227.637C183.725 227.637 183.927 227.709 184.072 227.853C184.216 227.998 184.288 228.2 184.288 228.46C184.288 228.712 184.216 228.911 184.072 229.055C183.935 229.199 183.733 229.271 183.466 229.271C183.213 229.271 183.015 229.199 182.87 229.055C182.726 228.911 182.654 228.712 182.654 228.46ZM188.348 238.354C187.684 238.354 187.099 238.196 186.594 237.878C186.096 237.568 185.753 237.153 185.565 236.633L186.886 236.135C186.973 236.417 187.146 236.64 187.406 236.806C187.665 236.972 187.979 237.055 188.348 237.055C188.781 237.055 189.131 236.933 189.398 236.687C189.672 236.442 189.809 236.106 189.809 235.68V235.042C189.39 235.504 188.824 235.734 188.109 235.734C187.568 235.734 187.077 235.608 186.637 235.356C186.204 235.103 185.865 234.757 185.619 234.316C185.374 233.876 185.251 233.382 185.251 232.833C185.251 232.285 185.37 231.794 185.609 231.361C185.854 230.921 186.193 230.578 186.626 230.332C187.059 230.08 187.543 229.953 188.077 229.953C188.835 229.953 189.437 230.221 189.885 230.755V230.083H191.227V235.68C191.227 236.193 191.105 236.651 190.859 237.055C190.614 237.467 190.271 237.784 189.831 238.008C189.398 238.239 188.903 238.354 188.348 238.354ZM186.724 232.844C186.724 233.299 186.868 233.678 187.157 233.981C187.453 234.277 187.828 234.425 188.283 234.425C188.73 234.425 189.095 234.277 189.376 233.981C189.665 233.685 189.809 233.306 189.809 232.844C189.809 232.382 189.665 232.003 189.376 231.707C189.087 231.404 188.723 231.253 188.283 231.253C187.835 231.253 187.463 231.404 187.168 231.707C186.872 232.01 186.724 232.389 186.724 232.844ZM192.552 230.083H193.883V230.809C194.035 230.534 194.255 230.325 194.544 230.181C194.84 230.029 195.175 229.953 195.55 229.953C195.976 229.953 196.359 230.047 196.698 230.235C197.037 230.423 197.301 230.686 197.488 231.025C197.676 231.364 197.77 231.751 197.77 232.184V235.973H196.352V232.519C196.352 232.137 196.24 231.83 196.016 231.599C195.799 231.368 195.514 231.253 195.161 231.253C194.807 231.253 194.518 231.368 194.295 231.599C194.078 231.83 193.97 232.137 193.97 232.519V235.973H192.552V230.083ZM201.177 236.092C200.586 236.092 200.062 235.951 199.608 235.67C199.16 235.388 198.843 235.002 198.655 234.511L199.705 233.97C199.864 234.287 200.073 234.536 200.333 234.717C200.6 234.89 200.892 234.977 201.21 234.977C201.484 234.977 201.697 234.923 201.849 234.814C202.007 234.699 202.087 234.544 202.087 234.349C202.087 234.183 202.022 234.046 201.892 233.937C201.762 233.822 201.592 233.746 201.383 233.71L200.42 233.548C199.922 233.418 199.535 233.198 199.261 232.887C198.994 232.57 198.861 232.198 198.861 231.772C198.861 231.419 198.955 231.105 199.142 230.83C199.33 230.549 199.59 230.332 199.922 230.181C200.261 230.029 200.643 229.953 201.069 229.953C201.61 229.953 202.087 230.083 202.498 230.343C202.91 230.596 203.209 230.949 203.397 231.404L202.347 231.945C202.231 231.693 202.054 231.491 201.816 231.339C201.578 231.188 201.315 231.112 201.026 231.112C200.788 231.112 200.596 231.166 200.452 231.274C200.315 231.383 200.246 231.523 200.246 231.696C200.246 232.014 200.485 232.227 200.961 232.335L201.903 232.508C202.401 232.646 202.787 232.869 203.061 233.18C203.335 233.49 203.472 233.858 203.472 234.284C203.472 234.637 203.375 234.951 203.18 235.226C202.993 235.5 202.726 235.713 202.379 235.864C202.033 236.016 201.632 236.092 201.177 236.092Z" fill="white"/>
<path d="M69.8245 245.505H72.3158C72.7831 245.505 73.1936 245.594 73.5472 245.771C73.9072 245.947 74.1851 246.2 74.3808 246.528C74.5766 246.857 74.6745 247.242 74.6745 247.684C74.6745 248.126 74.5766 248.511 74.3808 248.84C74.1851 249.168 73.9072 249.421 73.5472 249.598C73.1936 249.774 72.7831 249.863 72.3158 249.863H70.7528V252.562H69.8245V245.505ZM72.3442 249.01C72.7673 249.01 73.1052 248.89 73.3578 248.65C73.6104 248.41 73.7367 248.088 73.7367 247.684C73.7367 247.28 73.6104 246.958 73.3578 246.718C73.1052 246.478 72.7673 246.358 72.3442 246.358H70.7528V249.01H72.3442ZM75.8257 245.392H76.7067V252.562H75.8257V245.392ZM79.5703 252.676C79.0651 252.676 78.6546 252.544 78.3388 252.278C78.0231 252.007 77.8652 251.656 77.8652 251.227C77.8652 250.81 78.001 250.463 78.2725 250.185C78.5504 249.901 78.9703 249.711 79.5324 249.617L81.2753 249.332V249.096C81.2753 248.818 81.1711 248.593 80.9627 248.423C80.7543 248.246 80.486 248.158 80.1576 248.158C79.8671 248.158 79.6082 248.234 79.3808 248.385C79.1598 248.53 78.9956 248.726 78.8882 248.972L78.121 248.575C78.2662 248.221 78.5314 247.927 78.9167 247.694C79.3019 247.46 79.7218 247.343 80.1765 247.343C80.5617 247.343 80.9028 247.419 81.1996 247.57C81.5027 247.716 81.7363 247.921 81.9005 248.186C82.071 248.451 82.1563 248.755 82.1563 249.096V252.562H81.2943V251.899C81.1111 252.139 80.868 252.329 80.5649 252.468C80.2681 252.607 79.9365 252.676 79.5703 252.676ZM78.7935 251.198C78.7935 251.407 78.8756 251.581 79.0398 251.719C79.2103 251.858 79.4219 251.928 79.6745 251.928C79.9839 251.928 80.2586 251.862 80.4986 251.729C80.7449 251.59 80.9343 251.404 81.0669 251.17C81.2059 250.936 81.2753 250.677 81.2753 250.393V250.071L79.7313 250.327C79.1061 250.434 78.7935 250.725 78.7935 251.198ZM83.5222 247.457H84.3842V248.082C84.5358 247.842 84.7378 247.659 84.9905 247.533C85.2431 247.406 85.5272 247.343 85.843 247.343C86.2029 247.343 86.5282 247.428 86.8187 247.599C87.1092 247.763 87.3365 247.99 87.5007 248.281C87.6712 248.571 87.7565 248.897 87.7565 249.257V252.562H86.866V249.541C86.866 249.124 86.7524 248.796 86.525 248.556C86.304 248.316 86.0103 248.196 85.6441 248.196C85.2778 248.196 84.9778 248.319 84.7442 248.565C84.5168 248.805 84.4032 249.13 84.4032 249.541V252.562H83.5222V247.457ZM89.017 247.457H89.8791V248.082C90.0306 247.842 90.2327 247.659 90.4853 247.533C90.7379 247.406 91.0221 247.343 91.3378 247.343C91.6978 247.343 92.023 247.428 92.3135 247.599C92.604 247.763 92.8314 247.99 92.9955 248.281C93.1661 248.571 93.2513 248.897 93.2513 249.257V252.562H92.3609V249.541C92.3609 249.124 92.2472 248.796 92.0199 248.556C91.7988 248.316 91.5052 248.196 91.1389 248.196C90.7726 248.196 90.4727 248.319 90.239 248.565C90.0117 248.805 89.898 249.13 89.898 249.541V252.562H89.017V247.457ZM96.8611 252.676C96.3812 252.676 95.9454 252.559 95.5539 252.326C95.1624 252.092 94.8561 251.773 94.635 251.369C94.414 250.958 94.3035 250.501 94.3035 249.995C94.3035 249.49 94.4109 249.036 94.6256 248.631C94.8466 248.227 95.1434 247.911 95.516 247.684C95.8949 247.457 96.318 247.343 96.7853 247.343C97.2716 247.343 97.6947 247.457 98.0547 247.684C98.4209 247.911 98.6988 248.215 98.8882 248.593C99.084 248.966 99.1819 249.367 99.1819 249.796C99.1819 249.942 99.1661 250.1 99.1345 250.27H95.2318C95.2444 250.592 95.3265 250.873 95.4781 251.113C95.6297 251.353 95.8254 251.539 96.0654 251.672C96.3117 251.805 96.5801 251.871 96.8706 251.871C97.4895 251.871 97.9662 251.59 98.3009 251.028L99.0398 251.407C98.8756 251.773 98.5978 252.076 98.2062 252.316C97.8147 252.556 97.3663 252.676 96.8611 252.676ZM98.2252 249.512C98.2125 249.114 98.0673 248.786 97.7894 248.527C97.5179 248.262 97.1832 248.129 96.7853 248.129C96.3938 248.129 96.0559 248.256 95.7718 248.508C95.4876 248.755 95.3139 249.089 95.2508 249.512H98.2252ZM102.651 252.676C102.178 252.676 101.748 252.559 101.363 252.326C100.978 252.092 100.675 251.773 100.454 251.369C100.233 250.965 100.122 250.513 100.122 250.014C100.122 249.515 100.233 249.064 100.454 248.66C100.675 248.249 100.978 247.927 101.363 247.694C101.748 247.46 102.178 247.343 102.651 247.343C103.024 247.343 103.359 247.413 103.655 247.551C103.959 247.69 104.211 247.886 104.413 248.139V245.392H105.304V252.562H104.442V251.814C104.252 252.086 104 252.297 103.684 252.449C103.374 252.6 103.03 252.676 102.651 252.676ZM101.05 250.014C101.05 250.355 101.123 250.665 101.268 250.943C101.414 251.214 101.612 251.429 101.865 251.587C102.124 251.745 102.411 251.824 102.727 251.824C103.043 251.824 103.327 251.745 103.58 251.587C103.839 251.429 104.041 251.214 104.186 250.943C104.337 250.665 104.413 250.355 104.413 250.014C104.413 249.673 104.337 249.364 104.186 249.086C104.041 248.808 103.839 248.59 103.58 248.432C103.327 248.275 103.043 248.196 102.727 248.196C102.411 248.196 102.124 248.275 101.865 248.432C101.612 248.59 101.414 248.808 101.268 249.086C101.123 249.364 101.05 249.673 101.05 250.014Z" fill="#68686A"/>
<circle cx="43.3013" cy="238.856" r="16.2388" fill="#1D2124"/>
<path d="M43.3013 234.793V239.191L41.2715 241.559" stroke="white" stroke-width="0.676615"/>
<path d="M36.6367 240.031C36.7729 240.808 37.0455 241.555 37.4419 242.237" stroke="white" stroke-width="0.676615"/>
<path d="M37.4419 235.469C37.0455 236.151 36.7729 236.898 36.6367 237.675" stroke="white" stroke-width="0.676615"/>
<path d="M40.9869 232.492C40.2469 232.763 39.5599 233.162 38.957 233.669" stroke="white" stroke-width="0.676615"/>
<path d="M38.9512 244.035C39.7844 244.734 40.7738 245.222 41.8357 245.458C42.8976 245.693 44.0007 245.669 45.0513 245.388C46.102 245.106 47.0693 244.576 47.8714 243.841C48.6734 243.106 49.2864 242.189 49.6586 241.167C50.0307 240.145 50.1509 239.048 50.0091 237.97C49.8673 236.891 49.4675 235.863 48.8438 234.972C48.22 234.081 47.3906 233.353 46.4259 232.851C45.4611 232.349 44.3895 232.086 43.3018 232.086" stroke="white" stroke-width="0.676615"/>
</svg>
