<svg width="140" height="36" viewBox="0 0 140 36" fill="none" xmlns="http://www.w3.org/2000/svg">
<path d="M16.5904 35.3415C22.0784 35.3415 25.9004 33.6265 28.6934 31.2745V27.2565H25.9984C24.1364 29.8045 21.2944 31.6175 16.7864 31.6175C10.1224 31.6175 6.25144 26.9135 6.25144 17.6525C6.25144 8.24447 10.9064 4.17747 17.0314 4.17747C20.1184 4.17747 22.2254 5.15747 23.6464 6.33347L24.2344 11.1845H28.1054V0.698467H24.5284C24.4794 1.23747 24.1364 1.62947 23.7444 1.62947C22.7644 1.18847 20.9024 0.355469 16.8844 0.355469C7.18244 0.355469 0.273438 6.48047 0.273438 17.8485C0.273438 29.2165 6.69244 35.3415 16.5904 35.3415Z" fill="#666469"/>
<path d="M30.0597 34.9985H42.6527V31.8625H38.5857V16.2805C40.4967 14.6145 42.7507 13.6835 46.6707 13.6835H47.6997V9.32247C47.3077 9.22447 46.8177 9.12647 46.2297 9.12647C42.6527 9.12647 40.3987 11.2825 38.5857 13.5855V12.7525C38.5857 9.95947 38.0957 9.32247 37.3607 9.32247H29.8637V12.6545H31.9707C32.6077 12.6545 33.2937 13.4385 33.2937 14.0265V30.5395C33.2937 31.1765 32.6077 31.8625 31.9707 31.8625H30.0597V34.9985Z" fill="#666469"/>
<path d="M60.6039 35.2925C65.7489 35.2925 68.6399 33.9695 70.6489 32.6465V29.0205H67.6109C66.2879 30.6375 64.6219 31.9115 60.9959 31.9115C55.8999 31.9115 53.3029 28.9715 53.1069 22.9935H71.3839C71.3839 22.7975 71.4329 22.1115 71.4329 21.3765C71.4329 12.8015 67.2679 9.02847 60.0649 9.02847C52.6169 9.02847 47.5699 14.1245 47.5699 22.2585C47.5699 30.2945 51.9799 35.2925 60.6039 35.2925ZM53.2049 19.8085C53.6949 14.7615 56.1939 12.3115 60.0649 12.3115C63.7889 12.3115 65.8959 14.3695 66.0919 19.8085H53.2049Z" fill="#666469"/>
<path d="M82.5226 35.3415C86.6876 35.3415 89.7746 33.7245 92.4206 31.3725V32.0095C92.4206 34.4105 92.9106 34.9985 93.5966 34.9985H100.996V31.8625H99.0356C98.3496 31.8625 97.6636 31.1275 97.6636 30.4905V9.32247H88.6966V12.6545H92.3716V28.9225C90.3136 30.2945 87.7166 31.4705 85.0706 31.4705C82.6696 31.4705 80.9546 30.6375 80.9546 27.3055V9.32247H72.4286V12.6545H74.3396C74.9766 12.6545 75.6626 13.3405 75.6626 13.9775V28.9715C75.6626 33.9205 78.9456 35.3415 82.5226 35.3415Z" fill="#666469"/>
<path d="M109.229 34.9985H114.227L119.764 16.2315H119.862L125.35 34.9985H130.348L136.375 14.2715C136.718 13.1445 137.502 12.6545 138.384 12.6545H139.315V9.32247H129.123V12.6545H130.348C132.063 12.6545 132.455 13.5855 131.916 15.4965L128.339 28.4815H128.241L122.704 9.32247H118.147L112.61 28.4815H112.512L108.2 12.6545H111.14V9.32247H100.458V12.6545H101.487C102.271 12.6545 103.006 13.2915 103.3 14.2225L109.229 34.9985Z" fill="#666469"/>
</svg>
