<svg width="32" height="32" viewBox="0 0 32 32" fill="none" xmlns="http://www.w3.org/2000/svg">
<path d="M29 14.6667C29 14.1144 28.5523 13.6667 28 13.6667C27.4477 13.6667 27 14.1144 27 14.6667H29ZM17.3333 5C17.8856 5 18.3333 4.55228 18.3333 4C18.3333 3.44772 17.8856 3 17.3333 3V5ZM22.6667 27H9.33333V29H22.6667V27ZM5 22.6667V9.33333H3V22.6667H5ZM27 14.6667V22.6667H29V14.6667H27ZM9.33333 5H17.3333V3H9.33333V5ZM9.33333 27C6.9401 27 5 25.0599 5 22.6667H3C3 26.1645 5.83553 29 9.33333 29V27ZM22.6667 29C26.1645 29 29 26.1645 29 22.6667H27C27 25.0599 25.0599 27 22.6667 27V29ZM5 9.33333C5 6.9401 6.9401 5 9.33333 5V3C5.83553 3 3 5.83553 3 9.33333H5Z" fill="#E5BCE6"/>
<path d="M23.8969 4.70398L23.1898 3.99687L23.1898 3.99687L23.8969 4.70398ZM25.5965 4L25.5965 3L25.5965 4ZM27.296 8.1031L26.5889 7.39599L26.5889 7.39599L27.296 8.1031ZM16.5322 18.867L16.7747 19.8371C16.9505 19.7931 17.1111 19.7022 17.2393 19.5741L16.5322 18.867ZM12 20L11.0299 19.7575C10.9447 20.0982 11.0445 20.4587 11.2929 20.7071C11.5413 20.9555 11.9018 21.0553 12.2425 20.9701L12 20ZM13.133 15.4678L12.4259 14.7607C12.2978 14.8889 12.2069 15.0495 12.1629 15.2253L13.133 15.4678ZM24.604 5.41109C24.8672 5.14787 25.2242 5 25.5965 5L25.5965 3C24.6938 3 23.8281 3.35859 23.1898 3.99687L24.604 5.41109ZM25.5965 5C25.9687 5 26.3257 5.14787 26.5889 5.41109L28.0031 3.99687C27.3648 3.35859 26.4991 3 25.5965 3L25.5965 5ZM26.5889 5.41109C26.8521 5.6743 27 6.0313 27 6.40354L29 6.40354C29 5.50086 28.6414 4.63516 28.0031 3.99687L26.5889 5.41109ZM27 6.40354C27 6.77578 26.8521 7.13277 26.5889 7.39599L28.0031 8.8102C28.6414 8.17191 29 7.30621 29 6.40354L27 6.40354ZM26.5889 7.39599L15.825 18.1599L17.2393 19.5741L28.0031 8.8102L26.5889 7.39599ZM16.2896 17.8968L11.7575 19.0299L12.2425 20.9701L16.7747 19.8371L16.2896 17.8968ZM12.9701 20.2425L14.1032 15.7104L12.1629 15.2253L11.0299 19.7575L12.9701 20.2425ZM13.8401 16.175L24.604 5.41109L23.1898 3.99687L12.4259 14.7607L13.8401 16.175Z" fill="#E5BCE6"/>
<path d="M22.0391 7.29289C21.6486 6.90237 21.0154 6.90237 20.6249 7.29289C20.2344 7.68342 20.2344 8.31658 20.6249 8.70711L22.0391 7.29289ZM23.2916 11.3738C23.6821 11.7643 24.3153 11.7643 24.7058 11.3738C25.0963 10.9832 25.0963 10.3501 24.7058 9.95956L23.2916 11.3738ZM20.6249 8.70711L23.2916 11.3738L24.7058 9.95956L22.0391 7.29289L20.6249 8.70711Z" fill="#E5BCE6"/>
</svg>
