<svg width="294" height="364" viewBox="0 0 294 364" fill="none" xmlns="http://www.w3.org/2000/svg">
<path d="M61.802 350.963L61.0776 350.769L60.8834 351.493L25.6562 482.963L25.4621 483.688L26.1866 483.882C221.042 536.093 421.327 420.463 473.537 225.614C525.746 30.7656 410.109 -169.516 215.254 -221.727L214.529 -221.921L214.335 -221.197L179.108 -89.7271L178.914 -89.0026L179.638 -88.8085C301.082 -56.2678 373.153 68.558 340.614 189.998C308.074 311.437 183.246 383.504 61.802 350.963ZM112.602 54.7113L112.796 53.9868L112.072 53.7927C48.543 36.7703 0.507331 -40.8909 24.9473 -132.102L25.1414 -132.826L24.4169 -133.02L-107.057 -168.249L-107.782 -168.443L-107.976 -167.719C-148.088 -18.0182 -74.5643 146.246 76.4561 186.711L77.1805 186.905L77.3747 186.181L112.602 54.7113Z" stroke="#212427" stroke-width="1.5"/>
</svg>
