<svg width="32" height="32" viewBox="0 0 32 32" fill="none" xmlns="http://www.w3.org/2000/svg">
<path d="M28 16C28 22.6274 22.6274 28 16 28C9.37258 28 4 22.6274 4 16C4 9.37258 9.37258 4 16 4C22.6274 4 28 9.37258 28 16Z" stroke="#E5BCE6" stroke-width="2"/>
<path d="M21.3346 16C21.3346 22.6274 18.9468 28 16.0013 28C13.0558 28 10.668 22.6274 10.668 16C10.668 9.37258 13.0558 4 16.0013 4C18.9468 4 21.3346 9.37258 21.3346 16Z" stroke="#E5BCE6" stroke-width="2"/>
<path d="M26.6654 22.3934C24.2846 20.9403 20.4875 20 16.2098 20C11.6695 20 7.67058 21.0593 5.33203 22.6667" stroke="#E5BCE6" stroke-width="2"/>
<path d="M26.6654 9.45178C24.3329 10.994 20.4633 12.0026 16.0841 12.0026C11.5963 12.0026 7.64356 10.9433 5.33203 9.33594" stroke="#E5BCE6" stroke-width="2"/>
</svg>
