<svg width="274" height="125" viewBox="0 0 274 125" fill="none" xmlns="http://www.w3.org/2000/svg">
<rect width="273.352" height="124.497" rx="27.0646" fill="#131415"/>
<path d="M42.6013 67.9988C49.27 67.9988 53.6003 63.8416 53.6003 57.5194C53.6003 51.5435 49.4865 47.473 43.5106 47.473C41.3888 47.473 39.1803 48.3824 37.7946 49.6382L38.9205 42.4065H51.3485V37.34H34.6335L32.1219 54.2716L36.3656 55.181C37.7513 53.1457 39.6133 52.1064 42.0383 52.1064C45.5026 52.1064 47.7111 54.185 47.7111 57.5194C47.7111 60.7238 45.5892 62.889 42.3848 62.889C39.4401 62.889 37.275 61.2434 36.712 58.6019L31.3857 59.5979C32.2085 64.6644 36.6254 67.9988 42.6013 67.9988ZM61.8638 67.6523H67.32V37.34H62.8165C60.608 39.5052 57.7067 41.1507 54.892 41.8002L54.892 47.04C57.5768 46.5203 59.7853 45.481 61.8638 43.8355L61.8638 67.6523Z" fill="white"/>
<path d="M37.2198 83.2907V91.1641H36.128L32.126 85.3898H32.0529V91.1641H30.865L30.865 83.2907H31.9645L35.9704 89.0727H36.0434V83.2907H37.2198ZM41.4054 91.2832C40.8236 91.2832 40.3225 91.1589 39.9022 90.9103C39.4845 90.6592 39.1615 90.3068 38.9334 89.8531C38.7079 89.3969 38.5951 88.8625 38.5951 88.25C38.5951 87.6452 38.7079 87.1121 38.9334 86.6507C39.1615 86.1894 39.4793 85.8293 39.8868 85.5705C40.2969 85.3116 40.7762 85.1822 41.3246 85.1822C41.6578 85.1822 41.9808 85.2373 42.2934 85.3475C42.6061 85.4577 42.8868 85.6307 43.1354 85.8665C43.384 86.1023 43.58 86.4085 43.7236 86.7853C43.8671 87.1595 43.9388 87.6144 43.9388 88.1501V88.5576H39.2448V87.6964H42.8124C42.8124 87.394 42.7509 87.1262 42.6279 86.8929C42.5049 86.6571 42.3319 86.4713 42.1089 86.3355C41.8885 86.1997 41.6296 86.1317 41.3323 86.1317C41.0094 86.1317 40.7275 86.2112 40.4866 86.3701C40.2482 86.5264 40.0637 86.7315 39.933 86.9852C39.8048 87.2364 39.7408 87.5093 39.7408 87.8041V88.4768C39.7408 88.8715 39.81 89.2073 39.9484 89.4841C40.0893 89.7609 40.2854 89.9723 40.5365 90.1184C40.7877 90.2619 41.0812 90.3337 41.4169 90.3337C41.6348 90.3337 41.8334 90.3029 42.0128 90.2414C42.1922 90.1773 42.3473 90.0825 42.478 89.9569C42.6087 89.8313 42.7086 89.6763 42.7778 89.4917L43.8658 89.6878C43.7787 90.0082 43.6223 90.2888 43.3968 90.5297C43.1738 90.7681 42.8932 90.9539 42.5549 91.0872C42.2191 91.2179 41.836 91.2832 41.4054 91.2832ZM46.4838 91.1641L44.7462 85.2591H45.9341L47.0912 89.5955H47.1489L48.3099 85.2591H49.4978L50.6512 89.5763H50.7088L51.8583 85.2591H53.0462L51.3124 91.1641H50.1399L48.9404 86.9006H48.852L47.6525 91.1641H46.4838ZM59.4894 91.2832C58.9359 91.2832 58.4527 91.1564 58.0401 90.9026C57.6275 90.6489 57.3071 90.2939 57.079 89.8377C56.8509 89.3815 56.7369 88.8485 56.7369 88.2385C56.7369 87.6259 56.8509 87.0903 57.079 86.6315C57.3071 86.1727 57.6275 85.8165 58.0401 85.5628C58.4527 85.309 58.9359 85.1822 59.4894 85.1822C60.043 85.1822 60.5262 85.309 60.9388 85.5628C61.3514 85.8165 61.6718 86.1727 61.8999 86.6315C62.128 87.0903 62.242 87.6259 62.242 88.2385C62.242 88.8485 62.128 89.3815 61.8999 89.8377C61.6718 90.2939 61.3514 90.6489 60.9388 90.9026C60.5262 91.1564 60.043 91.2832 59.4894 91.2832ZM59.4933 90.3183C59.8521 90.3183 60.1494 90.2235 60.3852 90.0338C60.621 89.8442 60.7953 89.5917 60.908 89.2765C61.0234 88.9612 61.081 88.6139 61.081 88.2346C61.081 87.8579 61.0234 87.5119 60.908 87.1966C60.7953 86.8788 60.621 86.6238 60.3852 86.4316C60.1494 86.2394 59.8521 86.1433 59.4933 86.1433C59.1319 86.1433 58.8321 86.2394 58.5937 86.4316C58.3579 86.6238 58.1823 86.8788 58.067 87.1966C57.9542 87.5119 57.8979 87.8579 57.8979 88.2346C57.8979 88.6139 57.9542 88.9612 58.067 89.2765C58.1823 89.5917 58.3579 89.8442 58.5937 90.0338C58.8321 90.2235 59.1319 90.3183 59.4933 90.3183ZM63.5251 91.1641V85.2591H64.6361V86.1971H64.6976C64.8053 85.8793 64.9949 85.6294 65.2666 85.4474C65.5409 85.2629 65.851 85.1706 66.197 85.1706C66.2687 85.1706 66.3533 85.1732 66.4507 85.1783C66.5506 85.1835 66.6288 85.1899 66.6852 85.1976V86.297C66.6391 86.2842 66.5571 86.2701 66.4392 86.2548C66.3213 86.2368 66.2034 86.2279 66.0855 86.2279C65.8138 86.2279 65.5716 86.2855 65.3589 86.4008C65.1487 86.5136 64.9821 86.6712 64.8591 86.8737C64.7361 87.0736 64.6746 87.3017 64.6746 87.558V91.1641H63.5251ZM69.679 91.2794C69.2023 91.2794 68.7769 91.1577 68.4027 90.9142C68.0311 90.6681 67.7389 90.3183 67.5262 89.8647C67.316 89.4085 67.2109 88.8613 67.2109 88.2231C67.2109 87.5849 67.3173 87.039 67.53 86.5854C67.7453 86.1317 68.04 85.7845 68.4142 85.5435C68.7884 85.3026 69.2126 85.1822 69.6867 85.1822C70.0532 85.1822 70.348 85.2437 70.5709 85.3667C70.7965 85.4872 70.9707 85.6281 71.0938 85.7896C71.2194 85.9511 71.3167 86.0933 71.3859 86.2163H71.4551V83.2907H72.6046V91.1641H71.4821V90.2453H71.3859C71.3167 90.3708 71.2168 90.5144 71.0861 90.6758C70.9579 90.8373 70.7811 90.9782 70.5556 91.0987C70.33 91.2192 70.0378 91.2794 69.679 91.2794ZM69.9328 90.2991C70.2634 90.2991 70.5427 90.2119 70.7708 90.0377C71.0015 89.8608 71.1758 89.6161 71.2937 89.3034C71.4141 88.9907 71.4744 88.6268 71.4744 88.2116C71.4744 87.8015 71.4154 87.4427 71.2975 87.1351C71.1796 86.8276 71.0066 86.5879 70.7785 86.4162C70.5504 86.2445 70.2685 86.1587 69.9328 86.1587C69.5868 86.1587 69.2984 86.2484 69.0678 86.4278C68.8371 86.6072 68.6628 86.8519 68.5449 87.162C68.4296 87.4722 68.3719 87.822 68.3719 88.2116C68.3719 88.6063 68.4309 88.9612 68.5488 89.2765C68.6667 89.5917 68.841 89.8416 69.0716 90.0261C69.3048 90.2081 69.5919 90.2991 69.9328 90.2991ZM76.7902 91.2832C76.2084 91.2832 75.7074 91.1589 75.2871 90.9103C74.8693 90.6592 74.5464 90.3068 74.3183 89.8531C74.0927 89.3969 73.98 88.8625 73.98 88.25C73.98 87.6452 74.0927 87.1121 74.3183 86.6507C74.5464 86.1894 74.8642 85.8293 75.2717 85.5705C75.6817 85.3116 76.161 85.1822 76.7095 85.1822C77.0427 85.1822 77.3656 85.2373 77.6783 85.3475C77.9909 85.4577 78.2716 85.6307 78.5202 85.8665C78.7688 86.1023 78.9649 86.4085 79.1084 86.7853C79.2519 87.1595 79.3237 87.6144 79.3237 88.1501V88.5576H74.6297V87.6964H78.1973C78.1973 87.394 78.1358 87.1262 78.0127 86.8929C77.8897 86.6571 77.7167 86.4713 77.4937 86.3355C77.2733 86.1997 77.0145 86.1317 76.7172 86.1317C76.3942 86.1317 76.1123 86.2112 75.8714 86.3701C75.633 86.5264 75.4485 86.7315 75.3178 86.9852C75.1897 87.2364 75.1256 87.5093 75.1256 87.8041V88.4768C75.1256 88.8715 75.1948 89.2073 75.3332 89.4841C75.4741 89.7609 75.6702 89.9723 75.9214 90.1184C76.1725 90.2619 76.466 90.3337 76.8017 90.3337C77.0196 90.3337 77.2182 90.3029 77.3976 90.2414C77.577 90.1773 77.7321 90.0825 77.8628 89.9569C77.9935 89.8313 78.0935 89.6763 78.1627 89.4917L79.2506 89.6878C79.1635 90.0082 79.0072 90.2888 78.7816 90.5297C78.5586 90.7681 78.278 90.9539 77.9397 91.0872C77.6039 91.2179 77.2208 91.2832 76.7902 91.2832ZM80.5991 91.1641V85.2591H81.7101V86.1971H81.7716C81.8792 85.8793 82.0689 85.6294 82.3406 85.4474C82.6148 85.2629 82.9249 85.1706 83.2709 85.1706C83.3427 85.1706 83.4273 85.1732 83.5246 85.1783C83.6246 85.1835 83.7028 85.1899 83.7592 85.1976V86.297C83.713 86.2842 83.631 86.2701 83.5131 86.2548C83.3952 86.2368 83.2773 86.2279 83.1594 86.2279C82.8878 86.2279 82.6456 86.2855 82.4328 86.4008C82.2227 86.5136 82.0561 86.6712 81.9331 86.8737C81.81 87.0736 81.7485 87.3017 81.7485 87.558V91.1641H80.5991ZM89.1788 86.7007L88.137 86.8852C88.0934 86.752 88.0242 86.6251 87.9294 86.5046C87.8371 86.3842 87.7115 86.2855 87.5526 86.2086C87.3937 86.1317 87.1951 86.0933 86.9567 86.0933C86.6312 86.0933 86.3596 86.1663 86.1417 86.3124C85.9239 86.456 85.8149 86.6418 85.8149 86.8699C85.8149 87.0672 85.888 87.2261 86.0341 87.3466C86.1802 87.467 86.416 87.5657 86.7414 87.6426L87.6795 87.8579C88.2228 87.9835 88.6278 88.177 88.8943 88.4384C89.1609 88.6998 89.2941 89.0394 89.2941 89.4571C89.2941 89.8108 89.1916 90.1261 88.9866 90.4029C88.7841 90.6771 88.5009 90.8924 88.137 91.0487C87.7756 91.2051 87.3566 91.2832 86.8798 91.2832C86.2186 91.2832 85.6791 91.1423 85.2614 90.8604C84.8436 90.5759 84.5873 90.1722 84.4925 89.6494L85.6035 89.4802C85.6727 89.7698 85.8149 89.989 86.0302 90.1376C86.2455 90.2837 86.5262 90.3567 86.8722 90.3567C87.2489 90.3567 87.5501 90.2786 87.7756 90.1222C88.0011 89.9633 88.1139 89.7698 88.1139 89.5417C88.1139 89.3572 88.0447 89.2021 87.9063 89.0766C87.7705 88.951 87.5616 88.8561 87.2797 88.7921L86.2801 88.5729C85.7291 88.4474 85.3216 88.2474 85.0576 87.9732C84.7962 87.699 84.6655 87.3517 84.6655 86.9314C84.6655 86.5828 84.7629 86.2778 84.9576 86.0164C85.1524 85.755 85.4215 85.5512 85.765 85.4051C86.1084 85.2565 86.5018 85.1822 86.9452 85.1822C87.5834 85.1822 88.0857 85.3206 88.4522 85.5974C88.8187 85.8716 89.0609 86.2394 89.1788 86.7007ZM96.1795 85.2591V86.1817H92.954V85.2591H96.1795ZM93.819 83.8443H94.9685V89.4302C94.9685 89.6532 95.0018 89.8211 95.0684 89.9339C95.1351 90.0441 95.2209 90.1197 95.326 90.1607C95.4336 90.1991 95.5503 90.2183 95.6758 90.2183C95.7681 90.2183 95.8488 90.2119 95.918 90.1991C95.9872 90.1863 96.0411 90.1761 96.0795 90.1684L96.2871 91.1179C96.2205 91.1436 96.1256 91.1692 96.0026 91.1948C95.8796 91.223 95.7258 91.2384 95.5413 91.241C95.2389 91.2461 94.9569 91.1923 94.6955 91.0795C94.4341 90.9667 94.2227 90.7924 94.0612 90.5566C93.8997 90.3209 93.819 90.0248 93.819 89.6686V83.8443ZM98.7273 87.658V91.1641H97.5779V83.2907H98.712V86.2202H98.785C98.9234 85.9024 99.1348 85.6499 99.4193 85.4628C99.7038 85.2757 100.075 85.1822 100.534 85.1822C100.939 85.1822 101.293 85.2655 101.595 85.4321C101.9 85.5987 102.136 85.8473 102.303 86.1779C102.472 86.5059 102.556 86.916 102.556 87.4081V91.1641H101.407V87.5465C101.407 87.1133 101.295 86.7776 101.072 86.5392C100.849 86.2983 100.539 86.1779 100.142 86.1779C99.8704 86.1779 99.6269 86.2355 99.4116 86.3509C99.1989 86.4662 99.031 86.6354 98.908 86.8583C98.7876 87.0787 98.7273 87.3453 98.7273 87.658ZM104.09 91.1641V85.2591H105.24V91.1641H104.09ZM104.671 84.3479C104.471 84.3479 104.299 84.2813 104.156 84.148C104.015 84.0122 103.944 83.8507 103.944 83.6636C103.944 83.474 104.015 83.3125 104.156 83.1792C104.299 83.0434 104.471 82.9755 104.671 82.9755C104.871 82.9755 105.041 83.0434 105.182 83.1792C105.326 83.3125 105.397 83.474 105.397 83.6636C105.397 83.8507 105.326 84.0122 105.182 84.148C105.041 84.2813 104.871 84.3479 104.671 84.3479ZM111.211 86.7007L110.169 86.8852C110.126 86.752 110.056 86.6251 109.962 86.5046C109.869 86.3842 109.744 86.2855 109.585 86.2086C109.426 86.1317 109.227 86.0933 108.989 86.0933C108.664 86.0933 108.392 86.1663 108.174 86.3124C107.956 86.456 107.847 86.6418 107.847 86.8699C107.847 87.0672 107.92 87.2261 108.066 87.3466C108.212 87.467 108.448 87.5657 108.774 87.6426L109.712 87.8579C110.255 87.9835 110.66 88.177 110.927 88.4384C111.193 88.6998 111.326 89.0394 111.326 89.4571C111.326 89.8108 111.224 90.1261 111.019 90.4029C110.816 90.6771 110.533 90.8924 110.169 91.0487C109.808 91.2051 109.389 91.2832 108.912 91.2832C108.251 91.2832 107.711 91.1423 107.294 90.8604C106.876 90.5759 106.62 90.1722 106.525 89.6494L107.636 89.4802C107.705 89.7698 107.847 89.989 108.063 90.1376C108.278 90.2837 108.558 90.3567 108.904 90.3567C109.281 90.3567 109.582 90.2786 109.808 90.1222C110.033 89.9633 110.146 89.7698 110.146 89.5417C110.146 89.3572 110.077 89.2021 109.939 89.0766C109.803 88.951 109.594 88.8561 109.312 88.7921L108.312 88.5729C107.761 88.4474 107.354 88.2474 107.09 87.9732C106.828 87.699 106.698 87.3517 106.698 86.9314C106.698 86.5828 106.795 86.2778 106.99 86.0164C107.185 85.755 107.454 85.5512 107.797 85.4051C108.141 85.2565 108.534 85.1822 108.977 85.1822C109.616 85.1822 110.118 85.3206 110.484 85.5974C110.851 85.8716 111.093 86.2394 111.211 86.7007ZM116.735 91.1641L114.998 85.2591H116.186L117.343 89.5955H117.401L118.562 85.2591H119.749L120.903 89.5763H120.96L122.11 85.2591H123.298L121.564 91.1641H120.391L119.192 86.9006H119.104L117.904 91.1641H116.735ZM126.754 91.2832C126.172 91.2832 125.671 91.1589 125.251 90.9103C124.833 90.6592 124.51 90.3068 124.282 89.8531C124.056 89.3969 123.944 88.8625 123.944 88.25C123.944 87.6452 124.056 87.1121 124.282 86.6507C124.51 86.1894 124.828 85.8293 125.235 85.5705C125.646 85.3116 126.125 85.1822 126.673 85.1822C127.006 85.1822 127.329 85.2373 127.642 85.3475C127.955 85.4577 128.235 85.6307 128.484 85.8665C128.733 86.1023 128.929 86.4085 129.072 86.7853C129.216 87.1595 129.287 87.6144 129.287 88.1501V88.5576H124.593V87.6964H128.161C128.161 87.394 128.1 87.1262 127.977 86.8929C127.853 86.6571 127.68 86.4713 127.458 86.3355C127.237 86.1997 126.978 86.1317 126.681 86.1317C126.358 86.1317 126.076 86.2112 125.835 86.3701C125.597 86.5264 125.412 86.7315 125.282 86.9852C125.153 87.2364 125.089 87.5093 125.089 87.8041V88.4768C125.089 88.8715 125.159 89.2073 125.297 89.4841C125.438 89.7609 125.634 89.9723 125.885 90.1184C126.136 90.2619 126.43 90.3337 126.766 90.3337C126.983 90.3337 127.182 90.3029 127.361 90.2414C127.541 90.1773 127.696 90.0825 127.827 89.9569C127.957 89.8313 128.057 89.6763 128.126 89.4917L129.214 89.6878C129.127 90.0082 128.971 90.2888 128.745 90.5297C128.522 90.7681 128.242 90.9539 127.903 91.0872C127.568 91.2179 127.185 91.2832 126.754 91.2832ZM133.108 91.2832C132.526 91.2832 132.025 91.1589 131.605 90.9103C131.187 90.6592 130.864 90.3068 130.636 89.8531C130.41 89.3969 130.298 88.8625 130.298 88.25C130.298 87.6452 130.41 87.1121 130.636 86.6507C130.864 86.1894 131.182 85.8293 131.589 85.5705C131.999 85.3116 132.479 85.1822 133.027 85.1822C133.36 85.1822 133.683 85.2373 133.996 85.3475C134.309 85.4577 134.589 85.6307 134.838 85.8665C135.086 86.1023 135.282 86.4085 135.426 86.7853C135.57 87.1595 135.641 87.6144 135.641 88.1501V88.5576H130.947V87.6964H134.515C134.515 87.394 134.453 87.1262 134.33 86.8929C134.207 86.6571 134.034 86.4713 133.811 86.3355C133.591 86.1997 133.332 86.1317 133.035 86.1317C132.712 86.1317 132.43 86.2112 132.189 86.3701C131.951 86.5264 131.766 86.7315 131.635 86.9852C131.507 87.2364 131.443 87.5093 131.443 87.8041V88.4768C131.443 88.8715 131.512 89.2073 131.651 89.4841C131.792 89.7609 131.988 89.9723 132.239 90.1184C132.49 90.2619 132.784 90.3337 133.119 90.3337C133.337 90.3337 133.536 90.3029 133.715 90.2414C133.895 90.1773 134.05 90.0825 134.18 89.9569C134.311 89.8313 134.411 89.6763 134.48 89.4917L135.568 89.6878C135.481 90.0082 135.325 90.2888 135.099 90.5297C134.876 90.7681 134.596 90.9539 134.257 91.0872C133.922 91.2179 133.538 91.2832 133.108 91.2832ZM137.974 89.1611L137.966 87.7579H138.166L140.519 85.2591H141.895L139.212 88.1039H139.031L137.974 89.1611ZM136.917 91.1641V83.2907H138.066V91.1641H136.917ZM140.646 91.1641L138.531 88.3576L139.323 87.5542L142.057 91.1641H140.646Z" fill="#9A9A9A"/>
<rect x="187" y="34" width="56" height="57" rx="8" fill="#1D2124"/>
<path d="M226 48L216.5 57.5L211.5 52.5L204 60" stroke="#81DBBA" stroke-width="2" stroke-linecap="round" stroke-linejoin="round"/>
<path d="M220 48H226V54" stroke="#81DBBA" stroke-width="2" stroke-linecap="round" stroke-linejoin="round"/>
<path d="M206.513 79.0994C206.068 79.0994 205.668 79.0142 205.313 78.8438C204.96 78.6709 204.678 78.4342 204.468 78.1335C204.257 77.8329 204.145 77.4896 204.13 77.1037H205.196C205.222 77.4162 205.36 77.6731 205.611 77.8743C205.862 78.0755 206.163 78.1761 206.513 78.1761C206.793 78.1761 207.04 78.1122 207.255 77.9844C207.473 77.8542 207.644 77.6754 207.767 77.4482C207.892 77.2209 207.955 76.9616 207.955 76.6705C207.955 76.3745 207.891 76.1106 207.763 75.8786C207.635 75.6465 207.459 75.4643 207.234 75.3317C207.012 75.1991 206.756 75.1316 206.467 75.1293C206.247 75.1293 206.026 75.1671 205.803 75.2429C205.58 75.3187 205.401 75.4181 205.263 75.5412L204.258 75.392L204.667 71.7273H208.665V72.6683H205.579L205.348 74.7031H205.391C205.533 74.5658 205.721 74.451 205.956 74.3587C206.192 74.2663 206.446 74.2202 206.716 74.2202C207.158 74.2202 207.553 74.3255 207.898 74.5362C208.246 74.7469 208.52 75.0346 208.718 75.3991C208.92 75.7614 209.019 76.178 209.017 76.6491C209.019 77.1203 208.913 77.5405 208.697 77.9098C208.484 78.2791 208.188 78.5703 207.809 78.7834C207.433 78.9941 207.001 79.0994 206.513 79.0994ZM211.446 78.0057L211.392 78.3928C211.357 78.6768 211.297 78.9728 211.211 79.2805C211.129 79.5907 211.042 79.8783 210.952 80.1435C210.865 80.4086 210.792 80.6193 210.736 80.7756H209.983C210.013 80.6288 210.056 80.4299 210.111 80.179C210.165 79.9304 210.218 79.6522 210.27 79.3445C210.322 79.0367 210.361 78.723 210.388 78.4034L210.423 78.0057H211.446ZM215.144 79.0994C214.635 79.0994 214.185 79.0118 213.795 78.8366C213.407 78.6615 213.102 78.42 212.882 78.1122C212.662 77.8045 212.553 77.4541 212.555 77.0611C212.553 76.7533 212.616 76.4704 212.744 76.2124C212.874 75.9519 213.05 75.7353 213.273 75.5625C213.495 75.3873 213.744 75.276 214.019 75.2287V75.1861C213.656 75.0985 213.366 74.9044 213.149 74.6037C212.931 74.303 212.823 73.9574 212.825 73.5668C212.823 73.1951 212.921 72.8636 213.12 72.5724C213.321 72.2789 213.597 72.0481 213.948 71.88C214.298 71.7119 214.697 71.6278 215.144 71.6278C215.587 71.6278 215.982 71.7131 216.33 71.8835C216.681 72.0516 216.957 72.2824 217.158 72.576C217.359 72.8672 217.461 73.1974 217.463 73.5668C217.461 73.9574 217.35 74.303 217.129 74.6037C216.909 74.9044 216.623 75.0985 216.27 75.1861V75.2287C216.542 75.276 216.787 75.3873 217.005 75.5625C217.225 75.7353 217.4 75.9519 217.531 76.2124C217.663 76.4704 217.731 76.7533 217.733 77.0611C217.731 77.4541 217.619 77.8045 217.399 78.1122C217.179 78.42 216.874 78.6615 216.483 78.8366C216.095 79.0118 215.649 79.0994 215.144 79.0994ZM215.144 78.201C215.445 78.201 215.705 78.1513 215.926 78.0518C216.146 77.95 216.316 77.8092 216.437 77.6293C216.558 77.447 216.619 77.2339 216.622 76.9901C216.619 76.7367 216.553 76.513 216.423 76.3189C216.295 76.1248 216.121 75.9721 215.901 75.8608C215.68 75.7495 215.428 75.6939 215.144 75.6939C214.858 75.6939 214.603 75.7495 214.381 75.8608C214.158 75.9721 213.983 76.1248 213.855 76.3189C213.727 76.513 213.665 76.7367 213.667 76.9901C213.665 77.2339 213.723 77.447 213.841 77.6293C213.962 77.8092 214.133 77.95 214.356 78.0518C214.578 78.1513 214.841 78.201 215.144 78.201ZM215.144 74.8168C215.386 74.8168 215.6 74.7682 215.787 74.6712C215.974 74.5741 216.121 74.4392 216.227 74.2663C216.336 74.0935 216.392 73.8911 216.394 73.6591C216.392 73.4318 216.337 73.233 216.231 73.0625C216.127 72.892 215.981 72.7607 215.794 72.6683C215.607 72.5736 215.39 72.5263 215.144 72.5263C214.893 72.5263 214.673 72.5736 214.484 72.6683C214.297 72.7607 214.151 72.892 214.047 73.0625C213.943 73.233 213.892 73.4318 213.894 73.6591C213.892 73.8911 213.944 74.0935 214.051 74.2663C214.157 74.4392 214.304 74.5741 214.491 74.6712C214.68 74.7682 214.898 74.8168 215.144 74.8168ZM222.801 77.6364V77.2528C222.801 76.9782 222.858 76.7273 222.972 76.5C223.088 76.2704 223.256 76.0869 223.476 75.9496C223.699 75.8099 223.967 75.7401 224.282 75.7401C224.604 75.7401 224.874 75.8087 225.092 75.946C225.31 76.0833 225.474 76.2668 225.585 76.4964C225.699 76.7261 225.756 76.9782 225.756 77.2528V77.6364C225.756 77.911 225.699 78.1631 225.585 78.3928C225.472 78.62 225.305 78.8035 225.085 78.9432C224.867 79.0805 224.599 79.1491 224.282 79.1491C223.963 79.1491 223.693 79.0805 223.473 78.9432C223.252 78.8035 223.085 78.62 222.972 78.3928C222.858 78.1631 222.801 77.911 222.801 77.6364ZM223.629 77.2528V77.6364C223.629 77.84 223.677 78.0246 223.774 78.1903C223.871 78.3561 224.041 78.4389 224.282 78.4389C224.521 78.4389 224.688 78.3561 224.783 78.1903C224.878 78.0246 224.925 77.84 224.925 77.6364V77.2528C224.925 77.0492 224.879 76.8646 224.786 76.6989C224.697 76.5331 224.528 76.4503 224.282 76.4503C224.045 76.4503 223.877 76.5331 223.778 76.6989C223.679 76.8646 223.629 77.0492 223.629 77.2528ZM219.144 73.4744V73.0909C219.144 72.8163 219.201 72.5642 219.314 72.3345C219.43 72.1049 219.598 71.9214 219.818 71.7841C220.041 71.6468 220.31 71.5781 220.625 71.5781C220.947 71.5781 221.216 71.6468 221.434 71.7841C221.652 71.9214 221.817 72.1049 221.928 72.3345C222.039 72.5642 222.095 72.8163 222.095 73.0909V73.4744C222.095 73.7491 222.038 74.0012 221.924 74.2308C221.813 74.4581 221.647 74.6416 221.427 74.7812C221.209 74.9186 220.942 74.9872 220.625 74.9872C220.303 74.9872 220.032 74.9186 219.811 74.7812C219.594 74.6416 219.428 74.4581 219.314 74.2308C219.201 74.0012 219.144 73.7491 219.144 73.4744ZM219.975 73.0909V73.4744C219.975 73.678 220.022 73.8627 220.117 74.0284C220.214 74.1941 220.383 74.277 220.625 74.277C220.861 74.277 221.027 74.1941 221.122 74.0284C221.219 73.8627 221.267 73.678 221.267 73.4744V73.0909C221.267 72.8873 221.221 72.7027 221.129 72.5369C221.036 72.3712 220.868 72.2884 220.625 72.2884C220.388 72.2884 220.22 72.3712 220.12 72.5369C220.023 72.7027 219.975 72.8873 219.975 73.0909ZM219.481 79L224.481 71.7273H225.33L220.33 79H219.481Z" fill="#81DBBA"/>
</svg>
