<svg width="403" height="536" viewBox="0 0 403 536" fill="none" xmlns="http://www.w3.org/2000/svg">
<path d="M77.3293 453.463L76.6049 453.269L76.4108 453.993L41.1836 585.463L40.9895 586.188L41.7139 586.382C236.569 638.593 436.854 522.963 489.064 328.114C541.274 133.266 425.636 -67.0159 230.781 -119.227L230.057 -119.421L229.863 -118.697L194.635 12.7729L194.441 13.4974L195.166 13.6915C316.61 46.2322 388.681 171.058 356.141 292.498C323.601 413.937 198.773 486.004 77.3293 453.463ZM128.129 157.211L128.323 156.487L127.599 156.293C64.0704 139.27 16.0347 61.6091 40.4746 -29.6019L40.6687 -30.3263L39.9443 -30.5204L-91.53 -65.7489L-92.2545 -65.943L-92.4486 -65.2185C-132.561 84.4818 -59.037 248.746 91.9834 289.211L92.7079 289.405L92.902 288.681L128.129 157.211Z" stroke="#2E2C33" stroke-width="1.5"/>
</svg>
