<svg width="875" height="196" viewBox="0 0 875 196" fill="none" xmlns="http://www.w3.org/2000/svg">
<rect width="203.305" height="195.697" rx="20" fill="#FA7840"/>
<rect x="42" y="41" width="24.1943" height="91.4094" fill="white"/>
<rect x="138.777" y="41" width="24.1943" height="91.4094" fill="white"/>
<rect x="66.1934" y="132.409" width="24.1943" height="23.289" fill="white"/>
<rect x="90.3887" y="109.121" width="24.1943" height="23.289" fill="white"/>
<rect x="114.584" y="132.409" width="24.1943" height="23.289" fill="white"/>
<path d="M287.288 140L260.28 47.84H278.584L295.864 111.2L313.144 47.968L331.448 47.84L348.728 111.2L366.008 47.84H384.312L357.304 140H340.152L322.296 77.792L304.44 140H287.288ZM390.805 61.28V45.92H408.213V61.28H390.805ZM390.805 140V70.88H408.213V140H390.805ZM451.848 141.92C443.144 141.92 436.104 139.957 430.728 136.032C425.395 132.064 422.152 126.475 421 119.264L438.792 116.576C439.517 119.819 441.117 122.357 443.592 124.192C446.109 126.027 449.288 126.944 453.128 126.944C456.285 126.944 458.717 126.347 460.424 125.152C462.131 123.915 462.984 122.208 462.984 120.032C462.984 118.667 462.643 117.579 461.96 116.768C461.277 115.915 459.741 115.083 457.352 114.272C455.005 113.461 451.336 112.395 446.344 111.072C440.712 109.621 436.211 108 432.84 106.208C429.469 104.416 427.037 102.283 425.544 99.808C424.051 97.2907 423.304 94.2613 423.304 90.72C423.304 86.2827 424.435 82.4427 426.696 79.2C428.957 75.9147 432.136 73.3973 436.232 71.648C440.371 69.856 445.235 68.96 450.824 68.96C456.243 68.96 461.043 69.792 465.224 71.456C469.405 73.12 472.776 75.488 475.336 78.56C477.939 81.632 479.539 85.2587 480.136 89.44L462.344 92.64C462.045 90.08 460.936 88.0533 459.016 86.56C457.096 85.0667 454.493 84.192 451.208 83.936C448.008 83.7227 445.427 84.1493 443.464 85.216C441.544 86.2827 440.584 87.8187 440.584 89.824C440.584 91.0187 440.989 92.0213 441.8 92.832C442.653 93.6427 444.381 94.4747 446.984 95.328C449.629 96.1813 453.64 97.2907 459.016 98.656C464.264 100.021 468.467 101.621 471.624 103.456C474.824 105.248 477.149 107.424 478.6 109.984C480.051 112.501 480.776 115.552 480.776 119.136C480.776 126.219 478.216 131.787 473.096 135.84C467.976 139.893 460.893 141.92 451.848 141.92ZM524.408 141.92C517.325 141.92 511.075 140.405 505.656 137.376C500.28 134.304 496.056 130.101 492.984 124.768C489.955 119.392 488.44 113.248 488.44 106.336C488.44 98.784 489.933 92.2133 492.92 86.624C495.907 81.0347 500.024 76.704 505.272 73.632C510.52 70.5173 516.557 68.96 523.384 68.96C530.637 68.96 536.803 70.6667 541.88 74.08C546.957 77.4933 550.712 82.2933 553.144 88.48C555.576 94.6667 556.429 101.941 555.704 110.304H538.488V103.904C538.488 96.864 537.357 91.808 535.096 88.736C532.877 85.6213 529.229 84.064 524.152 84.064C518.221 84.064 513.848 85.8773 511.032 89.504C508.259 93.088 506.872 98.4 506.872 105.44C506.872 111.883 508.259 116.875 511.032 120.416C513.848 123.915 517.965 125.664 523.384 125.664C526.797 125.664 529.72 124.917 532.152 123.424C534.584 121.931 536.44 119.776 537.72 116.96L555.128 121.952C552.525 128.267 548.408 133.173 542.776 136.672C537.187 140.171 531.064 141.92 524.408 141.92ZM501.496 110.304V97.376H547.32V110.304H501.496ZM568.875 140V45.92H586.283V140H568.875ZM635.038 141.92C627.955 141.92 621.705 140.405 616.286 137.376C610.91 134.304 606.686 130.101 603.614 124.768C600.585 119.392 599.07 113.248 599.07 106.336C599.07 98.784 600.563 92.2133 603.55 86.624C606.537 81.0347 610.654 76.704 615.902 73.632C621.15 70.5173 627.187 68.96 634.014 68.96C641.267 68.96 647.433 70.6667 652.51 74.08C657.587 77.4933 661.342 82.2933 663.774 88.48C666.206 94.6667 667.059 101.941 666.334 110.304H649.118V103.904C649.118 96.864 647.987 91.808 645.726 88.736C643.507 85.6213 639.859 84.064 634.782 84.064C628.851 84.064 624.478 85.8773 621.662 89.504C618.889 93.088 617.502 98.4 617.502 105.44C617.502 111.883 618.889 116.875 621.662 120.416C624.478 123.915 628.595 125.664 634.014 125.664C637.427 125.664 640.35 124.917 642.782 123.424C645.214 121.931 647.07 119.776 648.35 116.96L665.758 121.952C663.155 128.267 659.038 133.173 653.406 136.672C647.817 140.171 641.694 141.92 635.038 141.92ZM612.126 110.304V97.376H657.95V110.304H612.126ZM696.175 141.92C691.226 141.92 687.023 140.981 683.567 139.104C680.154 137.184 677.551 134.645 675.759 131.488C674.01 128.288 673.135 124.768 673.135 120.928C673.135 117.728 673.626 114.805 674.607 112.16C675.588 109.515 677.167 107.189 679.343 105.184C681.562 103.136 684.527 101.429 688.239 100.064C690.799 99.1253 693.85 98.2933 697.391 97.568C700.932 96.8427 704.943 96.16 709.423 95.52C713.903 94.8373 718.831 94.0907 724.207 93.28L717.935 96.736C717.935 92.64 716.954 89.632 714.991 87.712C713.028 85.792 709.743 84.832 705.135 84.832C702.575 84.832 699.908 85.4507 697.135 86.688C694.362 87.9253 692.42 90.1227 691.311 93.28L675.567 88.288C677.316 82.5707 680.602 77.92 685.423 74.336C690.244 70.752 696.815 68.96 705.135 68.96C711.236 68.96 716.655 69.8987 721.391 71.776C726.127 73.6533 729.711 76.896 732.143 81.504C733.508 84.064 734.319 86.624 734.575 89.184C734.831 91.744 734.959 94.6027 734.959 97.76V140H719.727V125.792L721.903 128.736C718.532 133.387 714.884 136.757 710.959 138.848C707.076 140.896 702.148 141.92 696.175 141.92ZM699.887 128.224C703.087 128.224 705.775 127.669 707.951 126.56C710.17 125.408 711.919 124.107 713.199 122.656C714.522 121.205 715.418 119.989 715.887 119.008C716.783 117.131 717.295 114.955 717.423 112.48C717.594 109.963 717.679 107.872 717.679 106.208L722.799 107.488C717.636 108.341 713.455 109.067 710.255 109.664C707.055 110.219 704.474 110.731 702.511 111.2C700.548 111.669 698.82 112.181 697.327 112.736C695.62 113.419 694.234 114.165 693.167 114.976C692.143 115.744 691.375 116.597 690.863 117.536C690.394 118.475 690.159 119.52 690.159 120.672C690.159 122.251 690.543 123.616 691.311 124.768C692.122 125.877 693.252 126.731 694.703 127.328C696.154 127.925 697.882 128.224 699.887 128.224ZM777.072 141.92C770.715 141.92 765.147 140.32 760.368 137.12C755.589 133.92 751.856 129.568 749.168 124.064C746.523 118.56 745.2 112.352 745.2 105.44C745.2 98.4 746.544 92.1493 749.232 86.688C751.963 81.184 755.781 76.8533 760.688 73.696C765.595 70.5387 771.355 68.96 777.968 68.96C784.539 68.96 790.064 70.56 794.544 73.76C799.024 76.96 802.416 81.312 804.72 86.816C807.024 92.32 808.176 98.528 808.176 105.44C808.176 112.352 807.003 118.56 804.656 124.064C802.352 129.568 798.896 133.92 794.288 137.12C789.68 140.32 783.941 141.92 777.072 141.92ZM779.888 126.432C783.771 126.432 786.864 125.557 789.168 123.808C791.515 122.059 793.2 119.605 794.224 116.448C795.248 113.291 795.76 109.621 795.76 105.44C795.76 101.259 795.248 97.5893 794.224 94.432C793.2 91.2747 791.557 88.8213 789.296 87.072C787.077 85.3227 784.155 84.448 780.528 84.448C776.645 84.448 773.445 85.408 770.928 87.328C768.453 89.2053 766.619 91.744 765.424 94.944C764.229 98.1013 763.632 101.6 763.632 105.44C763.632 109.323 764.208 112.864 765.36 116.064C766.512 119.221 768.283 121.739 770.672 123.616C773.061 125.493 776.133 126.432 779.888 126.432ZM795.76 140V92.64H793.584V47.84H811.12V140H795.76Z" fill="white"/>
</svg>
