<svg width="32" height="32" viewBox="0 0 32 32" fill="none" xmlns="http://www.w3.org/2000/svg">
<path d="M4 10.6641C4 8.45492 5.79086 6.66406 8 6.66406H24C26.2091 6.66406 28 8.45492 28 10.6641V21.3307C28 23.5399 26.2091 25.3307 24 25.3307H8C5.79086 25.3307 4 23.5399 4 21.3307V10.6641Z" stroke="#E5BCE6" stroke-width="2"/>
<path d="M9.95673 11.2191C9.52546 10.8741 8.89617 10.944 8.55116 11.3753C8.20615 11.8066 8.27607 12.4359 8.70734 12.7809L9.95673 11.2191ZM15.9987 17.3333L15.374 18.1142L15.9987 18.614L16.6234 18.1142L15.9987 17.3333ZM23.2901 12.7809C23.7213 12.4359 23.7912 11.8066 23.4462 11.3753C23.1012 10.944 22.4719 10.8741 22.0407 11.2191L23.2901 12.7809ZM8.70734 12.7809L15.374 18.1142L16.6234 16.5525L9.95673 11.2191L8.70734 12.7809ZM16.6234 18.1142L23.2901 12.7809L22.0407 11.2191L15.374 16.5525L16.6234 18.1142Z" fill="#E5BCE6"/>
</svg>
