<svg width="126" height="34" viewBox="0 0 126 34" fill="none" xmlns="http://www.w3.org/2000/svg">
<path d="M8.31094 33.0019V16.3419L8.01694 11.1969H8.55594L10.4669 16.3419L17.3269 31.0419H26.2449L33.1049 16.3419L35.0159 11.1969H35.5549L35.3099 16.3419V33.0019H42.6599V0.171875H32.6639L25.2159 16.3419L22.2269 24.0349H21.6879L18.6009 16.3419L10.9079 0.171875H0.960938V33.0019H8.31094Z" fill="#666469"/>
<path d="M53.0816 33.4919C58.5206 33.4919 61.9506 31.1889 63.0776 27.3669H63.4696V33.0019H70.3296V18.5959C70.3296 12.1769 66.4586 7.96287 58.2756 7.96287C50.1906 7.96287 45.0946 12.1769 45.0946 18.2529V18.3999H52.4936V18.2039C52.4936 15.4109 54.0126 14.4309 57.7366 14.4309C61.6566 14.4309 63.0776 15.3129 63.0776 18.4979V19.4289L52.5426 20.5069C47.2996 21.0459 44.6046 23.2999 44.6046 26.9259C44.6046 31.0419 47.7896 33.4919 53.0816 33.4919ZM52.0036 26.4359C52.0036 25.2599 52.7876 24.7699 54.5516 24.6229L63.0776 23.6429C62.8816 27.1219 60.1866 28.2979 55.1886 28.2979C53.0326 28.2979 52.0036 27.7589 52.0036 26.4359Z" fill="#666469"/>
<path d="M80.4252 33.0019V18.7919C80.4252 15.7049 81.6012 14.1859 84.8842 14.1859C87.8732 14.1859 88.9512 15.3619 88.9512 18.0569V20.6049H96.3012V16.5379C96.3012 11.7359 94.0472 7.96287 88.5592 7.96287C83.6102 7.96287 81.0132 11.0009 80.3272 14.9699H79.8862V8.45287H73.0752V33.0019H80.4252Z" fill="#666469"/>
<path d="M105.333 33.0019V24.1329H110.968L117.093 33.0019H125.766L116.946 20.3109L125.913 8.45287H117.191L110.919 17.5669H105.333V0.171875H97.9828V33.0019H105.333Z" fill="#666469"/>
</svg>
