<svg width="325" height="357" viewBox="0 0 325 357" fill="none" xmlns="http://www.w3.org/2000/svg">
<g clip-path="url(#clip0_590_14729)">
<rect width="325" height="357" fill="#131415"/>
<path d="M28.2012 45.0625L28.2012 33.3706H33.1377C33.2514 33.3706 33.403 33.376 33.5924 33.3868C33.7873 33.3922 33.9605 33.4085 34.1121 33.4356C34.8103 33.5438 35.3814 33.7739 35.8253 34.1257C36.2745 34.4775 36.6047 34.9214 36.8158 35.4573C37.0269 35.9877 37.1325 36.5805 37.1325 37.2354C37.1325 37.8904 37.0242 38.4858 36.8077 39.0217C36.5966 39.5521 36.2664 39.9933 35.8171 40.3451C35.3733 40.697 34.8049 40.927 34.1121 41.0353C33.9605 41.0569 33.7873 41.0732 33.5924 41.084C33.3976 41.0948 33.246 41.1002 33.1377 41.1002H30.4096L30.4096 45.0625H28.2012ZM30.4096 39.0379H33.0403C33.154 39.0379 33.2785 39.0325 33.4138 39.0217C33.5491 39.0109 33.6736 38.9892 33.7873 38.9567C34.085 38.8755 34.3151 38.7402 34.4774 38.5508C34.6398 38.3559 34.7508 38.1421 34.8103 37.9093C34.8753 37.6712 34.9078 37.4465 34.9078 37.2354C34.9078 37.0243 34.8753 36.8024 34.8103 36.5696C34.7508 36.3315 34.6398 36.1177 34.4774 35.9282C34.3151 35.7333 34.085 35.5953 33.7873 35.5141C33.6736 35.4816 33.5491 35.46 33.4138 35.4492C33.2785 35.4383 33.154 35.4329 33.0403 35.4329H30.4096V39.0379ZM40.8617 45.3061C40.2338 45.3061 39.7006 45.187 39.2622 44.9488C38.8291 44.7052 38.4989 44.3832 38.2716 43.9826C38.0497 43.5767 37.9387 43.1301 37.9387 42.6429C37.9387 42.237 38.001 41.8662 38.1255 41.5306C38.25 41.195 38.4502 40.9 38.7263 40.6456C39.0078 40.3857 39.384 40.1692 39.8549 39.996C40.1797 39.8769 40.5667 39.7714 41.016 39.6794C41.4652 39.5873 41.974 39.5007 42.5424 39.4195C43.1108 39.3329 43.7359 39.2382 44.418 39.1354L43.6223 39.5738C43.6223 39.0542 43.4978 38.6726 43.2488 38.429C42.9998 38.1854 42.583 38.0636 41.9984 38.0636C41.6736 38.0636 41.3353 38.1421 40.9835 38.2991C40.6316 38.456 40.3853 38.7348 40.2446 39.1354L38.2472 38.502C38.4692 37.7767 38.886 37.1867 39.4976 36.732C40.1093 36.2773 40.9429 36.05 41.9984 36.05C42.7724 36.05 43.4599 36.1691 44.0607 36.4072C44.6616 36.6454 45.1162 37.0568 45.4248 37.6414C45.598 37.9662 45.7008 38.2909 45.7333 38.6157C45.7658 38.9405 45.782 39.3032 45.782 39.7037V45.0625H43.8496V43.26L44.1257 43.6335C43.6981 44.2235 43.2352 44.6511 42.7373 44.9164C42.2447 45.1762 41.6195 45.3061 40.8617 45.3061ZM41.3326 43.5685C41.7386 43.5685 42.0796 43.4982 42.3556 43.3574C42.6371 43.2113 42.8591 43.0462 43.0214 42.8621C43.1892 42.6781 43.3029 42.5238 43.3625 42.3993C43.4761 42.1612 43.5411 41.8851 43.5573 41.5712C43.579 41.2518 43.5898 40.9866 43.5898 40.7755L44.2393 40.9379C43.5844 41.0461 43.0539 41.1381 42.6479 41.2139C42.242 41.2843 41.9145 41.3492 41.6655 41.4088C41.4165 41.4683 41.1973 41.5333 41.0078 41.6036C40.7913 41.6903 40.6154 41.785 40.4801 41.8878C40.3502 41.9853 40.2527 42.0935 40.1878 42.2126C40.1282 42.3317 40.0985 42.4643 40.0985 42.6104C40.0985 42.8107 40.1472 42.9839 40.2446 43.1301C40.3475 43.2708 40.4909 43.3791 40.6749 43.4549C40.859 43.5306 41.0782 43.5685 41.3326 43.5685ZM48.3597 48.9598L50.0485 44.3155L50.081 45.6796L46.2649 36.2936H48.5545L51.1203 42.9352H50.6006L53.1501 36.2936H55.3586L50.4058 48.9598H48.3597ZM66.8932 45.0625V39.8823C66.8932 39.3032 66.7551 38.8539 66.4791 38.5345C66.2084 38.2097 65.8322 38.0474 65.3505 38.0474C65.0419 38.0474 64.774 38.1204 64.5467 38.2666C64.3193 38.4073 64.1407 38.6076 64.0108 38.8674C63.8863 39.1218 63.824 39.4168 63.824 39.7524L62.8984 39.1354C62.8984 38.5345 63.0392 38.0041 63.3206 37.544C63.6075 37.0839 63.9891 36.7266 64.4655 36.4722C64.9472 36.2124 65.4804 36.0825 66.065 36.0825C67.0664 36.0825 67.8215 36.3802 68.3303 36.9756C68.8445 37.5656 69.1016 38.3397 69.1016 39.2977V45.0625H66.8932ZM56.3217 45.0625V36.2936H58.2704V39.2003H58.5464V45.0625H56.3217ZM61.6156 45.0625V39.8823C61.6156 39.3032 61.4775 38.8539 61.2015 38.5345C60.9308 38.2097 60.5546 38.0474 60.0729 38.0474C59.6128 38.0474 59.242 38.207 58.9605 38.5264C58.6845 38.8404 58.5464 39.249 58.5464 39.7524L57.6208 39.1029C57.6208 38.5291 57.7643 38.0149 58.0512 37.5602C58.338 37.1055 58.7224 36.7456 59.2041 36.4803C59.6913 36.2151 60.2353 36.0825 60.8361 36.0825C61.5236 36.0825 62.0865 36.2286 62.5249 36.5209C62.9688 36.8132 63.2963 37.2029 63.5074 37.6901C63.7185 38.1773 63.824 38.7131 63.824 39.2977L63.824 45.0625H61.6156ZM74.9679 45.3061C74.0693 45.3061 73.2763 45.1139 72.5889 44.7296C71.9069 44.3399 71.371 43.8067 70.9813 43.1301C70.597 42.4481 70.4048 41.6686 70.4048 40.7917C70.4048 39.8336 70.5942 39 70.9732 38.2909C71.3521 37.5818 71.8744 37.0324 72.5402 36.6427C73.206 36.2476 73.9719 36.05 74.838 36.05C75.7582 36.05 76.5403 36.2665 77.1845 36.6995C77.8286 37.1326 78.3049 37.7415 78.6135 38.5264C78.922 39.3113 79.0303 40.2342 78.9383 41.2951H76.7541V40.4832C76.7541 39.59 76.6107 38.9486 76.3238 38.5589C76.0423 38.1637 75.5795 37.9662 74.9354 37.9662C74.183 37.9662 73.6282 38.1962 73.2709 38.6563C72.9191 39.111 72.7432 39.7849 72.7432 40.678C72.7432 41.4954 72.9191 42.1287 73.2709 42.578C73.6282 43.0218 74.1505 43.2438 74.838 43.2438C75.271 43.2438 75.6418 43.149 75.9503 42.9596C76.2589 42.7701 76.4943 42.4968 76.6567 42.1395L78.8652 42.7728C78.535 43.5739 78.0127 44.1964 77.2981 44.6403C76.5891 45.0842 75.8123 45.3061 74.9679 45.3061ZM72.0611 41.2951V39.655H77.8746V41.2951H72.0611ZM86.3472 45.0625V40.9216C86.3472 40.7213 86.3364 40.4669 86.3147 40.1584C86.2931 39.8444 86.2254 39.5305 86.1117 39.2165C85.9981 38.9026 85.8113 38.6401 85.5515 38.429C85.2971 38.2179 84.9344 38.1123 84.4635 38.1123C84.274 38.1123 84.0711 38.1421 83.8545 38.2016C83.638 38.2612 83.435 38.3775 83.2456 38.5508C83.0561 38.7186 82.8992 38.9676 82.7747 39.2977C82.6556 39.6279 82.596 40.0664 82.596 40.6131L81.3294 40.0122C81.3294 39.3194 81.4702 38.6698 81.7516 38.0636C82.0331 37.4574 82.4553 36.9675 83.0182 36.594C83.5866 36.2205 84.3011 36.0338 85.1618 36.0338C85.8492 36.0338 86.4094 36.1501 86.8425 36.3829C87.2755 36.6156 87.6111 36.9106 87.8493 37.2679C88.0929 37.6252 88.2661 37.9986 88.3689 38.3884C88.4718 38.7727 88.534 39.1245 88.5557 39.4439C88.5773 39.7633 88.5881 39.996 88.5881 40.1422V45.0625H86.3472ZM80.3551 45.0625V36.2936H82.32V39.2003H82.596V45.0625H80.3551ZM95.794 45.0625C95.1877 45.1762 94.5923 45.2249 94.0077 45.2086C93.4285 45.1978 92.9089 45.0977 92.4488 44.9082C91.9941 44.7134 91.6477 44.4021 91.4095 43.9745C91.193 43.5739 91.0793 43.168 91.0685 42.7566C91.0577 42.3398 91.0522 41.8689 91.0522 41.3438L91.0522 33.8578H93.2607V41.2139C93.2607 41.5549 93.2634 41.8635 93.2688 42.1395C93.2797 42.4102 93.3365 42.6267 93.4393 42.7891C93.6342 43.0976 93.9454 43.2654 94.3731 43.2925C94.8007 43.3195 95.2743 43.2979 95.794 43.2275V45.0625ZM89.5583 37.9986V36.2936H95.794V37.9986H89.5583ZM101.012 45.3061C99.9078 45.3061 99.0147 45.0571 98.3327 44.5591C97.656 44.0557 97.2447 43.3466 97.0985 42.4318L99.3557 42.0908C99.4477 42.5022 99.6507 42.8243 99.9646 43.057C100.284 43.2898 100.687 43.4061 101.174 43.4061C101.575 43.4061 101.884 43.3304 102.1 43.1788C102.317 43.0218 102.425 42.8053 102.425 42.5293C102.425 42.356 102.382 42.218 102.295 42.1152C102.208 42.0069 102.013 41.9014 101.71 41.7985C101.413 41.6957 100.947 41.5603 100.314 41.3925C99.5993 41.2085 99.0282 41.0028 98.6006 40.7755C98.173 40.5481 97.8644 40.2775 97.675 39.9635C97.4855 39.6442 97.3908 39.2599 97.3908 38.8106C97.3908 38.2476 97.5342 37.7605 97.8211 37.3491C98.108 36.9323 98.5113 36.6129 99.0309 36.391C99.556 36.1637 100.173 36.05 100.882 36.05C101.57 36.05 102.179 36.1555 102.709 36.3666C103.239 36.5778 103.667 36.8782 103.992 37.2679C104.322 37.6576 104.525 38.1177 104.601 38.6482L102.344 39.0542C102.306 38.7294 102.165 38.4723 101.921 38.2828C101.678 38.0934 101.348 37.9824 100.931 37.9499C100.525 37.9229 100.197 37.977 99.9484 38.1123C99.7048 38.2476 99.583 38.4425 99.583 38.6969C99.583 38.8485 99.6345 38.9757 99.7373 39.0785C99.8456 39.1814 100.065 39.2869 100.395 39.3952C100.731 39.5034 101.239 39.6442 101.921 39.8174C102.587 39.9906 103.12 40.1936 103.521 40.4263C103.927 40.6537 104.222 40.9297 104.406 41.2545C104.59 41.5739 104.682 41.9609 104.682 42.4156C104.682 43.3141 104.357 44.0205 103.708 44.5347C103.058 45.049 102.16 45.3061 101.012 45.3061Z" fill="white"/>
<rect x="27.0645" y="78.4844" width="48.7163" height="48.7163" rx="10.8258" fill="#1D2124"/>
<path d="M46.7042 96.7539C50.0767 96.7539 52.8105 99.5121 52.8105 102.914C52.8105 106.317 50.0765 109.075 46.7042 109.075C43.3318 109.075 40.5977 106.317 40.5977 102.914C40.5977 99.5121 43.3316 96.7539 46.7042 96.7539ZM56.4559 97.1148C58.1421 97.1148 59.5091 99.7111 59.5091 102.914H59.5093C59.5093 106.117 58.1423 108.714 56.4561 108.714C54.7698 108.714 53.4028 106.117 53.4028 102.914C53.4028 99.7119 54.7696 97.1148 56.4559 97.1148ZM61.1755 97.7188C61.7684 97.7188 62.2493 100.045 62.2493 102.914C62.2493 105.783 61.7686 108.11 61.1755 108.11C60.5823 108.11 60.1019 105.784 60.1019 102.914C60.1019 100.045 60.5826 97.7188 61.1755 97.7188Z" fill="white"/>
<path d="M87.9573 86.7938H89.5405L92.5609 90.8859L95.5083 86.7938H97.0916V95.8672H95.423V89.7046L92.6218 93.4314H92.427L89.6136 89.5828V95.8672H87.9573V86.7938ZM101.836 96.0133C101.17 96.0133 100.578 95.8591 100.058 95.5505C99.5466 95.242 99.1447 94.8238 98.8524 94.2961C98.5682 93.7683 98.4261 93.1837 98.4261 92.5423C98.4261 91.8928 98.5682 91.3082 98.8524 90.7885C99.1447 90.2608 99.5385 89.8467 100.034 89.5463C100.537 89.2458 101.097 89.0956 101.714 89.0956C102.38 89.0956 102.957 89.2418 103.444 89.5341C103.931 89.8183 104.3 90.208 104.552 90.7033C104.812 91.1985 104.942 91.7425 104.942 92.3353C104.942 92.6113 104.913 92.8346 104.857 93.0051H100.082C100.131 93.4923 100.318 93.882 100.643 94.1743C100.967 94.4666 101.369 94.6127 101.848 94.6127C102.206 94.6127 102.51 94.5397 102.762 94.3935C103.022 94.2393 103.229 94.0281 103.383 93.7602L104.674 94.3935C104.471 94.8807 104.114 95.2745 103.602 95.5749C103.091 95.8672 102.502 96.0133 101.836 96.0133ZM103.237 91.7872C103.196 91.3812 103.038 91.0524 102.762 90.8007C102.486 90.5409 102.137 90.411 101.714 90.411C101.308 90.411 100.963 90.5328 100.679 90.7763C100.395 91.0118 100.208 91.3488 100.119 91.7872H103.237ZM109.233 96.0133C108.599 96.0133 108.027 95.8631 107.515 95.5627C107.012 95.2542 106.614 94.836 106.322 94.3083C106.03 93.7805 105.883 93.1959 105.883 92.5545C105.883 91.9131 106.03 91.3285 106.322 90.8007C106.614 90.2729 107.016 89.8588 107.528 89.5584C108.039 89.2499 108.603 89.0956 109.22 89.0956C109.643 89.0956 110.028 89.1687 110.377 89.3149C110.727 89.4529 111.019 89.6518 111.254 89.9116V86.6476H112.85V95.8672H111.34V95.1364C111.096 95.4206 110.792 95.6398 110.426 95.7941C110.061 95.9403 109.663 96.0133 109.233 96.0133ZM107.54 92.5545C107.54 92.9361 107.617 93.2812 107.771 93.5897C107.934 93.8901 108.157 94.1256 108.441 94.2961C108.725 94.4666 109.046 94.5518 109.403 94.5518C109.76 94.5518 110.077 94.4666 110.353 94.2961C110.637 94.1256 110.857 93.8901 111.011 93.5897C111.173 93.2812 111.254 92.9361 111.254 92.5545C111.254 92.1729 111.173 91.8319 111.011 91.5314C110.857 91.2229 110.637 90.9834 110.353 90.8129C110.069 90.6424 109.752 90.5571 109.403 90.5571C109.046 90.5571 108.725 90.6464 108.441 90.8251C108.157 90.9956 107.934 91.2351 107.771 91.5436C107.617 91.844 107.54 92.181 107.54 92.5545ZM114.334 89.2418H115.93V95.8672H114.334L114.334 89.2418ZM114.212 87.4149C114.212 87.1226 114.294 86.8953 114.456 86.7329C114.618 86.5705 114.842 86.4893 115.126 86.4893C115.418 86.4893 115.645 86.5705 115.808 86.7329C115.97 86.8953 116.051 87.1226 116.051 87.4149C116.051 87.6991 115.97 87.9224 115.808 88.0848C115.654 88.2472 115.426 88.3283 115.126 88.3283C114.842 88.3283 114.618 88.2472 114.456 88.0848C114.294 87.9224 114.212 87.6991 114.212 87.4149ZM119.765 96.0133C118.994 96.0133 118.385 95.7657 117.939 95.2704C117.492 94.7751 117.269 94.1175 117.269 93.2974V89.2418L118.864 89.2418L118.864 93.1634C118.864 93.5775 118.986 93.9145 119.23 94.1743C119.481 94.426 119.806 94.5518 120.204 94.5518C120.602 94.5518 120.922 94.4219 121.166 94.1621C121.418 93.9023 121.544 93.5572 121.544 93.1269V89.2418H123.139V95.8672H121.629V95.0755C121.45 95.3841 121.199 95.6195 120.874 95.7819C120.557 95.9362 120.188 96.0133 119.765 96.0133ZM124.622 89.2418H126.12V90.07C126.291 89.7533 126.534 89.5138 126.851 89.3514C127.176 89.1809 127.549 89.0956 127.971 89.0956C128.41 89.0956 128.812 89.1931 129.177 89.3879C129.542 89.5747 129.823 89.8345 130.017 90.1674C130.237 89.8101 130.521 89.5422 130.87 89.3636C131.227 89.1849 131.629 89.0956 132.076 89.0956C132.539 89.0956 132.957 89.2012 133.33 89.4123C133.704 89.6234 133.996 89.9197 134.207 90.3014C134.418 90.683 134.524 91.1174 134.524 91.6045V95.8672H132.928V91.9821C132.928 91.5436 132.811 91.1985 132.575 90.9468C132.348 90.687 132.039 90.5571 131.649 90.5571C131.268 90.5571 130.959 90.687 130.724 90.9468C130.488 91.2067 130.371 91.5517 130.371 91.9821V95.8672H128.775V91.9821C128.775 91.5436 128.657 91.1985 128.422 90.9468C128.195 90.687 127.886 90.5571 127.496 90.5571C127.115 90.5571 126.806 90.687 126.571 90.9468C126.335 91.2067 126.218 91.5517 126.218 91.9821V95.8672H124.622L124.622 89.2418Z" fill="white"/>
<path d="M90.1039 113.349C89.4965 113.347 88.9775 113.187 88.5469 112.869C88.1163 112.551 87.787 112.088 87.5589 111.481C87.3308 110.874 87.2167 110.142 87.2167 109.286C87.2167 108.432 87.3308 107.703 87.5589 107.098C87.7895 106.494 88.1202 106.032 88.5507 105.714C88.9839 105.397 89.5016 105.238 90.1039 105.238C90.7062 105.238 91.2226 105.398 91.6532 105.718C92.0837 106.036 92.4131 106.497 92.6412 107.102C92.8718 107.705 92.9872 108.432 92.9872 109.286C92.9872 110.145 92.8731 110.878 92.645 111.485C92.4169 112.09 92.0876 112.552 91.657 112.873C91.2264 113.191 90.7087 113.349 90.1039 113.349ZM90.1039 112.323C90.637 112.323 91.0534 112.063 91.3533 111.543C91.6557 111.022 91.8069 110.27 91.8069 109.286C91.8069 108.632 91.7377 108.08 91.5993 107.629C91.4635 107.175 91.2674 106.832 91.0112 106.599C90.7574 106.363 90.455 106.245 90.1039 106.245C89.5733 106.245 89.1569 106.506 88.8544 107.029C88.552 107.552 88.3995 108.304 88.397 109.286C88.397 109.942 88.4649 110.497 88.6007 110.951C88.7391 111.402 88.9352 111.744 89.1889 111.977C89.4426 112.208 89.7476 112.323 90.1039 112.323ZM94.351 113.219V112.358L97.0151 109.597C97.2996 109.297 97.5341 109.035 97.7187 108.809C97.9058 108.581 98.0454 108.365 98.1377 108.16C98.23 107.954 98.2761 107.737 98.2761 107.506C98.2761 107.245 98.2146 107.019 98.0916 106.829C97.9686 106.637 97.8007 106.49 97.588 106.387C97.3752 106.282 97.1356 106.23 96.8691 106.23C96.5871 106.23 96.3411 106.287 96.1309 106.403C95.9208 106.518 95.7593 106.681 95.6465 106.891C95.5338 107.101 95.4774 107.347 95.4774 107.629H94.3433C94.3433 107.15 94.4535 106.731 94.6739 106.372C94.8943 106.013 95.1967 105.735 95.5812 105.538C95.9656 105.338 96.4026 105.238 96.8921 105.238C97.3868 105.238 97.8225 105.336 98.1992 105.534C98.5785 105.729 98.8746 105.995 99.0873 106.333C99.3 106.669 99.4064 107.048 99.4064 107.471C99.4064 107.764 99.3513 108.049 99.2411 108.329C99.1334 108.608 98.945 108.919 98.6759 109.263C98.4068 109.604 98.0326 110.018 97.5534 110.505L95.9887 112.142V112.2H99.5332V113.219H94.351ZM101.763 112.242C101.553 112.242 101.372 112.168 101.221 112.019C101.07 111.868 100.994 111.686 100.994 111.473C100.994 111.263 101.07 111.084 101.221 110.935C101.372 110.784 101.553 110.708 101.763 110.708C101.973 110.708 102.154 110.784 102.305 110.935C102.456 111.084 102.532 111.263 102.532 111.473C102.532 111.614 102.496 111.744 102.424 111.862C102.355 111.977 102.263 112.069 102.147 112.138C102.032 112.208 101.904 112.242 101.763 112.242ZM101.763 108.298C101.553 108.298 101.372 108.224 101.221 108.075C101.07 107.924 100.994 107.742 100.994 107.529C100.994 107.319 101.07 107.139 101.221 106.991C101.372 106.84 101.553 106.764 101.763 106.764C101.973 106.764 102.154 106.84 102.305 106.991C102.456 107.139 102.532 107.319 102.532 107.529C102.532 107.67 102.496 107.799 102.424 107.917C102.355 108.033 102.263 108.125 102.147 108.194C102.032 108.263 101.904 108.298 101.763 108.298ZM106.797 113.349C106.19 113.347 105.671 113.187 105.24 112.869C104.81 112.551 104.48 112.088 104.252 111.481C104.024 110.874 103.91 110.142 103.91 109.286C103.91 108.432 104.024 107.703 104.252 107.098C104.483 106.494 104.814 106.032 105.244 105.714C105.677 105.397 106.195 105.238 106.797 105.238C107.4 105.238 107.916 105.398 108.347 105.718C108.777 106.036 109.106 106.497 109.335 107.102C109.565 107.705 109.681 108.432 109.681 109.286C109.681 110.145 109.566 110.878 109.338 111.485C109.11 112.09 108.781 112.552 108.35 112.873C107.92 113.191 107.402 113.349 106.797 113.349ZM106.797 112.323C107.33 112.323 107.747 112.063 108.047 111.543C108.349 111.022 108.5 110.27 108.5 109.286C108.5 108.632 108.431 108.08 108.293 107.629C108.157 107.175 107.961 106.832 107.705 106.599C107.451 106.363 107.148 106.245 106.797 106.245C106.267 106.245 105.85 106.506 105.548 107.029C105.245 107.552 105.093 108.304 105.09 109.286C105.09 109.942 105.158 110.497 105.294 110.951C105.432 111.402 105.629 111.744 105.882 111.977C106.136 112.208 106.441 112.323 106.797 112.323ZM111.044 113.219V112.358L113.709 109.597C113.993 109.297 114.227 109.035 114.412 108.809C114.599 108.581 114.739 108.365 114.831 108.16C114.923 107.954 114.969 107.737 114.969 107.506C114.969 107.245 114.908 107.019 114.785 106.829C114.662 106.637 114.494 106.49 114.281 106.387C114.069 106.282 113.829 106.23 113.562 106.23C113.28 106.23 113.034 106.287 112.824 106.403C112.614 106.518 112.453 106.681 112.34 106.891C112.227 107.101 112.171 107.347 112.171 107.629H111.037C111.037 107.15 111.147 106.731 111.367 106.372C111.588 106.013 111.89 105.735 112.275 105.538C112.659 105.338 113.096 105.238 113.585 105.238C114.08 105.238 114.516 105.336 114.893 105.534C115.272 105.729 115.568 105.995 115.781 106.333C115.993 106.669 116.1 107.048 116.1 107.471C116.1 107.764 116.045 108.049 115.934 108.329C115.827 108.608 115.638 108.919 115.369 109.263C115.1 109.604 114.726 110.018 114.247 110.505L112.682 112.142V112.2H116.227V113.219H111.044ZM122.282 113.349C121.908 113.349 121.57 113.28 121.268 113.142C120.965 113.001 120.725 112.797 120.549 112.531C120.374 112.264 120.287 111.937 120.287 111.55C120.287 111.217 120.351 110.943 120.479 110.728C120.608 110.512 120.781 110.342 120.998 110.216C121.216 110.091 121.46 109.996 121.729 109.932C121.998 109.868 122.272 109.819 122.552 109.786C122.905 109.745 123.192 109.711 123.413 109.686C123.633 109.658 123.793 109.613 123.893 109.551C123.993 109.49 124.043 109.39 124.043 109.251V109.224C124.043 108.889 123.948 108.629 123.759 108.444C123.572 108.259 123.292 108.167 122.921 108.167C122.534 108.167 122.229 108.253 122.006 108.425C121.785 108.594 121.633 108.782 121.548 108.99L120.468 108.744C120.596 108.385 120.783 108.095 121.029 107.875C121.278 107.652 121.564 107.491 121.887 107.391C122.209 107.288 122.549 107.237 122.905 107.237C123.141 107.237 123.391 107.265 123.655 107.321C123.921 107.375 124.17 107.475 124.401 107.621C124.634 107.767 124.825 107.976 124.974 108.248C125.122 108.517 125.197 108.867 125.197 109.297V113.219H124.074V112.411H124.028C123.954 112.56 123.842 112.706 123.693 112.85C123.545 112.993 123.354 113.112 123.121 113.207C122.887 113.302 122.608 113.349 122.282 113.349ZM122.532 112.427C122.85 112.427 123.122 112.364 123.347 112.238C123.575 112.113 123.748 111.949 123.866 111.746C123.987 111.541 124.047 111.322 124.047 111.089V110.328C124.006 110.369 123.927 110.407 123.809 110.443C123.693 110.476 123.561 110.506 123.413 110.532C123.264 110.555 123.119 110.576 122.978 110.597C122.837 110.615 122.719 110.63 122.625 110.643C122.402 110.671 122.198 110.719 122.013 110.785C121.831 110.852 121.685 110.948 121.575 111.074C121.467 111.197 121.414 111.361 121.414 111.566C121.414 111.85 121.519 112.065 121.729 112.212C121.939 112.355 122.207 112.427 122.532 112.427ZM126.728 113.219V107.314H127.831V108.275H127.904C128.027 107.949 128.228 107.696 128.508 107.514C128.787 107.329 129.121 107.237 129.511 107.237C129.906 107.237 130.236 107.329 130.503 107.514C130.772 107.698 130.971 107.952 131.099 108.275H131.16C131.301 107.96 131.525 107.708 131.833 107.521C132.14 107.332 132.507 107.237 132.932 107.237C133.468 107.237 133.905 107.405 134.243 107.74C134.584 108.076 134.755 108.582 134.755 109.259V113.219H133.605V109.367C133.605 108.967 133.496 108.677 133.278 108.498C133.061 108.318 132.8 108.229 132.498 108.229C132.124 108.229 131.833 108.344 131.625 108.575C131.418 108.803 131.314 109.096 131.314 109.455V113.219H130.168V109.294C130.168 108.973 130.068 108.716 129.868 108.521C129.669 108.326 129.408 108.229 129.088 108.229C128.87 108.229 128.669 108.286 128.484 108.402C128.302 108.514 128.155 108.672 128.042 108.875C127.932 109.077 127.877 109.312 127.877 109.578V113.219H126.728Z" fill="#9A9A9A"/>
<path d="M266.885 99.5792V100.579H263.395V99.5792H266.885ZM270.832 105V95.1581H271.462V105H270.832ZM272.804 98.2106C272.763 97.8466 272.594 97.5647 272.296 97.3648C271.999 97.1623 271.625 97.0611 271.174 97.0611C270.851 97.0611 270.571 97.1124 270.336 97.2149C270.1 97.3148 269.917 97.4532 269.786 97.6301C269.658 97.8044 269.594 98.003 269.594 98.226C269.594 98.4131 269.637 98.5745 269.724 98.7104C269.814 98.8462 269.931 98.9602 270.074 99.0525C270.22 99.1422 270.377 99.2178 270.543 99.2793C270.71 99.3383 270.87 99.387 271.024 99.4254L271.793 99.6253C272.044 99.6868 272.301 99.7701 272.565 99.8752C272.829 99.9803 273.074 100.119 273.3 100.29C273.525 100.462 273.707 100.675 273.846 100.929C273.986 101.182 274.057 101.486 274.057 101.84C274.057 102.286 273.942 102.682 273.711 103.028C273.483 103.374 273.151 103.647 272.715 103.846C272.282 104.046 271.758 104.146 271.143 104.146C270.553 104.146 270.043 104.053 269.613 103.866C269.182 103.679 268.845 103.413 268.602 103.07C268.358 102.724 268.224 102.314 268.198 101.84H269.39C269.413 102.124 269.505 102.361 269.667 102.551C269.831 102.738 270.04 102.878 270.293 102.97C270.55 103.06 270.83 103.105 271.135 103.105C271.471 103.105 271.77 103.052 272.031 102.947C272.295 102.839 272.503 102.691 272.654 102.501C272.805 102.309 272.881 102.084 272.881 101.828C272.881 101.595 272.814 101.404 272.681 101.255C272.55 101.107 272.372 100.984 272.146 100.886C271.923 100.789 271.671 100.703 271.389 100.629L270.459 100.375C269.828 100.203 269.328 99.9508 268.959 99.6176C268.593 99.2844 268.41 98.8436 268.41 98.2952C268.41 97.8415 268.533 97.4455 268.779 97.1072C269.025 96.7689 269.358 96.5062 269.778 96.3191C270.198 96.1295 270.673 96.0346 271.201 96.0346C271.734 96.0346 272.204 96.1282 272.611 96.3153C273.022 96.5024 273.344 96.76 273.58 97.088C273.816 97.4135 273.939 97.7877 273.949 98.2106H272.804ZM278.356 96.1423V104.016H277.164V97.3341H277.118L275.234 98.5643V97.4263L277.199 96.1423H278.356ZM280.486 104.016V103.154L283.15 100.394C283.434 100.094 283.669 99.8316 283.853 99.6061C284.041 99.378 284.18 99.1614 284.272 98.9564C284.365 98.7514 284.411 98.5335 284.411 98.3028C284.411 98.0414 284.349 97.8159 284.226 97.6262C284.103 97.434 283.935 97.2866 283.723 97.1841C283.51 97.079 283.27 97.0265 283.004 97.0265C282.722 97.0265 282.476 97.0842 282.266 97.1995C282.056 97.3148 281.894 97.4776 281.781 97.6877C281.669 97.8979 281.612 98.1439 281.612 98.4259H280.478C280.478 97.9466 280.588 97.5276 280.809 97.1687C281.029 96.8099 281.332 96.5319 281.716 96.3345C282.1 96.1346 282.537 96.0346 283.027 96.0346C283.522 96.0346 283.957 96.1333 284.334 96.3307C284.713 96.5254 285.009 96.792 285.222 97.1303C285.435 97.466 285.541 97.8454 285.541 98.2682C285.541 98.5604 285.486 98.8462 285.376 99.1255C285.268 99.4049 285.08 99.7163 284.811 100.06C284.542 100.401 284.167 100.815 283.688 101.301L282.123 102.939V102.997H285.668V104.016H280.486ZM287.898 104.089C287.688 104.089 287.507 104.014 287.356 103.866C287.204 103.714 287.129 103.533 287.129 103.32C287.129 103.11 287.204 102.93 287.356 102.782C287.507 102.63 287.688 102.555 287.898 102.555C288.108 102.555 288.289 102.63 288.44 102.782C288.591 102.93 288.667 103.11 288.667 103.32C288.667 103.461 288.631 103.59 288.559 103.708C288.49 103.823 288.398 103.916 288.282 103.985C288.167 104.054 288.039 104.089 287.898 104.089ZM292.587 104.123C292.036 104.123 291.549 104.028 291.126 103.839C290.706 103.649 290.376 103.388 290.138 103.055C289.9 102.721 289.782 102.342 289.784 101.917C289.782 101.583 289.85 101.277 289.988 100.998C290.129 100.716 290.32 100.481 290.561 100.294C290.802 100.105 291.071 99.9841 291.368 99.9329V99.8867C290.976 99.7919 290.662 99.5817 290.426 99.2563C290.191 98.9308 290.074 98.5566 290.077 98.1337C290.074 97.7313 290.18 97.3725 290.396 97.0573C290.614 96.7395 290.912 96.4896 291.291 96.3076C291.671 96.1256 292.103 96.0346 292.587 96.0346C293.066 96.0346 293.494 96.1269 293.871 96.3114C294.25 96.4934 294.549 96.7433 294.767 97.0611C294.985 97.3763 295.095 97.7339 295.097 98.1337C295.095 98.5566 294.974 98.9308 294.736 99.2563C294.498 99.5817 294.188 99.7919 293.806 99.8867V99.9329C294.1 99.9841 294.366 100.105 294.601 100.294C294.84 100.481 295.029 100.716 295.17 100.998C295.314 101.277 295.387 101.583 295.39 101.917C295.387 102.342 295.267 102.721 295.028 103.055C294.79 103.388 294.459 103.649 294.036 103.839C293.616 104.028 293.133 104.123 292.587 104.123ZM292.587 103.151C292.912 103.151 293.194 103.097 293.433 102.989C293.671 102.879 293.856 102.726 293.986 102.532C294.117 102.334 294.184 102.104 294.186 101.84C294.184 101.565 294.112 101.323 293.971 101.113C293.833 100.903 293.644 100.738 293.406 100.617C293.167 100.497 292.895 100.436 292.587 100.436C292.277 100.436 292.001 100.497 291.76 100.617C291.52 100.738 291.33 100.903 291.191 101.113C291.053 101.323 290.985 101.565 290.988 101.84C290.985 102.104 291.048 102.334 291.176 102.532C291.307 102.726 291.493 102.879 291.734 102.989C291.974 103.097 292.259 103.151 292.587 103.151ZM292.587 99.4869C292.848 99.4869 293.08 99.4344 293.283 99.3293C293.485 99.2242 293.644 99.0781 293.76 98.891C293.877 98.7039 293.938 98.4848 293.94 98.2336C293.938 97.9876 293.879 97.7723 293.763 97.5878C293.651 97.4033 293.493 97.261 293.291 97.1611C293.088 97.0585 292.854 97.0073 292.587 97.0073C292.315 97.0073 292.077 97.0585 291.872 97.1611C291.669 97.261 291.512 97.4033 291.399 97.5878C291.286 97.7723 291.231 97.9876 291.234 98.2336C291.231 98.4848 291.288 98.7039 291.403 98.891C291.518 99.0781 291.677 99.2242 291.88 99.3293C292.085 99.4344 292.32 99.4869 292.587 99.4869ZM299.427 104.123C298.876 104.123 298.389 104.028 297.966 103.839C297.546 103.649 297.217 103.388 296.978 103.055C296.74 102.721 296.622 102.342 296.625 101.917C296.622 101.583 296.69 101.277 296.828 100.998C296.969 100.716 297.16 100.481 297.401 100.294C297.642 100.105 297.911 99.9841 298.208 99.9329V99.8867C297.816 99.7919 297.502 99.5817 297.267 99.2563C297.031 98.9308 296.914 98.5566 296.917 98.1337C296.914 97.7313 297.021 97.3725 297.236 97.0573C297.454 96.7395 297.752 96.4896 298.132 96.3076C298.511 96.1256 298.943 96.0346 299.427 96.0346C299.906 96.0346 300.334 96.1269 300.711 96.3114C301.09 96.4934 301.389 96.7433 301.607 97.0611C301.825 97.3763 301.935 97.7339 301.938 98.1337C301.935 98.5566 301.815 98.9308 301.576 99.2563C301.338 99.5817 301.028 99.7919 300.646 99.8867V99.9329C300.941 99.9841 301.206 100.105 301.442 100.294C301.68 100.481 301.87 100.716 302.011 100.998C302.154 101.277 302.227 101.583 302.23 101.917C302.227 102.342 302.107 102.721 301.868 103.055C301.63 103.388 301.299 103.649 300.876 103.839C300.456 104.028 299.973 104.123 299.427 104.123ZM299.427 103.151C299.753 103.151 300.035 103.097 300.273 102.989C300.511 102.879 300.696 102.726 300.826 102.532C300.957 102.334 301.024 102.104 301.026 101.84C301.024 101.565 300.952 101.323 300.811 101.113C300.673 100.903 300.484 100.738 300.246 100.617C300.008 100.497 299.735 100.436 299.427 100.436C299.117 100.436 298.841 100.497 298.601 100.617C298.36 100.738 298.17 100.903 298.032 101.113C297.893 101.323 297.825 101.565 297.828 101.84C297.825 102.104 297.888 102.334 298.016 102.532C298.147 102.726 298.333 102.879 298.574 102.989C298.815 103.097 299.099 103.151 299.427 103.151ZM299.427 99.4869C299.689 99.4869 299.92 99.4344 300.123 99.3293C300.325 99.2242 300.484 99.0781 300.6 98.891C300.718 98.7039 300.778 98.4848 300.78 98.2336C300.778 97.9876 300.719 97.7723 300.604 97.5878C300.491 97.4033 300.333 97.261 300.131 97.1611C299.928 97.0585 299.694 97.0073 299.427 97.0073C299.155 97.0073 298.917 97.0585 298.712 97.1611C298.51 97.261 298.352 97.4033 298.239 97.5878C298.126 97.7723 298.071 97.9876 298.074 98.2336C298.071 98.4848 298.128 98.7039 298.243 98.891C298.358 99.0781 298.517 99.2242 298.72 99.3293C298.925 99.4344 299.161 99.4869 299.427 99.4869Z" fill="#9A9A9A"/>
<rect x="27.0645" y="143.438" width="48.7163" height="48.7163" rx="10.8258" fill="#1D2124"/>
<g clip-path="url(#clip1_590_14729)">
<path fill-rule="evenodd" clip-rule="evenodd" d="M64.9549 167.792C64.9549 175.265 58.8961 181.324 51.4228 181.324C43.949 181.324 37.8906 175.265 37.8906 167.792C37.8906 160.318 43.949 154.259 51.4228 154.259C58.8961 154.259 64.9549 160.318 64.9549 167.792Z" fill="#314E9C"/>
<path fill-rule="evenodd" clip-rule="evenodd" d="M49.303 171.876C49.303 170.61 49.2982 169.343 49.3076 168.077C49.3093 167.864 49.2489 167.797 49.0354 167.806C48.6408 167.822 48.2451 167.804 47.85 167.813C47.69 167.817 47.6311 167.773 47.6329 167.603C47.6408 166.813 47.64 166.023 47.6336 165.232C47.6322 165.08 47.678 165.03 47.8317 165.034C48.2357 165.043 48.6405 165.022 49.0438 165.042C49.2776 165.054 49.3259 164.971 49.321 164.754C49.307 164.153 49.307 163.55 49.3201 162.949C49.3362 162.214 49.5333 161.528 49.9709 160.931C50.5245 160.175 51.3117 159.829 52.2198 159.789C53.1524 159.747 54.0874 159.77 55.0212 159.76C55.1514 159.759 55.1902 159.805 55.1897 159.932C55.1855 160.731 55.1847 161.53 55.1902 162.33C55.1915 162.472 55.1451 162.515 55.0056 162.513C54.5564 162.506 54.1072 162.509 53.6584 162.511C53.0606 162.513 52.7029 162.82 52.6654 163.412C52.6353 163.886 52.6573 164.363 52.6463 164.839C52.6422 165.009 52.7429 164.997 52.8551 164.997C53.5375 164.996 54.2203 165.004 54.9027 164.992C55.103 164.988 55.1691 165.035 55.1462 165.245C55.0603 166.04 54.9865 166.835 54.9185 167.631C54.903 167.811 54.821 167.845 54.6596 167.842C54.1213 167.834 53.5823 167.837 53.0434 167.84C52.6564 167.842 52.694 167.784 52.694 168.178C52.6922 170.657 52.6888 173.136 52.6995 175.615C52.7006 175.876 52.6337 175.941 52.3747 175.937C51.4498 175.92 50.5245 175.919 49.5996 175.937C49.339 175.942 49.2961 175.854 49.2982 175.622C49.308 174.373 49.303 173.125 49.303 171.876" fill="white"/>
</g>
<path d="M87.5421 151.747H93.5951V153.208H89.1985V155.717H93.0471V157.179H89.1985V160.82H87.5421V151.747ZM96.2684 160.966C95.5702 160.966 95.014 160.796 94.5999 160.455C94.1939 160.114 93.9909 159.651 93.9909 159.067C93.9909 158.506 94.1818 158.043 94.5634 157.678C94.945 157.313 95.5174 157.069 96.2806 156.947L98.2536 156.631V156.411C98.2536 156.119 98.1399 155.88 97.9126 155.693C97.6934 155.506 97.4011 155.413 97.0357 155.413C96.6947 155.413 96.3902 155.506 96.1223 155.693C95.8625 155.872 95.6717 156.111 95.5499 156.411L94.2467 155.778C94.4416 155.259 94.7988 154.84 95.3185 154.524C95.8381 154.207 96.4308 154.049 97.0966 154.049C97.6325 154.049 98.1075 154.15 98.5216 154.353C98.9438 154.548 99.2685 154.828 99.4959 155.194C99.7313 155.551 99.8491 155.957 99.8491 156.411V160.82H98.3389V160.114C97.8192 160.682 97.1291 160.966 96.2684 160.966ZM95.6473 159.006C95.6473 159.233 95.7326 159.416 95.9031 159.554C96.0736 159.684 96.2928 159.749 96.5607 159.749C97.056 159.749 97.462 159.594 97.7786 159.286C98.0953 158.969 98.2536 158.579 98.2536 158.117V157.849L96.5851 158.129C96.2684 158.194 96.033 158.299 95.8787 158.445C95.7244 158.583 95.6473 158.77 95.6473 159.006ZM104.515 160.966C103.865 160.966 103.272 160.816 102.736 160.516C102.209 160.207 101.795 159.789 101.494 159.261C101.194 158.734 101.044 158.145 101.044 157.495C101.044 156.846 101.194 156.261 101.494 155.742C101.795 155.214 102.209 154.8 102.736 154.499C103.264 154.199 103.857 154.049 104.515 154.049C105.221 154.049 105.85 154.231 106.402 154.597C106.954 154.954 107.332 155.425 107.535 156.01L106.147 156.619C106.017 156.278 105.806 156.01 105.513 155.815C105.221 155.612 104.888 155.51 104.515 155.51C104.174 155.51 103.865 155.595 103.589 155.766C103.313 155.937 103.094 156.176 102.931 156.485C102.777 156.785 102.7 157.126 102.7 157.508C102.7 157.889 102.777 158.234 102.931 158.543C103.094 158.843 103.313 159.079 103.589 159.249C103.865 159.42 104.174 159.505 104.515 159.505C104.896 159.505 105.229 159.408 105.513 159.213C105.806 159.01 106.017 158.734 106.147 158.384L107.535 159.018C107.34 159.594 106.963 160.065 106.402 160.431C105.85 160.788 105.221 160.966 104.515 160.966ZM111.876 160.966C111.21 160.966 110.617 160.812 110.097 160.504C109.586 160.195 109.184 159.777 108.892 159.249C108.608 158.721 108.465 158.137 108.465 157.495C108.465 156.846 108.608 156.261 108.892 155.742C109.184 155.214 109.578 154.8 110.073 154.499C110.577 154.199 111.137 154.049 111.754 154.049C112.42 154.049 112.996 154.195 113.483 154.487C113.97 154.771 114.34 155.161 114.592 155.656C114.851 156.152 114.981 156.696 114.981 157.288C114.981 157.564 114.953 157.788 114.896 157.958H110.122C110.171 158.445 110.357 158.835 110.682 159.127C111.007 159.42 111.409 159.566 111.888 159.566C112.245 159.566 112.55 159.493 112.801 159.347C113.061 159.192 113.268 158.981 113.422 158.713L114.713 159.347C114.51 159.834 114.153 160.228 113.642 160.528C113.13 160.82 112.541 160.966 111.876 160.966ZM113.276 156.74C113.236 156.334 113.077 156.006 112.801 155.754C112.525 155.494 112.176 155.364 111.754 155.364C111.348 155.364 111.003 155.486 110.719 155.729C110.434 155.965 110.248 156.302 110.158 156.74H113.276ZM119.808 160.966C119.378 160.966 118.976 160.889 118.602 160.735C118.237 160.581 117.932 160.362 117.689 160.077V160.82H116.191L116.191 151.601H117.786V154.865C118.022 154.605 118.314 154.406 118.663 154.268C119.012 154.122 119.398 154.049 119.82 154.049C120.437 154.049 121.001 154.203 121.513 154.512C122.024 154.812 122.426 155.226 122.719 155.754C123.011 156.282 123.157 156.866 123.157 157.508C123.157 158.149 123.011 158.734 122.719 159.261C122.426 159.789 122.024 160.207 121.513 160.516C121.01 160.816 120.441 160.966 119.808 160.966ZM117.786 157.508C117.786 157.889 117.863 158.234 118.018 158.543C118.18 158.843 118.399 159.079 118.675 159.249C118.959 159.42 119.276 159.505 119.625 159.505C120.169 159.505 120.616 159.318 120.965 158.945C121.322 158.563 121.501 158.084 121.501 157.508C121.501 157.134 121.42 156.797 121.257 156.497C121.095 156.188 120.872 155.949 120.587 155.778C120.303 155.6 119.982 155.51 119.625 155.51C119.276 155.51 118.959 155.595 118.675 155.766C118.399 155.937 118.18 156.176 118.018 156.485C117.863 156.785 117.786 157.126 117.786 157.508ZM127.613 160.966C126.972 160.966 126.383 160.816 125.847 160.516C125.311 160.215 124.885 159.801 124.568 159.274C124.26 158.746 124.106 158.157 124.106 157.508C124.106 156.858 124.26 156.269 124.568 155.742C124.877 155.214 125.299 154.8 125.835 154.499C126.371 154.199 126.964 154.049 127.613 154.049C128.255 154.049 128.839 154.199 129.367 154.499C129.903 154.8 130.325 155.214 130.634 155.742C130.95 156.269 131.109 156.858 131.109 157.508C131.109 158.165 130.95 158.758 130.634 159.286C130.325 159.814 129.903 160.228 129.367 160.528C128.831 160.82 128.246 160.966 127.613 160.966ZM125.762 157.508C125.762 158.084 125.932 158.563 126.273 158.945C126.623 159.318 127.069 159.505 127.613 159.505C127.962 159.505 128.275 159.42 128.551 159.249C128.827 159.079 129.042 158.843 129.196 158.543C129.359 158.234 129.44 157.889 129.44 157.508C129.44 157.134 129.359 156.797 129.196 156.497C129.042 156.188 128.827 155.949 128.551 155.778C128.275 155.6 127.962 155.51 127.613 155.51C127.256 155.51 126.935 155.6 126.651 155.778C126.375 155.949 126.156 156.184 125.993 156.485C125.839 156.785 125.762 157.126 125.762 157.508ZM135.558 160.966C134.917 160.966 134.328 160.816 133.792 160.516C133.256 160.215 132.83 159.801 132.513 159.274C132.205 158.746 132.051 158.157 132.051 157.508C132.051 156.858 132.205 156.269 132.513 155.742C132.822 155.214 133.244 154.8 133.78 154.499C134.316 154.199 134.909 154.049 135.558 154.049C136.2 154.049 136.784 154.199 137.312 154.499C137.848 154.8 138.27 155.214 138.579 155.742C138.895 156.269 139.053 156.858 139.053 157.508C139.053 158.165 138.895 158.758 138.579 159.286C138.27 159.814 137.848 160.228 137.312 160.528C136.776 160.82 136.191 160.966 135.558 160.966ZM133.707 157.508C133.707 158.084 133.877 158.563 134.218 158.945C134.568 159.318 135.014 159.505 135.558 159.505C135.907 159.505 136.22 159.42 136.496 159.249C136.772 159.079 136.987 158.843 137.141 158.543C137.304 158.234 137.385 157.889 137.385 157.508C137.385 157.134 137.304 156.797 137.141 156.497C136.987 156.188 136.772 155.949 136.496 155.778C136.22 155.6 135.907 155.51 135.558 155.51C135.201 155.51 134.88 155.6 134.596 155.778C134.32 155.949 134.101 156.184 133.938 156.485C133.784 156.785 133.707 157.126 133.707 157.508ZM140.263 151.601H141.859V156.826L144.368 154.195H146.353L143.905 156.862L146.402 160.82H144.575L142.711 157.873L141.859 158.799V160.82H140.263V151.601Z" fill="white"/>
<path d="M90.1058 178.303C89.4984 178.3 88.9794 178.14 88.5488 177.822C88.1183 177.504 87.7889 177.042 87.5608 176.434C87.3327 175.827 87.2187 175.095 87.2187 174.239C87.2187 173.386 87.3327 172.656 87.5608 172.052C87.7915 171.447 88.1221 170.985 88.5527 170.668C88.9858 170.35 89.5035 170.191 90.1058 170.191C90.7081 170.191 91.2245 170.351 91.6551 170.671C92.0857 170.989 92.415 171.451 92.6431 172.055C92.8738 172.658 92.9891 173.386 92.9891 174.239C92.9891 175.098 92.8751 175.831 92.647 176.438C92.4189 177.043 92.0895 177.506 91.659 177.826C91.2284 178.144 90.7107 178.303 90.1058 178.303ZM90.1058 177.276C90.6389 177.276 91.0554 177.016 91.3553 176.496C91.6577 175.975 91.8089 175.223 91.8089 174.239C91.8089 173.586 91.7397 173.033 91.6013 172.582C91.4655 172.128 91.2694 171.785 91.0131 171.552C90.7594 171.316 90.4569 171.198 90.1058 171.198C89.5753 171.198 89.1588 171.46 88.8564 171.982C88.554 172.505 88.4015 173.257 88.3989 174.239C88.3989 174.895 88.4668 175.45 88.6027 175.904C88.7411 176.355 88.9371 176.697 89.1909 176.93C89.4446 177.161 89.7496 177.276 90.1058 177.276ZM97.34 170.299V178.172H96.1483V171.49H96.1021L94.2184 172.721V171.583L96.1829 170.299H97.34ZM100.243 177.195C100.032 177.195 99.8517 177.121 99.7005 176.972C99.5493 176.821 99.4737 176.639 99.4737 176.427C99.4737 176.216 99.5493 176.037 99.7005 175.888C99.8517 175.737 100.032 175.661 100.243 175.661C100.453 175.661 100.633 175.737 100.785 175.888C100.936 176.037 101.011 176.216 101.011 176.427C101.011 176.567 100.976 176.697 100.904 176.815C100.835 176.93 100.742 177.022 100.627 177.092C100.512 177.161 100.384 177.195 100.243 177.195ZM100.243 173.251C100.032 173.251 99.8517 173.177 99.7005 173.028C99.5493 172.877 99.4737 172.695 99.4737 172.482C99.4737 172.272 99.5493 172.093 99.7005 171.944C99.8517 171.793 100.032 171.717 100.243 171.717C100.453 171.717 100.633 171.793 100.785 171.944C100.936 172.093 101.011 172.272 101.011 172.482C101.011 172.623 100.976 172.753 100.904 172.87C100.835 172.986 100.742 173.078 100.627 173.147C100.512 173.216 100.384 173.251 100.243 173.251ZM105.135 178.28C104.653 178.28 104.22 178.187 103.835 178.003C103.453 177.816 103.148 177.559 102.92 177.234C102.692 176.908 102.57 176.537 102.555 176.119H103.708C103.736 176.457 103.886 176.735 104.158 176.953C104.43 177.171 104.755 177.28 105.135 177.28C105.437 177.28 105.705 177.211 105.938 177.072C106.174 176.931 106.358 176.738 106.492 176.492C106.627 176.246 106.695 175.965 106.695 175.65C106.695 175.33 106.626 175.044 106.488 174.793C106.349 174.541 106.158 174.344 105.915 174.201C105.674 174.057 105.397 173.984 105.085 173.981C104.846 173.981 104.607 174.022 104.366 174.104C104.125 174.187 103.93 174.294 103.781 174.427L102.693 174.266L103.135 170.299H107.464V171.317H104.123L103.874 173.52H103.92C104.073 173.371 104.277 173.247 104.531 173.147C104.787 173.047 105.062 172.997 105.354 172.997C105.833 172.997 106.26 173.111 106.634 173.339C107.011 173.568 107.307 173.879 107.522 174.274C107.74 174.666 107.847 175.117 107.845 175.627C107.847 176.137 107.732 176.592 107.499 176.992C107.268 177.391 106.948 177.707 106.538 177.937C106.13 178.165 105.663 178.28 105.135 178.28ZM111.848 178.28C111.366 178.28 110.933 178.187 110.548 178.003C110.167 177.816 109.862 177.559 109.633 177.234C109.405 176.908 109.284 176.537 109.268 176.119H110.422C110.45 176.457 110.6 176.735 110.871 176.953C111.143 177.171 111.469 177.28 111.848 177.28C112.15 177.28 112.418 177.211 112.651 177.072C112.887 176.931 113.072 176.738 113.205 176.492C113.341 176.246 113.409 175.965 113.409 175.65C113.409 175.33 113.339 175.044 113.201 174.793C113.063 174.541 112.872 174.344 112.628 174.201C112.387 174.057 112.111 173.984 111.798 173.981C111.56 173.981 111.32 174.022 111.079 174.104C110.838 174.187 110.643 174.294 110.495 174.427L109.407 174.266L109.849 170.299H114.178V171.317H110.837L110.587 173.52H110.633C110.787 173.371 110.991 173.247 111.244 173.147C111.501 173.047 111.775 172.997 112.067 172.997C112.546 172.997 112.973 173.111 113.347 173.339C113.724 173.568 114.02 173.879 114.235 174.274C114.453 174.666 114.561 175.117 114.558 175.627C114.561 176.137 114.445 176.592 114.212 176.992C113.981 177.391 113.661 177.707 113.251 177.937C112.844 178.165 112.376 178.28 111.848 178.28ZM118.843 180.386V172.267H119.965V173.224H120.061C120.128 173.101 120.224 172.959 120.35 172.797C120.475 172.636 120.65 172.495 120.873 172.375C121.096 172.251 121.39 172.19 121.757 172.19C122.233 172.19 122.659 172.31 123.033 172.551C123.407 172.792 123.701 173.14 123.913 173.593C124.129 174.047 124.236 174.593 124.236 175.231C124.236 175.869 124.13 176.416 123.917 176.872C123.705 177.326 123.412 177.676 123.041 177.922C122.669 178.165 122.245 178.287 121.768 178.287C121.41 178.287 121.116 178.227 120.888 178.107C120.662 177.986 120.486 177.845 120.357 177.684C120.229 177.522 120.131 177.379 120.061 177.253H119.992V180.386H118.843ZM119.969 175.219C119.969 175.635 120.029 175.999 120.15 176.311C120.27 176.624 120.445 176.869 120.673 177.045C120.901 177.22 121.18 177.307 121.511 177.307C121.854 177.307 122.141 177.216 122.372 177.034C122.603 176.849 122.777 176.6 122.895 176.284C123.015 175.969 123.075 175.614 123.075 175.219C123.075 174.83 123.016 174.48 122.899 174.17C122.783 173.86 122.609 173.615 122.376 173.436C122.145 173.256 121.857 173.166 121.511 173.166C121.178 173.166 120.896 173.252 120.665 173.424C120.437 173.596 120.264 173.835 120.146 174.143C120.028 174.45 119.969 174.809 119.969 175.219ZM125.524 178.172V172.267H126.628V173.228H126.701C126.824 172.902 127.025 172.649 127.304 172.467C127.584 172.282 127.918 172.19 128.308 172.19C128.702 172.19 129.033 172.282 129.3 172.467C129.569 172.651 129.767 172.905 129.895 173.228H129.957C130.098 172.913 130.322 172.662 130.63 172.474C130.937 172.285 131.304 172.19 131.729 172.19C132.265 172.19 132.702 172.358 133.04 172.694C133.381 173.029 133.551 173.536 133.551 174.212V178.172H132.402V174.32C132.402 173.92 132.293 173.63 132.075 173.451C131.857 173.272 131.597 173.182 131.295 173.182C130.921 173.182 130.63 173.297 130.422 173.528C130.214 173.756 130.111 174.049 130.111 174.408V178.172H128.965V174.247C128.965 173.926 128.865 173.669 128.665 173.474C128.465 173.279 128.205 173.182 127.885 173.182C127.667 173.182 127.466 173.24 127.281 173.355C127.099 173.468 126.952 173.625 126.839 173.828C126.729 174.03 126.674 174.265 126.674 174.531V178.172H125.524Z" fill="#9A9A9A"/>
<path d="M266.898 164.532V165.532H263.407V164.532H266.898ZM270.844 169.953V160.111H271.474V169.953H270.844ZM272.816 163.164C272.775 162.8 272.606 162.518 272.309 162.318C272.011 162.115 271.637 162.014 271.186 162.014C270.863 162.014 270.584 162.065 270.348 162.168C270.112 162.268 269.929 162.406 269.798 162.583C269.67 162.757 269.606 162.956 269.606 163.179C269.606 163.366 269.65 163.528 269.737 163.663C269.826 163.799 269.943 163.913 270.087 164.006C270.233 164.095 270.389 164.171 270.556 164.232C270.722 164.291 270.882 164.34 271.036 164.379L271.805 164.578C272.056 164.64 272.314 164.723 272.578 164.828C272.842 164.933 273.087 165.072 273.312 165.244C273.538 165.415 273.72 165.628 273.858 165.882C273.999 166.135 274.069 166.439 274.069 166.793C274.069 167.239 273.954 167.635 273.723 167.981C273.495 168.327 273.163 168.6 272.728 168.8C272.295 169 271.77 169.099 271.155 169.099C270.566 169.099 270.056 169.006 269.625 168.819C269.195 168.632 268.858 168.366 268.614 168.023C268.371 167.677 268.236 167.267 268.211 166.793H269.402C269.425 167.077 269.518 167.314 269.679 167.504C269.843 167.691 270.052 167.831 270.306 167.923C270.562 168.013 270.843 168.058 271.148 168.058C271.483 168.058 271.782 168.005 272.043 167.9C272.307 167.792 272.515 167.644 272.666 167.454C272.817 167.262 272.893 167.038 272.893 166.781C272.893 166.548 272.826 166.357 272.693 166.208C272.562 166.06 272.384 165.937 272.159 165.839C271.936 165.742 271.683 165.656 271.401 165.582L270.471 165.328C269.841 165.156 269.341 164.904 268.972 164.571C268.605 164.238 268.422 163.797 268.422 163.248C268.422 162.795 268.545 162.399 268.791 162.06C269.037 161.722 269.37 161.459 269.791 161.272C270.211 161.083 270.685 160.988 271.213 160.988C271.746 160.988 272.216 161.081 272.624 161.268C273.034 161.456 273.357 161.713 273.593 162.041C273.828 162.367 273.952 162.741 273.962 163.164H272.816ZM275.381 168.969V168.108L278.045 165.347C278.33 165.047 278.564 164.785 278.749 164.559C278.936 164.331 279.076 164.115 279.168 163.91C279.26 163.704 279.306 163.487 279.306 163.256C279.306 162.995 279.245 162.769 279.122 162.579C278.999 162.387 278.831 162.24 278.618 162.137C278.406 162.032 278.166 161.98 277.899 161.98C277.617 161.98 277.371 162.037 277.161 162.153C276.951 162.268 276.79 162.431 276.677 162.641C276.564 162.851 276.508 163.097 276.508 163.379H275.374C275.374 162.9 275.484 162.481 275.704 162.122C275.925 161.763 276.227 161.485 276.612 161.288C276.996 161.088 277.433 160.988 277.922 160.988C278.417 160.988 278.853 161.086 279.23 161.284C279.609 161.479 279.905 161.745 280.118 162.083C280.33 162.419 280.437 162.798 280.437 163.221C280.437 163.514 280.382 163.799 280.271 164.079C280.164 164.358 279.975 164.669 279.706 165.013C279.437 165.354 279.063 165.768 278.584 166.255L277.019 167.892V167.95H280.564V168.969H275.381ZM284.762 169.076C284.234 169.076 283.762 168.985 283.347 168.803C282.934 168.621 282.608 168.369 282.367 168.046C282.128 167.721 282 167.344 281.982 166.916H283.189C283.205 167.149 283.283 167.352 283.424 167.523C283.567 167.692 283.754 167.823 283.985 167.915C284.216 168.008 284.472 168.054 284.754 168.054C285.064 168.054 285.338 168 285.577 167.892C285.818 167.785 286.006 167.635 286.142 167.443C286.278 167.248 286.346 167.023 286.346 166.77C286.346 166.506 286.278 166.274 286.142 166.074C286.009 165.871 285.812 165.713 285.554 165.597C285.297 165.482 284.987 165.424 284.623 165.424H283.958V164.455H284.623C284.915 164.455 285.172 164.403 285.392 164.298C285.615 164.193 285.789 164.047 285.915 163.86C286.041 163.67 286.103 163.448 286.103 163.194C286.103 162.951 286.048 162.74 285.938 162.56C285.83 162.378 285.677 162.236 285.477 162.133C285.279 162.031 285.046 161.98 284.777 161.98C284.521 161.98 284.281 162.027 284.058 162.122C283.838 162.214 283.658 162.347 283.52 162.522C283.382 162.693 283.307 162.9 283.297 163.141H282.147C282.16 162.715 282.286 162.341 282.524 162.018C282.765 161.695 283.083 161.443 283.478 161.261C283.872 161.079 284.311 160.988 284.792 160.988C285.297 160.988 285.733 161.086 286.1 161.284C286.469 161.479 286.753 161.739 286.953 162.064C287.155 162.39 287.255 162.746 287.253 163.133C287.255 163.574 287.132 163.948 286.884 164.256C286.638 164.563 286.31 164.769 285.9 164.874V164.936C286.422 165.015 286.827 165.223 287.114 165.559C287.404 165.895 287.548 166.311 287.545 166.808C287.548 167.241 287.427 167.63 287.184 167.973C286.943 168.316 286.613 168.587 286.196 168.784C285.778 168.979 285.3 169.076 284.762 169.076ZM289.538 169.042C289.328 169.042 289.147 168.967 288.996 168.819C288.845 168.668 288.769 168.486 288.769 168.273C288.769 168.063 288.845 167.883 288.996 167.735C289.147 167.583 289.328 167.508 289.538 167.508C289.748 167.508 289.929 167.583 290.08 167.735C290.232 167.883 290.307 168.063 290.307 168.273C290.307 168.414 290.271 168.543 290.2 168.661C290.13 168.777 290.038 168.869 289.923 168.938C289.807 169.007 289.679 169.042 289.538 169.042ZM294.287 169.076C293.759 169.076 293.288 168.985 292.872 168.803C292.46 168.621 292.133 168.369 291.892 168.046C291.654 167.721 291.526 167.344 291.508 166.916H292.715C292.73 167.149 292.808 167.352 292.949 167.523C293.093 167.692 293.28 167.823 293.511 167.915C293.741 168.008 293.998 168.054 294.279 168.054C294.59 168.054 294.864 168 295.102 167.892C295.343 167.785 295.531 167.635 295.667 167.443C295.803 167.248 295.871 167.023 295.871 166.77C295.871 166.506 295.803 166.274 295.667 166.074C295.534 165.871 295.338 165.713 295.079 165.597C294.823 165.482 294.513 165.424 294.149 165.424H293.484V164.455H294.149C294.441 164.455 294.697 164.403 294.918 164.298C295.141 164.193 295.315 164.047 295.44 163.86C295.566 163.67 295.629 163.448 295.629 163.194C295.629 162.951 295.574 162.74 295.464 162.56C295.356 162.378 295.202 162.236 295.002 162.133C294.805 162.031 294.572 161.98 294.302 161.98C294.046 161.98 293.807 162.027 293.584 162.122C293.363 162.214 293.184 162.347 293.045 162.522C292.907 162.693 292.833 162.9 292.822 163.141H291.673C291.686 162.715 291.811 162.341 292.05 162.018C292.291 161.695 292.608 161.443 293.003 161.261C293.398 161.079 293.836 160.988 294.318 160.988C294.823 160.988 295.258 161.086 295.625 161.284C295.994 161.479 296.279 161.739 296.478 162.064C296.681 162.39 296.781 162.746 296.778 163.133C296.781 163.574 296.658 163.948 296.409 164.256C296.163 164.563 295.835 164.769 295.425 164.874V164.936C295.948 165.015 296.353 165.223 296.64 165.559C296.93 165.895 297.073 166.311 297.07 166.808C297.073 167.241 296.953 167.63 296.709 167.973C296.468 168.316 296.139 168.587 295.721 168.784C295.303 168.979 294.825 169.076 294.287 169.076ZM298.358 167.431V166.47L301.761 161.095H302.518V162.51H302.037L299.604 166.362V166.424H304.267V167.431H298.358ZM302.091 168.969V167.139L302.099 166.701L302.099 161.095H303.225V168.969H302.091Z" fill="#9A9A9A"/>
<rect x="27.0645" y="208.395" width="48.7163" height="48.7163" rx="10.8258" fill="#1D2124"/>
<g clip-path="url(#clip2_590_14729)">
<path d="M47.6303 221.257C44.592 222.302 42.005 224.584 40.5705 227.469C40.0711 228.463 39.7065 229.524 39.4875 230.615C38.9365 233.334 39.3206 236.232 40.5691 238.709C41.3805 240.325 42.5438 241.762 43.9549 242.888C45.2861 243.955 46.8378 244.742 48.483 245.182C50.559 245.741 52.7688 245.728 54.8584 245.251C56.747 244.814 58.5339 243.908 59.9605 242.585C61.4685 241.193 62.5441 239.359 63.1136 237.388C63.7347 235.238 63.8205 232.943 63.431 230.743C59.522 230.741 55.6128 230.742 51.7039 230.742C51.7043 232.371 51.7019 233.999 51.7048 235.628C53.9687 235.627 56.2325 235.627 58.4959 235.628C58.2335 237.188 57.3102 238.615 56.0009 239.494C55.1777 240.05 54.232 240.411 53.257 240.582C52.2758 240.75 51.2619 240.772 50.283 240.573C49.2877 240.373 48.3375 239.957 47.5086 239.37C46.1832 238.434 45.1717 237.066 44.6524 235.526C44.1213 233.959 44.1174 232.216 44.6548 230.651C45.0277 229.548 45.6482 228.53 46.4636 227.7C47.4692 226.666 48.7766 225.927 50.1852 225.624C51.3914 225.365 52.6632 225.415 53.8441 225.774C54.8477 226.08 55.773 226.632 56.5309 227.359C57.297 226.594 58.0593 225.824 58.8239 225.058C59.225 224.645 59.6466 224.251 60.035 223.827C58.8737 222.747 57.5122 221.879 56.0247 221.331C53.3466 220.341 50.3263 220.32 47.6303 221.257" fill="white"/>
<path d="M47.6301 221.258C50.3261 220.321 53.3464 220.342 56.0245 221.332C57.5119 221.88 58.8734 222.748 60.0348 223.828C59.6464 224.251 59.2248 224.646 58.8237 225.059C58.0591 225.825 57.2968 226.595 56.5307 227.36C55.7728 226.633 54.8475 226.081 53.8438 225.775C52.663 225.416 51.3911 225.366 50.185 225.625C48.7764 225.928 47.469 226.667 46.4633 227.701C45.648 228.53 45.0275 229.549 44.6546 230.652C43.2932 229.591 41.9322 228.53 40.5703 227.47C42.0048 224.585 44.5918 222.303 47.6301 221.258" fill="#EB3131"/>
<path d="M39.4875 230.613C39.7065 229.522 40.0711 228.461 40.5705 227.467C41.9325 228.527 43.2934 229.589 44.6548 230.65C44.1174 232.215 44.1213 233.958 44.6524 235.524C43.2915 236.585 41.9315 237.648 40.5691 238.707C39.3206 236.231 38.9365 233.332 39.4875 230.613Z" fill="#F6B70B"/>
<path d="M51.7036 230.74C55.6126 230.739 59.5217 230.738 63.4307 230.74C63.8202 232.941 63.7345 235.236 63.1134 237.385C62.5439 239.356 61.4682 241.19 59.9603 242.582C58.6421 241.55 57.3188 240.524 56.0006 239.491C57.3099 238.613 58.2333 237.185 58.4957 235.625C56.2323 235.624 53.9684 235.624 51.7046 235.625C51.7017 233.997 51.7041 232.368 51.7036 230.74" fill="#5878C5"/>
<path d="M40.5703 238.709C41.9327 237.649 43.2927 236.587 44.6536 235.526C45.173 237.066 46.1844 238.434 47.5098 239.37C48.3387 239.957 49.2889 240.373 50.2842 240.573C51.2631 240.772 52.277 240.75 53.2583 240.582C54.2332 240.411 55.179 240.05 56.0021 239.494C57.3202 240.527 58.6436 241.553 59.9617 242.585C58.5351 243.908 56.7482 244.814 54.8596 245.251C52.77 245.728 50.5603 245.741 48.4843 245.182C46.8391 244.742 45.2873 243.955 43.9561 242.888C42.545 241.762 41.3817 240.325 40.5703 238.709Z" fill="#3CAD49"/>
</g>
<path d="M92.1832 225.923C91.3307 225.923 90.5553 225.721 89.857 225.315C89.1588 224.909 88.6107 224.348 88.2129 223.634C87.815 222.919 87.6161 222.12 87.6161 221.235C87.6161 220.35 87.8109 219.55 88.2007 218.835C88.5985 218.121 89.1385 217.565 89.8205 217.167C90.5106 216.761 91.286 216.558 92.1467 216.558C92.7719 216.558 93.3443 216.667 93.8639 216.887C94.3836 217.098 94.822 217.386 95.1793 217.751C95.5447 218.109 95.8085 218.506 95.9709 218.945L94.4973 219.651C94.3186 219.172 94.0223 218.791 93.6082 218.506C93.2022 218.214 92.715 218.068 92.1467 218.068C91.5865 218.068 91.0871 218.202 90.6487 218.47C90.2102 218.73 89.8692 219.099 89.6256 219.578C89.3902 220.057 89.2724 220.609 89.2724 221.235C89.2724 221.86 89.3942 222.416 89.6378 222.903C89.8895 223.382 90.2346 223.756 90.673 224.024C91.1196 224.283 91.623 224.413 92.1832 224.413C92.646 224.413 93.0723 224.32 93.462 224.133C93.8599 223.946 94.1725 223.683 94.3998 223.342C94.6353 223.001 94.753 222.607 94.753 222.16V222.124H92.1467V220.723H96.4094V221.636C96.4094 222.538 96.2104 223.313 95.8126 223.963C95.4229 224.604 94.9032 225.091 94.2537 225.424C93.6122 225.757 92.9221 225.923 92.1832 225.923ZM100.826 225.923C100.184 225.923 99.5956 225.773 99.0597 225.473C98.5239 225.172 98.0976 224.758 97.7809 224.231C97.4724 223.703 97.3181 223.114 97.3181 222.465C97.3181 221.815 97.4724 221.226 97.7809 220.699C98.0895 220.171 98.5117 219.757 99.0476 219.456C99.5834 219.156 100.176 219.006 100.826 219.006C101.467 219.006 102.052 219.156 102.579 219.456C103.115 219.757 103.538 220.171 103.846 220.699C104.163 221.226 104.321 221.815 104.321 222.465C104.321 223.122 104.163 223.715 103.846 224.243C103.538 224.771 103.115 225.185 102.579 225.485C102.044 225.777 101.459 225.923 100.826 225.923ZM98.9745 222.465C98.9745 223.041 99.145 223.52 99.486 223.902C99.8351 224.275 100.282 224.462 100.826 224.462C101.175 224.462 101.487 224.377 101.763 224.206C102.04 224.036 102.255 223.8 102.409 223.5C102.571 223.191 102.653 222.846 102.653 222.465C102.653 222.091 102.571 221.754 102.409 221.454C102.255 221.145 102.04 220.906 101.763 220.735C101.487 220.557 101.175 220.467 100.826 220.467C100.468 220.467 100.148 220.557 99.8636 220.735C99.5875 220.906 99.3683 221.141 99.2059 221.442C99.0516 221.742 98.9745 222.083 98.9745 222.465ZM108.771 225.923C108.129 225.923 107.541 225.773 107.005 225.473C106.469 225.172 106.043 224.758 105.726 224.231C105.417 223.703 105.263 223.114 105.263 222.465C105.263 221.815 105.417 221.226 105.726 220.699C106.034 220.171 106.457 219.757 106.992 219.456C107.528 219.156 108.121 219.006 108.771 219.006C109.412 219.006 109.997 219.156 110.524 219.456C111.06 219.757 111.483 220.171 111.791 220.699C112.108 221.226 112.266 221.815 112.266 222.465C112.266 223.122 112.108 223.715 111.791 224.243C111.483 224.771 111.06 225.185 110.524 225.485C109.989 225.777 109.404 225.923 108.771 225.923ZM106.919 222.465C106.919 223.041 107.09 223.52 107.431 223.902C107.78 224.275 108.227 224.462 108.771 224.462C109.12 224.462 109.432 224.377 109.708 224.206C109.984 224.036 110.2 223.8 110.354 223.5C110.516 223.191 110.598 222.846 110.598 222.465C110.598 222.091 110.516 221.754 110.354 221.454C110.2 221.145 109.984 220.906 109.708 220.735C109.432 220.557 109.12 220.467 108.771 220.467C108.413 220.467 108.093 220.557 107.808 220.735C107.532 220.906 107.313 221.141 107.151 221.442C106.997 221.742 106.919 222.083 106.919 222.465ZM116.691 228.457C115.944 228.457 115.287 228.278 114.718 227.921C114.158 227.572 113.772 227.105 113.561 226.52L115.047 225.96C115.144 226.277 115.339 226.528 115.632 226.715C115.924 226.902 116.277 226.995 116.691 226.995C117.178 226.995 117.572 226.857 117.873 226.581C118.181 226.305 118.335 225.928 118.335 225.449V224.73C117.864 225.25 117.227 225.509 116.423 225.509C115.814 225.509 115.262 225.367 114.767 225.083C114.28 224.799 113.898 224.409 113.622 223.914C113.346 223.419 113.208 222.862 113.208 222.245C113.208 221.628 113.342 221.076 113.61 220.589C113.886 220.094 114.268 219.708 114.755 219.432C115.242 219.148 115.786 219.006 116.387 219.006C117.239 219.006 117.917 219.306 118.421 219.907V219.152H119.931V225.449C119.931 226.025 119.793 226.541 119.517 226.995C119.241 227.458 118.855 227.815 118.36 228.067C117.873 228.327 117.316 228.457 116.691 228.457ZM114.864 222.258C114.864 222.769 115.027 223.195 115.352 223.536C115.684 223.869 116.107 224.036 116.618 224.036C117.122 224.036 117.532 223.869 117.848 223.536C118.173 223.204 118.335 222.777 118.335 222.258C118.335 221.738 118.173 221.312 117.848 220.979C117.523 220.638 117.113 220.467 116.618 220.467C116.115 220.467 115.697 220.638 115.364 220.979C115.031 221.32 114.864 221.746 114.864 222.258ZM121.421 216.558H123.016V225.777H121.421L121.421 216.558ZM127.632 225.923C126.966 225.923 126.373 225.769 125.853 225.461C125.342 225.152 124.94 224.734 124.648 224.206C124.364 223.678 124.221 223.094 124.221 222.452C124.221 221.803 124.364 221.218 124.648 220.699C124.94 220.171 125.334 219.757 125.829 219.456C126.333 219.156 126.893 219.006 127.51 219.006C128.176 219.006 128.752 219.152 129.239 219.444C129.726 219.728 130.096 220.118 130.348 220.613C130.607 221.109 130.737 221.653 130.737 222.245C130.737 222.521 130.709 222.745 130.652 222.915H125.878C125.927 223.402 126.113 223.792 126.438 224.084C126.763 224.377 127.165 224.523 127.644 224.523C128.001 224.523 128.306 224.45 128.557 224.304C128.817 224.149 129.024 223.938 129.178 223.67L130.469 224.304C130.266 224.791 129.909 225.185 129.398 225.485C128.886 225.777 128.297 225.923 127.632 225.923ZM129.032 221.697C128.992 221.291 128.833 220.963 128.557 220.711C128.281 220.451 127.932 220.321 127.51 220.321C127.104 220.321 126.759 220.443 126.475 220.686C126.19 220.922 126.004 221.259 125.914 221.697H129.032Z" fill="white"/>
<path d="M90.1039 243.26C89.4965 243.257 88.9775 243.097 88.5469 242.779C88.1163 242.461 87.787 241.999 87.5589 241.391C87.3308 240.784 87.2167 240.052 87.2167 239.196C87.2167 238.343 87.3308 237.613 87.5589 237.009C87.7895 236.404 88.1202 235.942 88.5507 235.625C88.9839 235.307 89.5016 235.148 90.1039 235.148C90.7062 235.148 91.2226 235.308 91.6532 235.628C92.0837 235.946 92.4131 236.408 92.6412 237.012C92.8718 237.615 92.9872 238.343 92.9872 239.196C92.9872 240.055 92.8731 240.788 92.645 241.395C92.4169 242 92.0876 242.463 91.657 242.783C91.2264 243.101 90.7087 243.26 90.1039 243.26ZM90.1039 242.233C90.637 242.233 91.0534 241.973 91.3533 241.453C91.6557 240.932 91.8069 240.18 91.8069 239.196C91.8069 238.543 91.7377 237.99 91.5993 237.539C91.4635 237.086 91.2674 236.742 91.0112 236.509C90.7574 236.273 90.455 236.155 90.1039 236.155C89.5733 236.155 89.1569 236.417 88.8544 236.939C88.552 237.462 88.3995 238.214 88.397 239.196C88.397 239.852 88.4649 240.407 88.6007 240.861C88.7391 241.312 88.9352 241.654 89.1889 241.887C89.4426 242.118 89.7476 242.233 90.1039 242.233ZM96.9498 243.237C96.468 243.237 96.0348 243.144 95.6504 242.96C95.2685 242.773 94.9635 242.516 94.7354 242.191C94.5073 241.865 94.3856 241.494 94.3702 241.076H95.5235C95.5517 241.414 95.7016 241.692 95.9733 241.91C96.245 242.128 96.5705 242.237 96.9498 242.237C97.2522 242.237 97.52 242.168 97.7533 242.029C97.9891 241.888 98.1736 241.695 98.3069 241.449C98.4427 241.203 98.5106 240.922 98.5106 240.607C98.5106 240.287 98.4414 240.001 98.303 239.75C98.1646 239.499 97.9737 239.301 97.7302 239.158C97.4893 239.014 97.2125 238.941 96.8998 238.939C96.6615 238.939 96.4218 238.98 96.1809 239.062C95.94 239.144 95.7452 239.251 95.5966 239.384L94.5086 239.223L94.9507 235.256H99.2795V236.274H95.9387L95.6888 238.477H95.735C95.8887 238.329 96.0925 238.204 96.3462 238.104C96.6025 238.004 96.8767 237.954 97.1689 237.954C97.6482 237.954 98.0749 238.068 98.4491 238.296C98.8259 238.525 99.1219 238.836 99.3372 239.231C99.555 239.623 99.6627 240.074 99.6601 240.584C99.6627 241.094 99.5473 241.549 99.3141 241.949C99.0834 242.348 98.7631 242.664 98.353 242.894C97.9455 243.122 97.4778 243.237 96.9498 243.237ZM101.837 242.152C101.627 242.152 101.446 242.078 101.295 241.929C101.144 241.778 101.068 241.596 101.068 241.384C101.068 241.173 101.144 240.994 101.295 240.845C101.446 240.694 101.627 240.619 101.837 240.619C102.047 240.619 102.228 240.694 102.379 240.845C102.53 240.994 102.606 241.173 102.606 241.384C102.606 241.525 102.57 241.654 102.498 241.772C102.429 241.887 102.337 241.979 102.221 242.049C102.106 242.118 101.978 242.152 101.837 242.152ZM101.837 238.208C101.627 238.208 101.446 238.134 101.295 237.985C101.144 237.834 101.068 237.652 101.068 237.439C101.068 237.229 101.144 237.05 101.295 236.901C101.446 236.75 101.627 236.674 101.837 236.674C102.047 236.674 102.228 236.75 102.379 236.901C102.53 237.05 102.606 237.229 102.606 237.439C102.606 237.58 102.57 237.71 102.498 237.827C102.429 237.943 102.337 238.035 102.221 238.104C102.106 238.173 101.978 238.208 101.837 238.208ZM103.965 241.591V240.63L107.367 235.256H108.125V236.67H107.644L105.21 240.522V240.584H109.874V241.591H103.965ZM107.698 243.129V241.299L107.705 240.861V235.256H108.832V243.129H107.698ZM113.832 235.148C114.183 235.15 114.529 235.215 114.87 235.34C115.21 235.466 115.518 235.671 115.792 235.955C116.069 236.24 116.289 236.624 116.453 237.109C116.62 237.59 116.705 238.19 116.707 238.908C116.707 239.597 116.638 240.211 116.5 240.749C116.361 241.285 116.163 241.737 115.904 242.106C115.647 242.475 115.336 242.756 114.969 242.948C114.603 243.14 114.19 243.237 113.732 243.237C113.263 243.237 112.846 243.144 112.482 242.96C112.118 242.775 111.822 242.52 111.594 242.195C111.366 241.867 111.224 241.49 111.167 241.064H112.34C112.417 241.403 112.573 241.677 112.809 241.887C113.047 242.095 113.355 242.199 113.732 242.199C114.308 242.199 114.758 241.947 115.081 241.445C115.404 240.94 115.567 240.235 115.569 239.331H115.508C115.374 239.551 115.208 239.741 115.008 239.9C114.811 240.059 114.589 240.182 114.343 240.269C114.097 240.356 113.834 240.399 113.555 240.399C113.101 240.399 112.688 240.288 112.317 240.065C111.945 239.842 111.649 239.536 111.429 239.146C111.208 238.757 111.098 238.312 111.098 237.812C111.098 237.315 111.211 236.864 111.436 236.459C111.665 236.054 111.982 235.734 112.39 235.498C112.8 235.259 113.28 235.143 113.832 235.148ZM113.835 236.147C113.536 236.147 113.265 236.222 113.024 236.37C112.786 236.517 112.597 236.715 112.459 236.966C112.321 237.215 112.251 237.492 112.251 237.797C112.251 238.102 112.318 238.379 112.451 238.627C112.587 238.873 112.772 239.069 113.005 239.215C113.241 239.359 113.51 239.431 113.812 239.431C114.038 239.431 114.248 239.387 114.443 239.3C114.638 239.213 114.808 239.092 114.954 238.939C115.1 238.782 115.214 238.605 115.296 238.408C115.378 238.211 115.419 238.003 115.419 237.785C115.419 237.496 115.35 237.226 115.212 236.978C115.076 236.729 114.889 236.529 114.65 236.378C114.412 236.224 114.14 236.147 113.835 236.147ZM120.976 245.343V237.224H122.099V238.181H122.195C122.262 238.058 122.358 237.916 122.483 237.754C122.609 237.593 122.783 237.452 123.006 237.332C123.229 237.209 123.524 237.147 123.89 237.147C124.367 237.147 124.793 237.267 125.167 237.508C125.541 237.749 125.834 238.097 126.047 238.55C126.262 239.004 126.37 239.55 126.37 240.188C126.37 240.826 126.264 241.373 126.051 241.829C125.838 242.283 125.546 242.633 125.174 242.879C124.803 243.122 124.379 243.244 123.902 243.244C123.543 243.244 123.25 243.184 123.022 243.064C122.796 242.943 122.619 242.802 122.491 242.641C122.363 242.479 122.264 242.336 122.195 242.21H122.126V245.343H120.976ZM122.103 240.176C122.103 240.592 122.163 240.956 122.283 241.268C122.404 241.581 122.578 241.826 122.806 242.002C123.034 242.177 123.314 242.264 123.644 242.264C123.988 242.264 124.275 242.173 124.506 241.991C124.736 241.806 124.91 241.557 125.028 241.241C125.149 240.926 125.209 240.571 125.209 240.176C125.209 239.787 125.15 239.437 125.032 239.127C124.917 238.817 124.743 238.572 124.509 238.393C124.279 238.213 123.99 238.123 123.644 238.123C123.311 238.123 123.029 238.209 122.799 238.381C122.57 238.553 122.397 238.792 122.28 239.1C122.162 239.408 122.103 239.766 122.103 240.176ZM127.658 243.129V237.224H128.761V238.185H128.834C128.957 237.86 129.159 237.606 129.438 237.424C129.717 237.239 130.052 237.147 130.441 237.147C130.836 237.147 131.167 237.239 131.433 237.424C131.702 237.608 131.901 237.862 132.029 238.185H132.091C132.231 237.87 132.456 237.619 132.763 237.432C133.071 237.242 133.437 237.147 133.863 237.147C134.398 237.147 134.835 237.315 135.174 237.651C135.515 237.986 135.685 238.493 135.685 239.169V243.129H134.536V239.277C134.536 238.877 134.427 238.587 134.209 238.408C133.991 238.229 133.731 238.139 133.428 238.139C133.054 238.139 132.763 238.254 132.556 238.485C132.348 238.713 132.244 239.006 132.244 239.365V243.129H131.099V239.204C131.099 238.883 130.999 238.626 130.799 238.431C130.599 238.236 130.339 238.139 130.018 238.139C129.801 238.139 129.599 238.197 129.415 238.312C129.233 238.425 129.085 238.582 128.973 238.785C128.862 238.987 128.807 239.222 128.807 239.488V243.129H127.658Z" fill="#9A9A9A"/>
<path d="M266.75 229.489V230.489H263.259V229.489H266.75ZM270.696 234.91V225.068H271.326V234.91H270.696ZM272.668 228.121C272.627 227.757 272.458 227.475 272.161 227.275C271.863 227.072 271.489 226.971 271.038 226.971C270.715 226.971 270.436 227.023 270.2 227.125C269.964 227.225 269.781 227.363 269.65 227.54C269.522 227.715 269.458 227.913 269.458 228.136C269.458 228.323 269.502 228.485 269.589 228.621C269.678 228.756 269.795 228.87 269.939 228.963C270.085 229.052 270.241 229.128 270.408 229.189C270.574 229.248 270.734 229.297 270.888 229.336L271.657 229.535C271.908 229.597 272.166 229.68 272.43 229.785C272.694 229.89 272.939 230.029 273.164 230.201C273.39 230.372 273.572 230.585 273.71 230.839C273.851 231.092 273.921 231.396 273.921 231.75C273.921 232.196 273.806 232.592 273.575 232.938C273.347 233.284 273.015 233.557 272.58 233.757C272.147 233.957 271.622 234.056 271.007 234.056C270.418 234.056 269.908 233.963 269.477 233.776C269.047 233.589 268.71 233.323 268.466 232.98C268.223 232.634 268.088 232.224 268.063 231.75H269.254C269.277 232.034 269.37 232.271 269.531 232.461C269.695 232.648 269.904 232.788 270.158 232.88C270.414 232.97 270.695 233.015 271 233.015C271.335 233.015 271.634 232.962 271.895 232.857C272.159 232.749 272.367 232.601 272.518 232.411C272.669 232.219 272.745 231.995 272.745 231.738C272.745 231.505 272.678 231.314 272.545 231.166C272.414 231.017 272.236 230.894 272.011 230.796C271.788 230.699 271.535 230.613 271.253 230.539L270.323 230.285C269.693 230.113 269.193 229.861 268.824 229.528C268.457 229.195 268.274 228.754 268.274 228.205C268.274 227.752 268.397 227.356 268.643 227.017C268.889 226.679 269.222 226.416 269.643 226.229C270.063 226.04 270.537 225.945 271.065 225.945C271.598 225.945 272.068 226.038 272.476 226.225C272.886 226.413 273.209 226.67 273.445 226.998C273.68 227.324 273.804 227.698 273.814 228.121H272.668ZM275.068 232.388V231.427L278.47 226.052H279.228L279.228 227.467H278.747L276.314 231.319V231.381H280.977V232.388H275.068ZM278.801 233.926V232.096L278.809 231.658L278.809 226.052H279.935V233.926H278.801ZM284.935 225.945C285.286 225.947 285.632 226.011 285.973 226.137C286.314 226.263 286.621 226.468 286.895 226.752C287.172 227.037 287.393 227.421 287.557 227.905C287.723 228.387 287.808 228.987 287.81 229.705C287.81 230.394 287.741 231.008 287.603 231.546C287.464 232.082 287.266 232.534 287.007 232.903C286.75 233.272 286.439 233.553 286.073 233.745C285.706 233.937 285.293 234.033 284.835 234.033C284.366 234.033 283.949 233.941 283.585 233.757C283.221 233.572 282.925 233.317 282.697 232.992C282.469 232.664 282.327 232.287 282.27 231.861H283.443C283.52 232.2 283.676 232.474 283.912 232.684C284.15 232.892 284.458 232.995 284.835 232.995C285.411 232.995 285.861 232.744 286.184 232.242C286.507 231.737 286.67 231.032 286.672 230.128H286.611C286.478 230.348 286.311 230.538 286.111 230.696C285.914 230.855 285.692 230.978 285.446 231.066C285.2 231.153 284.937 231.196 284.658 231.196C284.204 231.196 283.792 231.085 283.42 230.862C283.048 230.639 282.752 230.333 282.532 229.943C282.311 229.553 282.201 229.109 282.201 228.609C282.201 228.112 282.314 227.661 282.54 227.256C282.768 226.851 283.085 226.53 283.493 226.295C283.903 226.056 284.384 225.94 284.935 225.945ZM284.938 226.944C284.639 226.944 284.368 227.019 284.127 227.167C283.889 227.313 283.701 227.512 283.562 227.763C283.424 228.012 283.355 228.289 283.355 228.594C283.355 228.899 283.421 229.175 283.555 229.424C283.69 229.67 283.875 229.866 284.108 230.012C284.344 230.156 284.613 230.227 284.915 230.227C285.141 230.227 285.351 230.184 285.546 230.097C285.741 230.01 285.911 229.889 286.057 229.735C286.203 229.579 286.317 229.402 286.399 229.205C286.481 229.008 286.522 228.8 286.522 228.582C286.522 228.292 286.453 228.023 286.315 227.775C286.179 227.526 285.992 227.326 285.754 227.175C285.515 227.021 285.243 226.944 284.938 226.944ZM289.686 233.999C289.476 233.999 289.295 233.924 289.144 233.776C288.993 233.625 288.917 233.443 288.917 233.23C288.917 233.02 288.993 232.84 289.144 232.692C289.295 232.541 289.476 232.465 289.686 232.465C289.896 232.465 290.077 232.541 290.228 232.692C290.38 232.84 290.455 233.02 290.455 233.23C290.455 233.371 290.419 233.5 290.348 233.618C290.278 233.734 290.186 233.826 290.071 233.895C289.955 233.964 289.827 233.999 289.686 233.999ZM291.98 233.926V233.065L294.644 230.304C294.928 230.004 295.163 229.742 295.347 229.516C295.534 229.288 295.674 229.072 295.766 228.867C295.859 228.662 295.905 228.444 295.905 228.213C295.905 227.952 295.843 227.726 295.72 227.536C295.597 227.344 295.429 227.197 295.216 227.094C295.004 226.989 294.764 226.937 294.498 226.937C294.216 226.937 293.97 226.994 293.759 227.11C293.549 227.225 293.388 227.388 293.275 227.598C293.162 227.808 293.106 228.054 293.106 228.336H291.972C291.972 227.857 292.082 227.438 292.302 227.079C292.523 226.72 292.825 226.442 293.21 226.245C293.594 226.045 294.031 225.945 294.521 225.945C295.015 225.945 295.451 226.043 295.828 226.241C296.207 226.436 296.503 226.702 296.716 227.04C296.929 227.376 297.035 227.756 297.035 228.178C297.035 228.471 296.98 228.756 296.87 229.036C296.762 229.315 296.574 229.626 296.304 229.97C296.035 230.311 295.661 230.725 295.182 231.212L293.617 232.849V232.907H297.162V233.926H291.98ZM301.36 234.056C300.752 234.054 300.233 233.894 299.803 233.576C299.372 233.258 299.043 232.796 298.815 232.188C298.587 231.581 298.473 230.849 298.473 229.993C298.473 229.14 298.587 228.41 298.815 227.805C299.046 227.201 299.376 226.739 299.807 226.422C300.24 226.104 300.758 225.945 301.36 225.945C301.962 225.945 302.479 226.105 302.909 226.425C303.34 226.743 303.669 227.204 303.897 227.809C304.128 228.412 304.243 229.14 304.243 229.993C304.243 230.852 304.129 231.585 303.901 232.192C303.673 232.797 303.344 233.259 302.913 233.58C302.482 233.898 301.965 234.056 301.36 234.056ZM301.36 233.03C301.893 233.03 302.309 232.77 302.609 232.25C302.912 231.729 303.063 230.977 303.063 229.993C303.063 229.339 302.994 228.787 302.855 228.336C302.719 227.882 302.523 227.539 302.267 227.306C302.013 227.07 301.711 226.952 301.36 226.952C300.829 226.952 300.413 227.213 300.11 227.736C299.808 228.259 299.656 229.011 299.653 229.993C299.653 230.649 299.721 231.204 299.857 231.658C299.995 232.109 300.191 232.451 300.445 232.684C300.699 232.915 301.004 233.03 301.36 233.03Z" fill="#9A9A9A"/>
<rect x="27.0645" y="273.348" width="48.7163" height="48.7163" rx="10.8258" fill="#1D2124"/>
<path d="M45.6589 302.186C45.6078 302.305 45.4055 302.468 45.1161 302.457C44.8185 302.434 44.4873 302.217 44.4425 301.679C44.4204 301.413 44.5208 301.089 44.5826 300.92C44.7021 300.592 44.5943 300.249 44.3142 300.066C44.1496 299.958 43.9531 299.921 43.7608 299.962C43.572 300.003 43.4111 300.114 43.3078 300.275C43.2222 300.409 43.1699 300.576 43.1419 300.665C43.1344 300.689 43.1284 300.708 43.1238 300.721C43.0608 300.89 42.9602 300.94 42.8922 300.93C42.86 300.926 42.8157 300.905 42.7874 300.827C42.71 300.615 42.7725 300.015 43.1724 299.573C43.4258 299.294 43.8231 299.151 44.2091 299.2C44.6111 299.251 44.9454 299.494 45.1505 299.884C45.4228 300.403 45.1802 300.947 45.0353 301.272C45.0196 301.308 45.0052 301.34 44.9929 301.369C44.902 301.585 44.8972 301.774 44.9795 301.9C45.0427 301.997 45.1554 302.054 45.2883 302.056C45.3503 302.057 45.4069 302.044 45.4569 302.033C45.5284 302.016 45.6023 301.999 45.6472 302.055C45.6637 302.073 45.6891 302.116 45.6589 302.186V302.186ZM44.2957 298.217C44.0818 298.206 43.8836 298.225 43.7195 298.258C42.3468 298.535 41.5716 299.702 41.7241 301.22C41.8621 302.593 43.2509 303.75 44.5366 303.785C44.6697 303.788 44.8016 303.779 44.9309 303.757C46.3222 303.52 46.6863 302.009 46.457 300.525C46.1981 298.85 45.0648 298.259 44.2957 298.217Z" fill="white"/>
<path d="M62.7661 304.883C61.2688 308.471 57.6953 310.469 53.4384 310.342C49.4699 310.224 46.0854 308.13 44.604 304.717C43.7083 304.717 42.7852 304.324 42.0832 303.702C41.3436 303.047 40.8873 302.199 40.7984 301.314C40.7292 300.625 40.8139 299.985 41.0298 299.426L40.1978 298.721C36.3912 295.507 48.2973 282.273 52.1053 285.595C52.1244 285.611 53.4007 286.864 53.4038 286.867L54.1114 286.566C57.4514 285.183 60.1616 285.851 60.165 288.058C60.1668 289.205 59.4355 290.543 58.2641 291.757C58.6886 292.151 59.0286 292.767 59.2238 293.471C59.3876 293.991 59.4166 294.518 59.4314 294.856C59.4518 295.324 59.4743 296.414 59.4766 296.433C59.5064 296.442 59.8444 296.535 59.9469 296.564C60.8435 296.815 61.4813 297.151 61.7933 297.478C62.1052 297.806 62.2599 298.122 62.316 298.494C62.3686 298.794 62.3615 299.323 61.9661 299.915C61.9661 299.915 62.0682 300.138 62.1668 300.454C62.2654 300.77 62.3371 301.032 62.3481 301.071C62.7105 301.071 63.2797 301.488 63.2797 302.495C63.2797 303.497 62.864 304.631 62.7661 304.883ZM63.6399 300.843C63.4782 300.645 63.2834 300.485 63.0727 300.372C63.0552 300.314 63.0365 300.252 63.0167 300.189C62.9938 300.116 62.971 300.047 62.9488 299.984C63.2774 299.289 63.2516 298.685 63.1949 298.351C63.1077 297.787 62.8669 297.315 62.4379 296.864C61.9146 296.315 61.0435 295.962 60.3499 295.754C60.3415 295.424 60.3311 295.05 60.3209 294.817C60.3073 294.508 60.2791 293.866 60.0777 293.218C59.9285 292.686 59.7087 292.197 59.4365 291.783C60.4872 290.522 61.057 289.219 61.0554 288.056C61.0524 286.172 59.586 284.955 57.3195 284.955C56.2433 284.955 55.0161 285.228 53.7687 285.744C53.7666 285.745 53.6981 285.774 53.603 285.814C53.2237 285.442 52.7238 284.953 52.6905 284.924C52.12 284.426 51.4119 284.174 50.5859 284.174C49.6025 284.174 48.4726 284.538 47.2275 285.257C46.1538 285.877 44.9997 286.763 43.8901 287.821C41.6278 289.977 39.8039 292.558 39.0112 294.725C38.6708 295.656 38.5247 296.5 38.5766 297.235C38.6397 298.127 39.0017 298.876 39.6224 299.401L40.0085 299.728C39.8861 300.258 39.8538 300.819 39.9126 301.403C40.0239 302.511 40.5852 303.564 41.4928 304.368C42.2225 305.015 43.1173 305.435 44.0177 305.564C44.8258 307.177 46.0601 308.537 47.613 309.518C49.2884 310.577 51.2937 311.169 53.412 311.232C53.5471 311.236 53.6837 311.238 53.8181 311.238H53.8186C56.0057 311.238 58.0534 310.701 59.7405 309.683C61.4775 308.636 62.8079 307.095 63.5877 305.226L63.5959 305.206C63.7305 304.859 64.17 303.64 64.17 302.495C64.17 301.667 63.8817 301.14 63.6399 300.843Z" fill="white"/>
<path d="M52.2027 297.543C52.1437 297.534 52.1185 297.509 52.1111 297.476C52.0882 297.372 52.2479 297.201 52.4162 297.078C52.926 296.711 53.5868 296.632 54.141 296.871C54.412 296.986 54.6674 297.192 54.7915 297.394C54.8515 297.492 54.8633 297.569 54.8243 297.608C54.7639 297.672 54.6092 297.599 54.3576 297.489C54.1061 297.378 53.7794 297.255 53.385 297.279C52.8264 297.313 52.3415 297.559 52.2027 297.543V297.543ZM54.7198 298.164C54.6836 298.22 54.6058 298.21 54.4412 298.191C54.143 298.157 53.8422 298.138 53.3862 298.301C53.3862 298.301 53.2204 298.367 53.1464 298.367C53.1251 298.367 53.1074 298.36 53.0925 298.347C53.0816 298.338 53.0677 298.319 53.0674 298.287C53.0669 298.22 53.1281 298.124 53.2272 298.038C53.3431 297.937 53.5239 297.829 53.8515 297.777C54.3028 297.724 54.6336 297.934 54.7104 298.059C54.7434 298.112 54.7304 298.147 54.7198 298.164V298.164ZM56.0984 298.346C56.1781 298.184 56.4231 298.141 56.6456 298.25C56.8681 298.359 56.9838 298.579 56.9041 298.742C56.8244 298.904 56.5794 298.947 56.3569 298.838C56.1344 298.728 56.0187 298.508 56.0984 298.346ZM57.2782 295.111C57.6298 295.055 57.8 295.419 57.9257 296.02C58.0103 296.425 57.994 296.797 57.9 297.013C57.7375 296.99 57.5608 296.991 57.3762 297.013C57.2359 296.833 57.11 296.544 57.0392 296.206C56.9136 295.604 56.9265 295.168 57.2782 295.111V295.111ZM58.1069 298.042C58.1027 298.29 57.9527 298.488 57.772 298.485C57.5913 298.482 57.4482 298.279 57.4524 298.031C57.4566 297.783 57.6065 297.585 57.7872 297.588C57.968 297.591 58.1111 297.794 58.1069 298.042ZM62.1679 301.892C61.976 301.774 61.7465 301.815 61.7465 301.815C61.7465 301.815 61.6418 301.098 61.3453 300.447C60.4663 301.141 59.3344 301.628 58.4728 301.876C57.4784 302.161 56.1327 302.38 54.6315 302.291C53.7985 302.224 53.2474 301.98 53.0401 302.654C54.9429 303.351 56.9569 303.052 56.9569 303.052C56.9959 303.048 57.0307 303.077 57.0346 303.116C57.0379 303.148 57.0187 303.179 56.9907 303.191C56.9907 303.191 55.4436 303.91 52.9865 303.15C53.0548 303.726 53.6165 303.984 53.8849 304.089C54.2225 304.22 54.5925 304.281 54.5925 304.281C57.6371 304.805 60.4836 303.064 61.1244 302.625C61.1724 302.592 61.2042 302.624 61.1657 302.683C61.1286 302.739 61.1263 302.742 61.1029 302.772C60.3186 303.784 58.2099 304.955 55.4666 304.955C54.27 304.955 53.0742 304.533 52.6352 303.886C51.954 302.881 52.6015 301.414 53.7366 301.566C53.7379 301.567 54.1249 301.611 54.2337 301.623C55.6527 301.781 57.7065 301.582 59.3994 300.796C60.9481 300.077 61.5331 299.286 61.4453 298.646C61.4215 298.473 61.3443 298.292 61.1784 298.122C60.9001 297.85 60.4588 297.638 59.7142 297.428C59.4682 297.359 59.3013 297.315 59.1215 297.256C58.8019 297.151 58.6439 297.066 58.6081 296.465C58.5924 296.202 58.5466 295.286 58.53 294.908C58.5009 294.245 58.4211 293.338 57.8587 292.964C57.7121 292.866 57.5492 292.819 57.3778 292.81C57.21 292.802 57.1261 292.832 57.0924 292.838C56.7712 292.893 56.5816 293.063 56.3449 293.261C55.6434 293.845 55.0509 293.941 54.3922 293.913C53.9986 293.896 53.5816 293.835 53.1035 293.806C53.0104 293.801 52.917 293.795 52.8239 293.79C51.7207 293.734 50.5374 294.687 50.3407 296.04C50.0669 297.923 51.431 298.896 51.8247 299.468C51.8749 299.536 51.9331 299.632 51.9331 299.724C51.9331 299.833 51.8623 299.92 51.7929 299.993V299.994C50.6674 301.151 50.3074 302.99 50.7315 304.523C50.7844 304.714 50.8516 304.897 50.931 305.072C51.9263 307.398 55.0136 308.481 58.0296 307.495C58.4337 307.364 58.8163 307.2 59.1755 307.011C59.852 306.68 60.4433 306.224 60.9302 305.7C61.7303 304.864 62.2065 303.955 62.3913 302.835C62.482 302.235 62.3491 302.004 62.1679 301.892" fill="white"/>
<path d="M56.0346 290.713C56.0828 290.724 56.1136 290.641 56.0704 290.616C55.433 290.259 54.4551 290.016 53.7613 290.011C53.727 290.011 53.7078 289.972 53.7283 289.944C53.8483 289.783 54.0126 289.623 54.1628 289.508C54.1967 289.482 54.1761 289.428 54.1337 289.43C53.1456 289.491 52.0193 289.964 51.3719 290.405C51.3399 290.427 51.2987 290.399 51.3065 290.361C51.3569 290.118 51.5161 289.797 51.5986 289.648C51.6183 289.612 51.58 289.573 51.544 289.592C50.5033 290.124 49.3414 291.072 48.3977 292.163C48.3644 292.201 48.4138 292.256 48.455 292.226C49.2702 291.633 50.3876 291.081 51.8515 290.724C53.4915 290.324 55.0702 290.492 56.0346 290.713" fill="white"/>
<path d="M52.5128 287.332C52.5128 287.332 51.4765 286.13 51.1636 286.042C49.2387 285.521 45.0809 288.389 42.4261 292.177C41.352 293.71 39.8142 296.425 40.5495 297.821C40.6401 297.994 41.1529 298.438 41.4282 298.668C41.8887 297.999 42.6418 297.515 43.4964 297.349C44.5844 294.429 46.4004 291.738 48.8046 289.887C50.5888 288.399 52.5128 287.332 52.5128 287.332" fill="white"/>
<path d="M87.8801 281.657H89.4634L92.4838 285.749L95.4311 281.657H97.0144V290.73H95.3458V284.568L92.5447 288.295H92.3498L89.5364 284.446V290.73H87.8801V281.657ZM100.626 290.877C99.9282 290.877 99.372 290.706 98.9579 290.365C98.5519 290.024 98.3489 289.561 98.3489 288.977C98.3489 288.416 98.5397 287.954 98.9214 287.588C99.303 287.223 99.8754 286.979 100.639 286.858L102.612 286.541V286.322C102.612 286.029 102.498 285.79 102.271 285.603C102.051 285.416 101.759 285.323 101.394 285.323C101.053 285.323 100.748 285.416 100.48 285.603C100.22 285.782 100.03 286.021 99.9079 286.322L98.6047 285.688C98.7996 285.169 99.1568 284.751 99.6765 284.434C100.196 284.117 100.789 283.959 101.455 283.959C101.99 283.959 102.465 284.06 102.88 284.263C103.302 284.458 103.627 284.738 103.854 285.104C104.089 285.461 104.207 285.867 104.207 286.322V290.73H102.697V290.024C102.177 290.592 101.487 290.877 100.626 290.877ZM100.005 288.916C100.005 289.143 100.091 289.326 100.261 289.464C100.432 289.594 100.651 289.659 100.919 289.659C101.414 289.659 101.82 289.504 102.137 289.196C102.453 288.879 102.612 288.49 102.612 288.027V287.759L100.943 288.039C100.626 288.104 100.391 288.209 100.237 288.356C100.082 288.494 100.005 288.68 100.005 288.916ZM105.682 284.105H107.277V290.73H105.682L105.682 284.105ZM105.56 282.278C105.56 281.986 105.641 281.759 105.803 281.596C105.966 281.434 106.189 281.353 106.473 281.353C106.766 281.353 106.993 281.434 107.155 281.596C107.318 281.759 107.399 281.986 107.399 282.278C107.399 282.562 107.318 282.786 107.155 282.948C107.001 283.11 106.774 283.192 106.473 283.192C106.189 283.192 105.966 283.11 105.803 282.948C105.641 282.786 105.56 282.562 105.56 282.278ZM108.75 281.511H110.346V290.73H108.75L108.75 281.511ZM115.01 290.877C114.36 290.877 113.767 290.726 113.232 290.426C112.704 290.117 112.29 289.699 111.989 289.172C111.689 288.644 111.539 288.055 111.539 287.406C111.539 286.756 111.689 286.171 111.989 285.652C112.29 285.124 112.704 284.71 113.232 284.41C113.759 284.109 114.352 283.959 115.01 283.959C115.716 283.959 116.345 284.142 116.897 284.507C117.45 284.864 117.827 285.335 118.03 285.92L116.642 286.529C116.512 286.188 116.301 285.92 116.008 285.725C115.716 285.522 115.383 285.42 115.01 285.42C114.669 285.42 114.36 285.506 114.084 285.676C113.808 285.847 113.589 286.086 113.426 286.395C113.272 286.695 113.195 287.036 113.195 287.418C113.195 287.799 113.272 288.144 113.426 288.453C113.589 288.753 113.808 288.989 114.084 289.159C114.36 289.33 114.669 289.415 115.01 289.415C115.391 289.415 115.724 289.318 116.008 289.123C116.301 288.92 116.512 288.644 116.642 288.295L118.03 288.928C117.835 289.504 117.458 289.975 116.897 290.341C116.345 290.698 115.716 290.877 115.01 290.877ZM119.229 281.511H120.824V284.763C121.011 284.503 121.258 284.304 121.567 284.166C121.875 284.028 122.221 283.959 122.602 283.959C123.081 283.959 123.511 284.064 123.893 284.276C124.275 284.487 124.571 284.783 124.782 285.165C124.993 285.546 125.099 285.981 125.099 286.468V290.73H123.503V286.845C123.503 286.415 123.378 286.07 123.126 285.81C122.882 285.55 122.562 285.42 122.164 285.42C121.774 285.42 121.453 285.55 121.202 285.81C120.95 286.07 120.824 286.415 120.824 286.845V290.73H119.229L119.229 281.511ZM126.448 284.105H128.043V290.73H126.448L126.448 284.105ZM126.326 282.278C126.326 281.986 126.407 281.759 126.57 281.596C126.732 281.434 126.955 281.353 127.24 281.353C127.532 281.353 127.759 281.434 127.922 281.596C128.084 281.759 128.165 281.986 128.165 282.278C128.165 282.562 128.084 282.786 127.922 282.948C127.767 283.11 127.54 283.192 127.24 283.192C126.955 283.192 126.732 283.11 126.57 282.948C126.407 282.786 126.326 282.562 126.326 282.278ZM129.516 284.105H131.015V284.933C131.185 284.617 131.429 284.377 131.745 284.215C132.07 284.044 132.444 283.959 132.866 283.959C133.304 283.959 133.706 284.056 134.071 284.251C134.437 284.438 134.717 284.698 134.912 285.031C135.131 284.673 135.415 284.405 135.764 284.227C136.122 284.048 136.524 283.959 136.97 283.959C137.433 283.959 137.851 284.064 138.225 284.276C138.598 284.487 138.89 284.783 139.101 285.165C139.313 285.546 139.418 285.981 139.418 286.468V290.73H137.823V286.845C137.823 286.407 137.705 286.062 137.469 285.81C137.242 285.55 136.934 285.42 136.544 285.42C136.162 285.42 135.854 285.55 135.618 285.81C135.383 286.07 135.265 286.415 135.265 286.845V290.73H133.67V286.845C133.67 286.407 133.552 286.062 133.316 285.81C133.089 285.55 132.78 285.42 132.391 285.42C132.009 285.42 131.701 285.55 131.465 285.81C131.23 286.07 131.112 286.415 131.112 286.845V290.73H129.516V284.105ZM140.768 284.105H142.266V284.885C142.509 284.592 142.81 284.365 143.167 284.202C143.533 284.04 143.943 283.959 144.397 283.959C145.014 283.959 145.579 284.113 146.09 284.422C146.602 284.722 147.004 285.136 147.296 285.664C147.588 286.192 147.734 286.776 147.734 287.418C147.734 288.059 147.588 288.644 147.296 289.172C147.004 289.699 146.602 290.117 146.09 290.426C145.587 290.726 145.018 290.877 144.385 290.877C143.979 290.877 143.602 290.812 143.252 290.682C142.903 290.544 142.607 290.349 142.363 290.097V293.166H140.768V284.105ZM142.363 287.418C142.363 287.799 142.44 288.144 142.595 288.453C142.757 288.753 142.976 288.989 143.252 289.159C143.537 289.33 143.853 289.415 144.202 289.415C144.746 289.415 145.193 289.228 145.542 288.855C145.899 288.473 146.078 287.994 146.078 287.418C146.078 287.044 145.997 286.707 145.834 286.407C145.672 286.098 145.449 285.859 145.165 285.688C144.88 285.51 144.56 285.42 144.202 285.42C143.853 285.42 143.537 285.506 143.252 285.676C142.976 285.847 142.757 286.086 142.595 286.395C142.44 286.695 142.363 287.036 142.363 287.418Z" fill="white"/>
<path d="M90.3499 300.209V308.082H89.1582V301.4H89.112L87.2283 302.631V301.493L89.1928 300.209H90.3499ZM95.2208 308.213C94.6134 308.21 94.0944 308.05 93.6638 307.732C93.2332 307.414 92.9039 306.952 92.6758 306.344C92.4477 305.737 92.3336 305.005 92.3336 304.149C92.3336 303.296 92.4477 302.567 92.6758 301.962C92.9064 301.357 93.2371 300.896 93.6676 300.578C94.1008 300.26 94.6185 300.101 95.2208 300.101C95.8231 300.101 96.3395 300.261 96.7701 300.582C97.2006 300.899 97.53 301.361 97.7581 301.966C97.9887 302.568 98.1041 303.296 98.1041 304.149C98.1041 305.008 97.99 305.741 97.7619 306.348C97.5338 306.953 97.2045 307.416 96.7739 307.736C96.3433 308.054 95.8256 308.213 95.2208 308.213ZM95.2208 307.186C95.7539 307.186 96.1703 306.926 96.4702 306.406C96.7726 305.886 96.9238 305.133 96.9238 304.149C96.9238 303.496 96.8546 302.943 96.7162 302.492C96.5804 302.039 96.3843 301.695 96.1281 301.462C95.8743 301.226 95.5719 301.108 95.2208 301.108C94.6902 301.108 94.2738 301.37 93.9713 301.893C93.6689 302.415 93.5164 303.168 93.5139 304.149C93.5139 304.805 93.5818 305.36 93.7176 305.814C93.856 306.265 94.0521 306.607 94.3058 306.84C94.5595 307.071 94.8645 307.186 95.2208 307.186ZM100.241 307.106C100.03 307.106 99.8498 307.031 99.6985 306.883C99.5473 306.731 99.4717 306.549 99.4717 306.337C99.4717 306.127 99.5473 305.947 99.6985 305.798C99.8498 305.647 100.03 305.572 100.241 305.572C100.451 305.572 100.631 305.647 100.783 305.798C100.934 305.947 101.009 306.127 101.009 306.337C101.009 306.478 100.974 306.607 100.902 306.725C100.833 306.84 100.74 306.933 100.625 307.002C100.51 307.071 100.382 307.106 100.241 307.106ZM100.241 303.161C100.03 303.161 99.8498 303.087 99.6985 302.938C99.5473 302.787 99.4717 302.605 99.4717 302.392C99.4717 302.182 99.5473 302.003 99.6985 301.854C99.8498 301.703 100.03 301.627 100.241 301.627C100.451 301.627 100.631 301.703 100.783 301.854C100.934 302.003 101.009 302.182 101.009 302.392C101.009 302.533 100.974 302.663 100.902 302.781C100.833 302.896 100.74 302.988 100.625 303.057C100.51 303.127 100.382 303.161 100.241 303.161ZM102.368 306.544V305.583L105.771 300.209H106.528V301.623H106.048L103.614 305.476V305.537H108.277V306.544H102.368ZM106.101 308.082V306.252L106.109 305.814V300.209H107.235V308.082H106.101ZM112.498 300.209V308.082H111.307V301.4H111.261L109.377 302.631V301.493L111.341 300.209H112.498ZM117.509 310.296V302.177H118.631V303.134H118.727C118.794 303.011 118.89 302.869 119.016 302.708C119.141 302.546 119.316 302.405 119.539 302.285C119.762 302.162 120.056 302.1 120.423 302.1C120.899 302.1 121.325 302.221 121.699 302.462C122.073 302.702 122.367 303.05 122.579 303.503C122.795 303.957 122.902 304.503 122.902 305.141C122.902 305.779 122.796 306.326 122.583 306.783C122.371 307.236 122.078 307.586 121.707 307.832C121.335 308.076 120.911 308.197 120.434 308.197C120.075 308.197 119.782 308.137 119.554 308.017C119.328 307.896 119.152 307.755 119.023 307.594C118.895 307.432 118.797 307.289 118.727 307.163H118.658V310.296H117.509ZM118.635 305.13C118.635 305.545 118.695 305.909 118.816 306.221C118.936 306.534 119.111 306.779 119.339 306.956C119.567 307.13 119.846 307.217 120.177 307.217C120.52 307.217 120.807 307.126 121.038 306.944C121.269 306.76 121.443 306.51 121.561 306.194C121.681 305.879 121.741 305.524 121.741 305.13C121.741 304.74 121.682 304.39 121.565 304.08C121.449 303.77 121.275 303.525 121.042 303.346C120.811 303.166 120.523 303.077 120.177 303.077C119.844 303.077 119.562 303.162 119.331 303.334C119.103 303.506 118.93 303.746 118.812 304.053C118.694 304.361 118.635 304.719 118.635 305.13ZM124.19 308.082V302.177H125.294V303.138H125.367C125.49 302.813 125.691 302.559 125.97 302.377C126.25 302.192 126.584 302.1 126.974 302.1C127.368 302.1 127.699 302.192 127.965 302.377C128.235 302.561 128.433 302.815 128.561 303.138H128.623C128.764 302.823 128.988 302.572 129.296 302.385C129.603 302.195 129.97 302.1 130.395 302.1C130.931 302.1 131.368 302.268 131.706 302.604C132.047 302.94 132.217 303.446 132.217 304.122V308.082H131.068V304.23C131.068 303.83 130.959 303.541 130.741 303.361C130.523 303.182 130.263 303.092 129.961 303.092C129.587 303.092 129.296 303.207 129.088 303.438C128.88 303.666 128.777 303.96 128.777 304.318V308.082H127.631V304.157C127.631 303.837 127.531 303.579 127.331 303.384C127.131 303.189 126.871 303.092 126.551 303.092C126.333 303.092 126.132 303.15 125.947 303.265C125.765 303.378 125.618 303.535 125.505 303.738C125.395 303.94 125.34 304.175 125.34 304.441V308.082H124.19Z" fill="#9A9A9A"/>
<path d="M267.025 294.442V295.442H263.534V294.442L267.025 294.442ZM270.971 299.863V290.021H271.601V299.863H270.971ZM272.943 293.074C272.902 292.71 272.733 292.428 272.436 292.228C272.138 292.026 271.764 291.924 271.313 291.924C270.99 291.924 270.711 291.976 270.475 292.078C270.239 292.178 270.056 292.317 269.925 292.493C269.797 292.668 269.733 292.866 269.733 293.089C269.733 293.276 269.776 293.438 269.864 293.574C269.953 293.709 270.07 293.824 270.213 293.916C270.36 294.005 270.516 294.081 270.682 294.143C270.849 294.202 271.009 294.25 271.163 294.289L271.932 294.489C272.183 294.55 272.441 294.633 272.705 294.738C272.969 294.844 273.213 294.982 273.439 295.154C273.664 295.325 273.846 295.538 273.985 295.792C274.126 296.046 274.196 296.349 274.196 296.703C274.196 297.149 274.081 297.545 273.85 297.891C273.622 298.237 273.29 298.51 272.855 298.71C272.421 298.91 271.897 299.01 271.282 299.01C270.693 299.01 270.183 298.916 269.752 298.729C269.322 298.542 268.985 298.277 268.741 297.933C268.498 297.587 268.363 297.177 268.337 296.703H269.529C269.552 296.987 269.645 297.225 269.806 297.414C269.97 297.601 270.179 297.741 270.433 297.833C270.689 297.923 270.97 297.968 271.275 297.968C271.61 297.968 271.909 297.915 272.17 297.81C272.434 297.703 272.642 297.554 272.793 297.364C272.944 297.172 273.02 296.948 273.02 296.691C273.02 296.458 272.953 296.267 272.82 296.119C272.689 295.97 272.511 295.847 272.286 295.75C272.063 295.652 271.81 295.566 271.528 295.492L270.598 295.238C269.967 295.067 269.468 294.814 269.099 294.481C268.732 294.148 268.549 293.707 268.549 293.158C268.549 292.705 268.672 292.309 268.918 291.971C269.164 291.632 269.497 291.37 269.917 291.182C270.338 290.993 270.812 290.898 271.34 290.898C271.873 290.898 272.343 290.991 272.751 291.179C273.161 291.366 273.484 291.623 273.72 291.951C273.955 292.277 274.078 292.651 274.089 293.074H272.943ZM275.508 298.879V298.018L278.172 295.257C278.457 294.958 278.691 294.695 278.876 294.469C279.063 294.241 279.203 294.025 279.295 293.82C279.387 293.615 279.433 293.397 279.433 293.166C279.433 292.905 279.372 292.679 279.249 292.49C279.126 292.297 278.958 292.15 278.745 292.047C278.532 291.942 278.293 291.89 278.026 291.89C277.744 291.89 277.498 291.947 277.288 292.063C277.078 292.178 276.917 292.341 276.804 292.551C276.691 292.761 276.635 293.007 276.635 293.289H275.5C275.5 292.81 275.611 292.391 275.831 292.032C276.052 291.673 276.354 291.395 276.738 291.198C277.123 290.998 277.56 290.898 278.049 290.898C278.544 290.898 278.98 290.997 279.356 291.194C279.736 291.389 280.032 291.655 280.244 291.994C280.457 292.329 280.564 292.709 280.564 293.132C280.564 293.424 280.508 293.709 280.398 293.989C280.291 294.268 280.102 294.58 279.833 294.923C279.564 295.264 279.19 295.678 278.711 296.165L277.146 297.802V297.86H280.69V298.879H275.508ZM284.889 299.01C284.281 299.007 283.762 298.847 283.332 298.529C282.901 298.211 282.572 297.749 282.344 297.141C282.115 296.534 282.001 295.802 282.001 294.946C282.001 294.093 282.115 293.363 282.344 292.759C282.574 292.154 282.905 291.692 283.335 291.375C283.769 291.057 284.286 290.898 284.889 290.898C285.491 290.898 286.007 291.058 286.438 291.378C286.868 291.696 287.198 292.158 287.426 292.762C287.656 293.365 287.772 294.093 287.772 294.946C287.772 295.805 287.658 296.538 287.43 297.145C287.202 297.75 286.872 298.213 286.442 298.533C286.011 298.851 285.493 299.01 284.889 299.01ZM284.889 297.983C285.422 297.983 285.838 297.723 286.138 297.203C286.44 296.682 286.592 295.93 286.592 294.946C286.592 294.293 286.522 293.74 286.384 293.289C286.248 292.836 286.052 292.492 285.796 292.259C285.542 292.023 285.24 291.905 284.889 291.905C284.358 291.905 283.942 292.167 283.639 292.689C283.337 293.212 283.184 293.964 283.182 294.946C283.182 295.602 283.25 296.157 283.385 296.611C283.524 297.062 283.72 297.404 283.974 297.637C284.227 297.868 284.532 297.983 284.889 297.983ZM289.623 298.952C289.413 298.952 289.232 298.878 289.081 298.729C288.93 298.578 288.854 298.396 288.854 298.183C288.854 297.973 288.93 297.794 289.081 297.645C289.232 297.494 289.413 297.418 289.623 297.418C289.833 297.418 290.014 297.494 290.165 297.645C290.316 297.794 290.392 297.973 290.392 298.183C290.392 298.324 290.356 298.453 290.284 298.571C290.215 298.687 290.123 298.779 290.007 298.848C289.892 298.917 289.764 298.952 289.623 298.952ZM294.372 299.01C293.764 299.007 293.245 298.847 292.815 298.529C292.384 298.211 292.055 297.749 291.827 297.141C291.599 296.534 291.485 295.802 291.485 294.946C291.485 294.093 291.599 293.363 291.827 292.759C292.057 292.154 292.388 291.692 292.819 291.375C293.252 291.057 293.769 290.898 294.372 290.898C294.974 290.898 295.49 291.058 295.921 291.378C296.352 291.696 296.681 292.158 296.909 292.762C297.14 293.365 297.255 294.093 297.255 294.946C297.255 295.805 297.141 296.538 296.913 297.145C296.685 297.75 296.355 298.213 295.925 298.533C295.494 298.851 294.977 299.01 294.372 299.01ZM294.372 297.983C294.905 297.983 295.321 297.723 295.621 297.203C295.924 296.682 296.075 295.93 296.075 294.946C296.075 294.293 296.006 293.74 295.867 293.289C295.731 292.836 295.535 292.492 295.279 292.259C295.025 292.023 294.723 291.905 294.372 291.905C293.841 291.905 293.425 292.167 293.122 292.689C292.82 293.212 292.667 293.964 292.665 294.946C292.665 295.602 292.733 296.157 292.869 296.611C293.007 297.062 293.203 297.404 293.457 297.637C293.71 297.868 294.015 297.983 294.372 297.983ZM301.36 299.01C300.752 299.007 300.233 298.847 299.803 298.529C299.372 298.211 299.043 297.749 298.815 297.141C298.587 296.534 298.473 295.802 298.473 294.946C298.473 294.093 298.587 293.363 298.815 292.759C299.046 292.154 299.376 291.692 299.807 291.375C300.24 291.057 300.758 290.898 301.36 290.898C301.962 290.898 302.479 291.058 302.909 291.378C303.34 291.696 303.669 292.158 303.897 292.762C304.128 293.365 304.243 294.093 304.243 294.946C304.243 295.805 304.129 296.538 303.901 297.145C303.673 297.75 303.344 298.213 302.913 298.533C302.482 298.851 301.965 299.01 301.36 299.01ZM301.36 297.983C301.893 297.983 302.309 297.723 302.609 297.203C302.912 296.682 303.063 295.93 303.063 294.946C303.063 294.293 302.994 293.74 302.855 293.289C302.719 292.836 302.523 292.492 302.267 292.259C302.013 292.023 301.711 291.905 301.36 291.905C300.829 291.905 300.413 292.167 300.11 292.689C299.808 293.212 299.656 293.964 299.653 294.946C299.653 295.602 299.721 296.157 299.857 296.611C299.995 297.062 300.191 297.404 300.445 297.637C300.699 297.868 301.004 297.983 301.36 297.983Z" fill="#9A9A9A"/>
</g>
<defs>
<clipPath id="clip0_590_14729">
<rect width="325" height="357" fill="white"/>
</clipPath>
<clipPath id="clip1_590_14729">
<rect width="27.0646" height="27.0646" fill="white" transform="translate(37.8906 154.262)"/>
</clipPath>
<clipPath id="clip2_590_14729">
<rect width="24.4241" height="25.0347" fill="white" transform="translate(39.2422 220.574)"/>
</clipPath>
</defs>
</svg>
