<svg width="32" height="32" viewBox="0 0 32 32" fill="none" xmlns="http://www.w3.org/2000/svg">
<path d="M24.3333 14.6667C24.3333 20.0054 20.0054 24.3333 14.6667 24.3333V26.3333C21.11 26.3333 26.3333 21.11 26.3333 14.6667H24.3333ZM14.6667 24.3333C9.32791 24.3333 5 20.0054 5 14.6667H3C3 21.11 8.22334 26.3333 14.6667 26.3333V24.3333ZM5 14.6667C5 9.32791 9.32791 5 14.6667 5V3C8.22334 3 3 8.22334 3 14.6667H5ZM14.6667 5C20.0054 5 24.3333 9.32791 24.3333 14.6667H26.3333C26.3333 8.22334 21.11 3 14.6667 3V5Z" fill="#E5BCE6"/>
<path d="M27.2942 28.7045C27.6847 29.095 28.3179 29.095 28.7084 28.7045C29.0989 28.314 29.0989 27.6808 28.7084 27.2903L27.2942 28.7045ZM23.3751 21.957C22.9846 21.5664 22.3514 21.5664 21.9609 21.957C21.5703 22.3475 21.5703 22.9806 21.9609 23.3712L23.3751 21.957ZM28.7084 27.2903L23.3751 21.957L21.9609 23.3712L27.2942 28.7045L28.7084 27.2903Z" fill="#E5BCE6"/>
</svg>
