<svg width="32" height="32" viewBox="0 0 32 32" fill="none" xmlns="http://www.w3.org/2000/svg">
<path d="M17.5513 26.8955L18.1325 27.7093L18.1325 27.7093L17.5513 26.8955ZM14.4513 26.8955L13.8701 27.7093L13.8701 27.7093L14.4513 26.8955ZM11.1348 24.5266L11.716 23.7128L11.716 23.7128L11.1348 24.5266ZM20.8678 24.5266L20.2866 23.7128L20.2866 23.7128L20.8678 24.5266ZM15.2687 4.21198L14.994 3.25045L15.2687 4.21198ZM16.7339 4.21198L17.0086 3.25045L16.7339 4.21198ZM23.4006 6.11674L23.6753 5.15522L23.4006 6.11674ZM8.60205 6.11674L8.32732 5.15522L8.60205 6.11674ZM8.87677 7.07826L15.5434 5.1735L14.994 3.25045L8.32732 5.15522L8.87677 7.07826ZM16.4592 5.1735L23.1258 7.07826L23.6753 5.15522L17.0086 3.25045L16.4592 5.1735ZM24.3346 8.6808V15.8467H26.3346V8.6808H24.3346ZM7.66797 15.8467V8.6808H5.66797V15.8467H7.66797ZM20.2866 23.7128L16.97 26.0818L18.1325 27.7093L21.4491 25.3403L20.2866 23.7128ZM15.0326 26.0818L11.716 23.7128L10.5535 25.3403L13.8701 27.7093L15.0326 26.0818ZM16.97 26.0818C16.3905 26.4957 15.6121 26.4957 15.0326 26.0818L13.8701 27.7093C15.145 28.6199 16.8576 28.6199 18.1325 27.7093L16.97 26.0818ZM5.66797 15.8467C5.66797 19.6145 7.48757 23.1503 10.5535 25.3403L11.716 23.7128C9.17564 21.8983 7.66797 18.9686 7.66797 15.8467H5.66797ZM24.3346 15.8467C24.3346 18.9686 22.827 21.8983 20.2866 23.7128L21.4491 25.3403C24.515 23.1503 26.3346 19.6145 26.3346 15.8467H24.3346ZM15.5434 5.1735C15.8427 5.088 16.1599 5.088 16.4592 5.1735L17.0086 3.25045C16.3502 3.06235 15.6524 3.06235 14.994 3.25045L15.5434 5.1735ZM23.1258 7.07826C23.8413 7.28269 24.3346 7.93667 24.3346 8.6808H26.3346C26.3346 7.04371 25.2494 5.60496 23.6753 5.15522L23.1258 7.07826ZM8.32732 5.15522C6.75322 5.60496 5.66797 7.04371 5.66797 8.6808H7.66797C7.66797 7.93667 8.16126 7.28269 8.87677 7.07826L8.32732 5.15522Z" fill="#E5BCE6"/>
</svg>
