<svg width="32" height="32" viewBox="0 0 32 32" fill="none" xmlns="http://www.w3.org/2000/svg">
<path d="M11.9558 22.6719L4 22.6719" stroke="#E5BCE6" stroke-width="2" stroke-linecap="round"/>
<path d="M28 9.33594H20" stroke="#E5BCE6" stroke-width="2" stroke-linecap="round"/>
<path d="M4.01333 9.33594L4 9.33594" stroke="#E5BCE6" stroke-width="2" stroke-linecap="round"/>
<path d="M28.0133 22.6719L28 22.6719" stroke="#E5BCE6" stroke-width="2" stroke-linecap="round"/>
<path d="M19.9115 18.6719C22.1084 18.6719 23.8894 20.4627 23.8894 22.6719C23.8894 24.881 22.1084 26.6719 19.9115 26.6719C17.7146 26.6719 15.9336 24.881 15.9336 22.6719C15.9336 20.4627 17.7146 18.6719 19.9115 18.6719Z" stroke="#E5BCE6" stroke-width="2"/>
<path d="M11.9545 5.33594C14.1514 5.33594 15.9324 7.1268 15.9324 9.33594C15.9324 11.5451 14.1514 13.3359 11.9545 13.3359C9.75753 13.3359 7.97656 11.5451 7.97656 9.33594C7.97656 7.1268 9.75753 5.33594 11.9545 5.33594Z" stroke="#E5BCE6" stroke-width="2"/>
</svg>
