<svg width="121" height="36" viewBox="0 0 121 36" fill="none" xmlns="http://www.w3.org/2000/svg">
<path d="M0.253906 25.1517C0.253906 30.9337 5.15391 35.5397 12.3569 35.5397C18.5309 35.5397 23.9209 32.0607 24.2149 25.9847C24.5089 22.0157 22.5489 17.7527 15.0029 15.6947L10.8379 14.4697C7.21191 13.4897 6.81991 11.6767 6.81991 10.5987C6.81991 8.19766 9.07391 6.62966 11.8669 6.62966C15.0029 6.62966 16.9139 8.39366 16.9139 11.0397H23.1859C23.1859 4.71866 18.3349 0.847656 11.9649 0.847656C5.74191 0.847656 0.596906 4.81666 0.596906 10.7457C0.596906 13.7347 1.77291 17.9977 9.12291 20.1537L13.2879 21.2317C16.5709 22.1137 18.0899 23.5837 17.9429 25.8377C17.7959 28.1407 15.7379 29.9047 12.3569 29.9047C8.73091 29.9047 6.62391 27.6017 6.52591 25.1517H0.253906Z" fill="#666469"/>
<path d="M39.6572 29.6107C36.3742 29.6107 33.6792 27.2097 33.6792 23.4857C33.6792 19.8597 36.3742 17.5077 39.6572 17.5077C42.9402 17.5077 45.6352 19.8597 45.6352 23.4857C45.6352 27.2097 42.9402 29.6107 39.6572 29.6107ZM39.6572 35.4417C46.1252 35.4417 51.5642 30.6887 51.5642 23.4857C51.5642 16.2827 46.1252 11.6277 39.6572 11.6277C33.1402 11.6277 27.7502 16.2827 27.7502 23.4857C27.7502 30.6887 33.1402 35.4417 39.6572 35.4417Z" fill="#666469"/>
<path d="M82.0621 17.4587C84.5121 17.4587 86.3741 19.2717 86.3741 22.5547V35.0007H92.3031V21.9177C92.3031 15.2047 89.0201 11.6277 83.4831 11.6277C81.6701 11.6277 78.4361 12.1667 76.2801 15.9397C75.0061 13.1467 72.6051 11.8727 68.9791 11.6767C66.8231 11.6767 63.6871 12.7057 62.4131 15.4987V12.1177H56.4351V35.0007H62.4131V22.7997C62.4131 18.8797 64.7651 17.4587 67.2151 17.4587C69.5671 17.4587 71.3801 19.2227 71.4291 22.4077V35.0007H77.4071V22.7997C77.4071 19.3207 79.3671 17.4587 82.0621 17.4587Z" fill="#666469"/>
<path d="M120.344 23.4857C120.344 16.2827 115.248 11.6277 108.731 11.6277C102.214 11.6277 96.8727 16.2827 96.8727 23.4857C96.8727 30.6887 102.214 35.4907 108.731 35.4907C112.945 35.4907 117.355 33.8737 119.413 29.9537C117.943 29.1697 116.277 28.2877 114.856 27.5037C113.778 29.4637 111.426 30.4437 109.123 30.4437C105.742 30.4437 103.194 28.5817 102.802 25.5437H120.246C120.295 25.0047 120.344 24.0737 120.344 23.4857ZM102.753 21.4767C103.194 18.3897 105.644 16.6257 108.78 16.6257C111.72 16.6257 114.072 18.3407 114.513 21.4767H102.753Z" fill="#666469"/>
</svg>
