<svg width="142" height="39" viewBox="0 0 142 39" fill="none" xmlns="http://www.w3.org/2000/svg">
<path d="M5.26375 17.4605H0.84375V11.2725H5.26375V3.78453H12.5958V11.2725H18.6798V17.4605H12.5958V29.1605C12.5958 30.0965 12.7864 30.7725 13.1678 31.1885C13.5838 31.6045 14.2598 31.8125 15.1958 31.8125H18.9918V38.0005H12.9078C7.81175 38.0005 5.26375 35.4525 5.26375 30.3565V17.4605Z" fill="#666469"/>
<path d="M37.3189 11.2725V17.9285H34.4069C32.3269 17.9285 30.8016 18.5525 29.8309 19.8005C28.8602 21.0485 28.3749 22.7472 28.3749 24.8965V38.0005H21.0429V11.2725H27.6989L28.3749 15.2765C29.1722 13.9592 30.1602 12.9712 31.3389 12.3125C32.5176 11.6192 34.0949 11.2725 36.0709 11.2725H37.3189Z" fill="#666469"/>
<path d="M43.2457 0.144531C44.459 0.144531 45.4644 0.543199 46.2617 1.34053C47.059 2.1032 47.4577 3.07387 47.4577 4.25253C47.4577 5.4312 47.059 6.4192 46.2617 7.21653C45.4644 8.01387 44.459 8.41253 43.2457 8.41253C42.0324 8.41253 41.0097 8.01387 40.1777 7.21653C39.3804 6.4192 38.9817 5.4312 38.9817 4.25253C38.9817 3.07387 39.3804 2.1032 40.1777 1.34053C41.0097 0.543199 42.0324 0.144531 43.2457 0.144531ZM39.5537 11.2725H46.8857V38.0005H39.5537V11.2725Z" fill="#666469"/>
<path d="M54.6471 0.144531C55.8604 0.144531 56.8658 0.543199 57.6631 1.34053C58.4604 2.1032 58.8591 3.07387 58.8591 4.25253C58.8591 5.4312 58.4604 6.4192 57.6631 7.21653C56.8658 8.01387 55.8604 8.41253 54.6471 8.41253C53.4338 8.41253 52.4111 8.01387 51.5791 7.21653C50.7818 6.4192 50.3831 5.4312 50.3831 4.25253C50.3831 3.07387 50.7818 2.1032 51.5791 1.34053C52.4111 0.543199 53.4338 0.144531 54.6471 0.144531ZM50.9551 11.2725H58.2871V38.0005H50.9551V11.2725Z" fill="#666469"/>
<path d="M88.0445 27.8605C87.5592 31.1192 86.1725 33.6845 83.8845 35.5565C81.6312 37.3939 78.7018 38.3125 75.0965 38.3125C72.3232 38.3125 69.8965 37.7579 67.8165 36.6485C65.7365 35.5045 64.1245 33.8925 62.9805 31.8125C61.8712 29.7325 61.3165 27.3405 61.3165 24.6365C61.3165 21.8979 61.8712 19.5059 62.9805 17.4605C64.1245 15.3805 65.7365 13.7859 67.8165 12.6765C69.9312 11.5325 72.3752 10.9605 75.1485 10.9605C78.7192 10.9605 81.6312 11.8792 83.8845 13.7165C86.1378 15.5192 87.5245 18.0325 88.0445 21.2565H80.4525C80.1405 19.9392 79.5165 18.8992 78.5805 18.1365C77.6445 17.3392 76.4832 16.9405 75.0965 16.9405C73.1898 16.9405 71.6645 17.6512 70.5205 19.0725C69.3765 20.4939 68.8045 22.3485 68.8045 24.6365C68.8045 26.9245 69.3765 28.7792 70.5205 30.2005C71.6645 31.6219 73.1898 32.3325 75.0965 32.3325C76.5178 32.3325 77.6965 31.9339 78.6325 31.1365C79.6032 30.3392 80.2272 29.2472 80.5045 27.8605H88.0445Z" fill="#666469"/>
<path d="M90.9727 1.60053H98.3047V22.6605L108.809 11.2725H117.025L107.509 21.7245L117.545 38.0005H109.069L102.309 27.1845L98.3047 31.5005V38.0005H90.9727V1.60053Z" fill="#666469"/>
<path d="M123.792 29.1085C123.896 30.2872 124.468 31.2405 125.508 31.9685C126.548 32.6965 127.882 33.0605 129.512 33.0605C131.072 33.0605 132.302 32.8179 133.204 32.3325C134.105 31.8125 134.556 31.0845 134.556 30.1485C134.556 29.4552 134.348 28.9352 133.932 28.5885C133.516 28.2419 132.926 27.9992 132.164 27.8605C131.401 27.6872 130.153 27.4965 128.42 27.2885C126.062 26.9765 124.104 26.5779 122.544 26.0925C120.984 25.6072 119.736 24.8445 118.8 23.8045C117.864 22.7645 117.396 21.3779 117.396 19.6445C117.396 17.9112 117.864 16.3859 118.8 15.0685C119.77 13.7165 121.122 12.6765 122.856 11.9485C124.589 11.2205 126.582 10.8565 128.836 10.8565C132.476 10.8912 135.405 11.6712 137.624 13.1965C139.877 14.7219 141.09 16.8365 141.264 19.5405H134.296C134.192 18.5352 133.654 17.7205 132.684 17.0965C131.748 16.4379 130.534 16.1085 129.044 16.1085C127.657 16.1085 126.53 16.3685 125.664 16.8885C124.832 17.4085 124.416 18.1019 124.416 18.9685C124.416 19.5925 124.641 20.0605 125.092 20.3725C125.542 20.6845 126.132 20.9099 126.86 21.0485C127.588 21.1872 128.801 21.3432 130.5 21.5165C134.105 21.9325 136.861 22.7125 138.768 23.8565C140.709 24.9659 141.68 26.8899 141.68 29.6285C141.68 31.3619 141.16 32.8872 140.12 34.2045C139.114 35.5219 137.693 36.5445 135.856 37.2725C134.053 37.9659 131.956 38.3125 129.564 38.3125C125.854 38.3125 122.838 37.4979 120.516 35.8685C118.193 34.2045 116.962 31.9512 116.824 29.1085H123.792Z" fill="#666469"/>
</svg>
