<svg width="174" height="49" viewBox="0 0 174 49" fill="none" xmlns="http://www.w3.org/2000/svg">
<path d="M35.308 1.08078H0.416016V8.46478H13.208V38.0008H22.516V8.46478H35.308V1.08078Z" fill="#666469"/>
<path d="M43.3185 19.1768V12.0008H35.2065V38.0008H44.0985V28.2248C44.0985 25.3648 44.7225 22.9728 46.4385 21.3608C47.7385 20.1128 49.6625 19.3848 52.4185 19.3848C53.4065 19.3848 54.1865 19.4368 55.0705 19.5928V11.4808C54.5505 11.3768 54.1345 11.3248 53.3545 11.3248C48.2585 11.3248 44.7745 14.2368 43.3185 19.1768Z" fill="#666469"/>
<path d="M69.1446 38.7808C73.9806 38.7808 77.9846 36.5448 79.7006 32.6448V38.0008H88.2806V12.0008H79.3886V25.3648C79.3886 29.1088 77.1526 32.2288 72.6286 32.2288C69.3526 32.2288 67.0126 30.4608 67.0126 25.8848V12.0008H58.1206V27.6528C58.1206 34.7768 61.7606 38.7808 69.1446 38.7808Z" fill="#666469"/>
<path d="M123.787 24.8968C123.787 16.3168 118.119 11.2208 108.239 11.2208C98.6712 11.2208 92.4832 16.4728 92.4832 25.2088C92.4832 33.7368 98.6192 38.7808 108.759 38.7808C115.415 38.7808 120.563 36.2848 123.267 31.9168L116.611 28.9008C115.051 31.3968 112.347 32.6968 108.967 32.6968C104.235 32.6968 101.271 30.5648 101.011 26.9768H123.787V24.8968ZM115.051 22.1408H100.959C101.219 18.5008 103.871 16.3168 108.135 16.3168C112.295 16.3168 115.051 18.4488 115.051 22.0368V22.1408Z" fill="#666469"/>
<path d="M137.418 0.300781H128.526V38.0008H137.418V0.300781Z" fill="#666469"/>
<path d="M147.043 48.6608C154.531 48.6608 158.847 45.9568 161.759 39.1968L173.511 12.0008H164.307L158.327 27.9648C157.911 29.2128 157.703 29.8888 157.547 30.8248H157.391C157.183 29.7328 157.027 29.0568 156.559 27.9128L150.319 12.0008H140.491L152.867 37.9488L152.659 38.7288C151.619 40.9128 149.279 42.0048 146.159 42.0048C145.119 42.0048 144.131 41.9528 142.623 41.6928V48.2968C144.079 48.5568 145.899 48.6608 147.043 48.6608Z" fill="#666469"/>
</svg>
